%TF.GenerationSoftware,KiCad,Pcbnew,9.0.1*%
%TF.CreationDate,2026-03-07T23:08:11+01:00*%
%TF.ProjectId,power_amp,706f7765-725f-4616-9d70-2e6b69636164,rev?*%
%TF.SameCoordinates,Original*%
%TF.FileFunction,Paste,Bot*%
%TF.FilePolarity,Positive*%
%FSLAX46Y46*%
G04 Gerber Fmt 4.6, Leading zero omitted, Abs format (unit mm)*
G04 Created by KiCad (PCBNEW 9.0.1) date 2026-03-07 23:08:11*
%MOMM*%
%LPD*%
G01*
G04 APERTURE LIST*
G04 Aperture macros list*
%AMRoundRect*
0 Rectangle with rounded corners*
0 $1 Rounding radius*
0 $2 $3 $4 $5 $6 $7 $8 $9 X,Y pos of 4 corners*
0 Add a 4 corners polygon primitive as box body*
4,1,4,$2,$3,$4,$5,$6,$7,$8,$9,$2,$3,0*
0 Add four circle primitives for the rounded corners*
1,1,$1+$1,$2,$3*
1,1,$1+$1,$4,$5*
1,1,$1+$1,$6,$7*
1,1,$1+$1,$8,$9*
0 Add four rect primitives between the rounded corners*
20,1,$1+$1,$2,$3,$4,$5,0*
20,1,$1+$1,$4,$5,$6,$7,0*
20,1,$1+$1,$6,$7,$8,$9,0*
20,1,$1+$1,$8,$9,$2,$3,0*%
G04 Aperture macros list end*
%ADD10RoundRect,0.250000X-0.475000X0.337500X-0.475000X-0.337500X0.475000X-0.337500X0.475000X0.337500X0*%
%ADD11RoundRect,0.250000X-0.350000X-0.450000X0.350000X-0.450000X0.350000X0.450000X-0.350000X0.450000X0*%
%ADD12RoundRect,0.250000X-0.625000X0.400000X-0.625000X-0.400000X0.625000X-0.400000X0.625000X0.400000X0*%
%ADD13RoundRect,0.250000X0.400000X0.625000X-0.400000X0.625000X-0.400000X-0.625000X0.400000X-0.625000X0*%
%ADD14RoundRect,0.250000X0.475000X-0.337500X0.475000X0.337500X-0.475000X0.337500X-0.475000X-0.337500X0*%
%ADD15RoundRect,0.250000X-0.450000X0.350000X-0.450000X-0.350000X0.450000X-0.350000X0.450000X0.350000X0*%
%ADD16RoundRect,0.250000X-2.350000X0.412500X-2.350000X-0.412500X2.350000X-0.412500X2.350000X0.412500X0*%
%ADD17RoundRect,0.250000X0.450000X-0.350000X0.450000X0.350000X-0.450000X0.350000X-0.450000X-0.350000X0*%
%ADD18RoundRect,0.250000X0.625000X-0.400000X0.625000X0.400000X-0.625000X0.400000X-0.625000X-0.400000X0*%
%ADD19RoundRect,0.250000X-0.400000X-0.625000X0.400000X-0.625000X0.400000X0.625000X-0.400000X0.625000X0*%
%ADD20RoundRect,0.250001X-0.462499X-0.624999X0.462499X-0.624999X0.462499X0.624999X-0.462499X0.624999X0*%
G04 APERTURE END LIST*
D10*
%TO.C,C11*%
X82412500Y-59337500D03*
X82412500Y-61412500D03*
%TD*%
%TO.C,C24*%
X87012500Y-59337500D03*
X87012500Y-61412500D03*
%TD*%
D11*
%TO.C,R52*%
X169500000Y-48440000D03*
X171500000Y-48440000D03*
%TD*%
D12*
%TO.C,R56*%
X201487500Y-113005000D03*
X201487500Y-116105000D03*
%TD*%
D13*
%TO.C,R61*%
X208512500Y-60925000D03*
X205412500Y-60925000D03*
%TD*%
D12*
%TO.C,R60*%
X201862500Y-59375000D03*
X201862500Y-62475000D03*
%TD*%
D14*
%TO.C,C42*%
X161462500Y-49000000D03*
X161462500Y-46925000D03*
%TD*%
D15*
%TO.C,R10*%
X170200000Y-123800000D03*
X170200000Y-125800000D03*
%TD*%
D14*
%TO.C,C14*%
X87162500Y-49362500D03*
X87162500Y-47287500D03*
%TD*%
D13*
%TO.C,R63*%
X208212500Y-78080000D03*
X205112500Y-78080000D03*
%TD*%
D14*
%TO.C,C74*%
X155212500Y-49000000D03*
X155212500Y-46925000D03*
%TD*%
D16*
%TO.C,R55*%
X213587500Y-89017500D03*
X213587500Y-91442500D03*
%TD*%
D15*
%TO.C,R11*%
X172600000Y-123800000D03*
X172600000Y-125800000D03*
%TD*%
D10*
%TO.C,C3*%
X170190000Y-115262500D03*
X170190000Y-117337500D03*
%TD*%
D17*
%TO.C,R51*%
X168110000Y-63020000D03*
X168110000Y-61020000D03*
%TD*%
D10*
%TO.C,C70*%
X126212500Y-59325000D03*
X126212500Y-61400000D03*
%TD*%
%TO.C,C71*%
X117562500Y-59337500D03*
X117562500Y-61412500D03*
%TD*%
%TO.C,C17*%
X89112500Y-59337500D03*
X89112500Y-61412500D03*
%TD*%
D18*
%TO.C,R62*%
X201562500Y-79730000D03*
X201562500Y-76630000D03*
%TD*%
D10*
%TO.C,C4*%
X175920000Y-115262500D03*
X175920000Y-117337500D03*
%TD*%
D19*
%TO.C,R58*%
X205012500Y-97280000D03*
X208112500Y-97280000D03*
%TD*%
D20*
%TO.C,F3*%
X215912500Y-102700000D03*
X218887500Y-102700000D03*
%TD*%
D10*
%TO.C,C22*%
X80362500Y-59337500D03*
X80362500Y-61412500D03*
%TD*%
D20*
%TO.C,F1*%
X215912500Y-66100000D03*
X218887500Y-66100000D03*
%TD*%
D14*
%TO.C,C21*%
X85062500Y-49350000D03*
X85062500Y-47275000D03*
%TD*%
D12*
%TO.C,R59*%
X201387500Y-95755000D03*
X201387500Y-98855000D03*
%TD*%
D15*
%TO.C,R12*%
X175000000Y-123800000D03*
X175000000Y-125800000D03*
%TD*%
D10*
%TO.C,C73*%
X124112500Y-59325000D03*
X124112500Y-61400000D03*
%TD*%
%TO.C,C20*%
X119662500Y-59337500D03*
X119662500Y-61412500D03*
%TD*%
D20*
%TO.C,F4*%
X215912500Y-120300000D03*
X218887500Y-120300000D03*
%TD*%
D10*
%TO.C,C41*%
X174212500Y-59475000D03*
X174212500Y-61550000D03*
%TD*%
D15*
%TO.C,R9*%
X177400000Y-123800000D03*
X177400000Y-125800000D03*
%TD*%
D16*
%TO.C,R66*%
X213687500Y-106742500D03*
X213687500Y-109167500D03*
%TD*%
D20*
%TO.C,F2*%
X215912500Y-83300000D03*
X218887500Y-83300000D03*
%TD*%
D14*
%TO.C,C47*%
X157262500Y-49000000D03*
X157262500Y-46925000D03*
%TD*%
D19*
%TO.C,R57*%
X205062500Y-114505000D03*
X208162500Y-114505000D03*
%TD*%
D10*
%TO.C,C45*%
X172162500Y-59475000D03*
X172162500Y-61550000D03*
%TD*%
D14*
%TO.C,C46*%
X159362500Y-49000000D03*
X159362500Y-46925000D03*
%TD*%
%TO.C,C23*%
X124662500Y-49312500D03*
X124662500Y-47237500D03*
%TD*%
%TO.C,C72*%
X122512500Y-49312500D03*
X122512500Y-47237500D03*
%TD*%
M02*
