M48
; DRILL file {KiCad 9.0.1} date 2026-03-07T23:08:16+0100
; FORMAT={-:-/ absolute / metric / decimal}
; #@! TF.CreationDate,2026-03-07T23:08:16+01:00
; #@! TF.GenerationSoftware,Kicad,Pcbnew,9.0.1
; #@! TF.FileFunction,Plated,1,2,PTH
FMAT,2
METRIC
; #@! TA.AperFunction,Plated,PTH,ViaDrill
T1C0.300
; #@! TA.AperFunction,Plated,PTH,ViaDrill
T2C0.500
; #@! TA.AperFunction,Plated,PTH,ComponentDrill
T3C0.800
; #@! TA.AperFunction,Plated,PTH,ComponentDrill
T4C1.000
; #@! TA.AperFunction,Plated,PTH,ComponentDrill
T5C1.200
; #@! TA.AperFunction,Plated,PTH,ComponentDrill
T6C1.300
; #@! TA.AperFunction,Plated,PTH,ComponentDrill
T7C1.700
; #@! TA.AperFunction,Plated,PTH,ComponentDrill
T8C3.200
%
G90
G05
T1
X50.0Y-60.0
X50.0Y-104.0
X58.0Y-131.0
X61.0Y-115.0
X65.0Y-44.0
X74.0Y-76.0
X77.0Y-92.0
X80.0Y-64.0
X80.0Y-66.0
X82.0Y-48.0
X82.0Y-50.0
X82.0Y-64.0
X82.0Y-66.0
X84.0Y-66.0
X84.502Y-63.662
X86.0Y-66.0
X88.0Y-66.0
X90.0Y-48.0
X90.0Y-50.0
X90.0Y-66.0
X92.0Y-48.0
X92.0Y-50.0
X92.0Y-66.0
X93.203Y-55.51
X93.302Y-61.675
X94.0Y-48.0
X94.0Y-50.0
X94.0Y-66.0
X95.5Y-64.7
X96.0Y-48.0
X96.0Y-50.0
X98.0Y-48.0
X98.0Y-50.0
X98.0Y-66.0
X98.0Y-77.0
X98.0Y-94.0
X100.7Y-52.6
X109.0Y-46.0
X110.0Y-76.0
X113.0Y-104.0
X113.0Y-106.0
X114.0Y-91.0
X117.0Y-64.0
X117.0Y-66.0
X119.0Y-48.0
X119.0Y-50.0
X119.0Y-64.0
X119.0Y-66.0
X121.0Y-66.0
X121.502Y-63.762
X122.0Y-42.0
X123.0Y-66.0
X125.0Y-66.0
X127.0Y-48.0
X127.0Y-50.0
X127.0Y-66.0
X129.0Y-48.0
X129.0Y-50.0
X129.0Y-66.0
X129.0Y-104.0
X129.0Y-106.0
X130.302Y-61.725
X130.46Y-55.64
X131.0Y-48.0
X131.0Y-50.0
X132.5Y-65.1
X133.0Y-48.0
X133.0Y-50.0
X135.0Y-48.0
X135.0Y-50.0
X135.0Y-66.0
X137.7Y-52.7
X138.0Y-85.0
X142.0Y-46.0
X145.0Y-104.0
X145.0Y-106.0
X148.0Y-60.6
X152.0Y-59.0
X152.0Y-61.0
X152.0Y-63.0
X152.0Y-65.0
X152.0Y-67.0
X152.0Y-71.0
X152.0Y-73.0
X152.0Y-75.0
X152.0Y-88.0
X154.0Y-59.0
X154.0Y-61.0
X154.0Y-75.0
X156.0Y-73.0
X156.0Y-75.0
X156.522Y-67.95
X158.0Y-71.0
X158.0Y-73.0
X158.0Y-75.0
X158.5Y-58.25
X158.7Y-64.3
X159.5Y-58.75
X160.0Y-75.0
X160.2Y-59.48
X161.0Y-104.0
X161.0Y-106.0
X162.0Y-115.0
X162.0Y-117.0
X162.0Y-119.0
X162.25Y-58.75
X162.3Y-61.7
X163.0Y-48.0
X163.0Y-50.0
X164.0Y-71.0
X164.0Y-73.0
X164.0Y-75.0
X164.0Y-119.0
X165.0Y-48.0
X165.0Y-50.0
X165.0Y-62.0
X165.1Y-116.7
X165.6Y-113.4
X166.0Y-75.0
X166.0Y-119.0
X166.123Y-67.912
X167.0Y-48.0
X167.0Y-50.0
X168.0Y-73.0
X168.0Y-75.0
X168.1Y-64.3
X168.43Y-112.66
X168.84Y-115.76
X169.0Y-50.0
X170.0Y-71.0
X170.0Y-73.0
X170.0Y-75.0
X171.66Y-112.36
X171.66Y-114.22
X172.0Y-75.0
X174.6Y-114.2
X174.82Y-115.75
X177.0Y-50.0
X177.6Y-113.8
X178.4Y-118.6
X178.5Y-116.9
X181.0Y-111.0
X181.0Y-113.0
X181.0Y-115.0
X181.0Y-117.0
X181.0Y-119.0
X183.0Y-99.0
X183.0Y-104.0
X183.0Y-111.0
X183.0Y-113.0
X183.0Y-115.0
X183.0Y-117.0
X183.0Y-119.0
X187.0Y-119.0
X188.0Y-111.0
X198.0Y-126.0
X198.0Y-132.0
X211.0Y-126.0
X211.0Y-132.0
X222.0Y-126.0
T2
X149.5Y-51.0
X149.5Y-57.25
X150.25Y-51.8
X150.25Y-56.45
X151.0Y-51.0
X151.0Y-57.25
X170.2Y-123.8
X172.6Y-123.8
X175.0Y-123.8
X175.27Y-54.98
X175.8Y-53.19
X177.4Y-123.8
X211.6Y-89.0
X211.6Y-106.8
X211.65Y-91.5
X211.9Y-109.15
X213.587Y-89.017
X213.688Y-91.5
X213.688Y-109.167
X213.8Y-106.8
X215.4Y-109.15
X215.55Y-91.5
X215.6Y-89.0
X215.8Y-106.8
T3
X72.862Y-52.278
X72.862Y-55.778
X72.862Y-62.478
X72.862Y-65.978
X102.862Y-104.825
X102.862Y-108.125
X104.262Y-111.125
X104.262Y-121.125
X107.862Y-104.825
X107.862Y-108.125
X108.67Y-52.303
X108.67Y-55.803
X108.67Y-63.955
X108.67Y-67.455
X118.862Y-104.875
X118.862Y-108.175
X120.262Y-111.175
X120.262Y-121.175
X123.862Y-104.875
X123.862Y-108.175
X134.985Y-104.825
X134.985Y-108.125
X136.435Y-111.175
X136.435Y-121.175
X139.985Y-104.825
X139.985Y-108.125
X145.0Y-52.333
X145.0Y-55.833
X145.07Y-63.943
X145.07Y-67.443
X151.062Y-104.825
X151.062Y-108.125
X152.463Y-111.125
X152.463Y-121.125
X154.713Y-71.812
X154.713Y-81.812
X156.062Y-104.825
X156.062Y-108.125
X160.713Y-71.812
X160.713Y-81.812
X166.713Y-71.812
X166.713Y-81.812
X172.713Y-71.812
X172.713Y-81.812
X204.887Y-94.755
X204.887Y-99.755
X204.887Y-112.055
X204.887Y-117.055
X204.962Y-75.58
X204.962Y-80.58
X205.262Y-58.425
X205.262Y-63.425
X208.287Y-94.755
X208.287Y-99.755
X208.287Y-112.055
X208.287Y-117.055
X208.362Y-75.58
X208.362Y-80.58
X208.662Y-58.425
X208.662Y-63.425
X211.812Y-94.755
X211.812Y-99.755
X211.887Y-112.055
X211.887Y-117.055
X211.962Y-75.58
X211.962Y-80.58
X212.262Y-58.425
X212.262Y-63.425
X215.287Y-112.055
X215.287Y-117.055
X215.312Y-94.755
X215.312Y-99.755
X215.362Y-75.58
X215.362Y-80.58
X215.662Y-58.425
X215.662Y-63.425
T4
X81.302Y-56.825
X83.002Y-51.745
X84.703Y-56.825
X86.402Y-51.745
X88.102Y-56.825
X89.802Y-51.745
X91.502Y-56.825
X93.203Y-51.745
X94.902Y-56.825
X96.602Y-51.745
X98.302Y-56.825
X118.402Y-56.705
X120.102Y-51.625
X121.802Y-56.705
X123.502Y-51.625
X125.203Y-56.705
X126.902Y-51.625
X128.602Y-56.705
X130.302Y-51.625
X132.002Y-56.705
X133.702Y-51.625
X135.403Y-56.705
X154.99Y-56.69
X156.26Y-51.61
X157.53Y-56.69
X158.8Y-51.61
X160.07Y-56.69
X161.34Y-51.61
X162.61Y-56.69
X163.88Y-51.61
X165.15Y-56.69
X166.42Y-51.61
X167.69Y-56.69
X168.96Y-51.61
X170.042Y-129.525
X170.23Y-56.69
X171.5Y-51.61
X172.582Y-129.525
X172.77Y-56.69
X175.123Y-129.525
X177.662Y-129.525
X180.202Y-129.525
T5
X72.662Y-109.925
X77.662Y-109.925
X82.402Y-70.225
X86.662Y-109.925
X91.662Y-109.925
X97.402Y-70.225
X119.502Y-70.225
X134.502Y-70.225
T6
X198.062Y-94.73
X198.062Y-99.73
X198.087Y-112.055
X198.087Y-117.055
X198.262Y-75.58
X198.262Y-80.58
X198.462Y-58.525
X198.462Y-63.525
T7
X78.4Y-129.5
X83.4Y-129.5
X88.4Y-129.5
X104.385Y-129.375
X109.385Y-129.375
X120.462Y-129.375
X125.462Y-129.375
X136.585Y-129.375
X141.585Y-129.375
X152.707Y-129.375
X157.707Y-129.375
X221.737Y-112.032
X221.737Y-117.032
X221.812Y-94.557
X221.812Y-99.557
X221.962Y-75.68
X221.962Y-80.68
X222.112Y-58.402
X222.112Y-63.402
T8
X48.95Y-133.15
X49.0Y-43.2
X121.0Y-91.25
X223.95Y-43.15
X223.95Y-133.1
M30
