%TF.GenerationSoftware,KiCad,Pcbnew,9.0.1*%
%TF.CreationDate,2026-03-07T23:08:11+01:00*%
%TF.ProjectId,power_amp,706f7765-725f-4616-9d70-2e6b69636164,rev?*%
%TF.SameCoordinates,Original*%
%TF.FileFunction,Soldermask,Top*%
%TF.FilePolarity,Negative*%
%FSLAX46Y46*%
G04 Gerber Fmt 4.6, Leading zero omitted, Abs format (unit mm)*
G04 Created by KiCad (PCBNEW 9.0.1) date 2026-03-07 23:08:11*
%MOMM*%
%LPD*%
G01*
G04 APERTURE LIST*
G04 Aperture macros list*
%AMRoundRect*
0 Rectangle with rounded corners*
0 $1 Rounding radius*
0 $2 $3 $4 $5 $6 $7 $8 $9 X,Y pos of 4 corners*
0 Add a 4 corners polygon primitive as box body*
4,1,4,$2,$3,$4,$5,$6,$7,$8,$9,$2,$3,0*
0 Add four circle primitives for the rounded corners*
1,1,$1+$1,$2,$3*
1,1,$1+$1,$4,$5*
1,1,$1+$1,$6,$7*
1,1,$1+$1,$8,$9*
0 Add four rect primitives between the rounded corners*
20,1,$1+$1,$2,$3,$4,$5,0*
20,1,$1+$1,$4,$5,$6,$7,0*
20,1,$1+$1,$6,$7,$8,$9,0*
20,1,$1+$1,$8,$9,$2,$3,0*%
%AMFreePoly0*
4,1,23,0.500000,-0.750000,0.000000,-0.750000,0.000000,-0.745722,-0.065263,-0.745722,-0.191342,-0.711940,-0.304381,-0.646677,-0.396677,-0.554381,-0.461940,-0.441342,-0.495722,-0.315263,-0.495722,-0.250000,-0.500000,-0.250000,-0.500000,0.250000,-0.495722,0.250000,-0.495722,0.315263,-0.461940,0.441342,-0.396677,0.554381,-0.304381,0.646677,-0.191342,0.711940,-0.065263,0.745722,0.000000,0.745722,
0.000000,0.750000,0.500000,0.750000,0.500000,-0.750000,0.500000,-0.750000,$1*%
%AMFreePoly1*
4,1,23,0.000000,0.745722,0.065263,0.745722,0.191342,0.711940,0.304381,0.646677,0.396677,0.554381,0.461940,0.441342,0.495722,0.315263,0.495722,0.250000,0.500000,0.250000,0.500000,-0.250000,0.495722,-0.250000,0.495722,-0.315263,0.461940,-0.441342,0.396677,-0.554381,0.304381,-0.646677,0.191342,-0.711940,0.065263,-0.745722,0.000000,-0.745722,0.000000,-0.750000,-0.500000,-0.750000,
-0.500000,0.750000,0.000000,0.750000,0.000000,0.745722,0.000000,0.745722,$1*%
G04 Aperture macros list end*
%ADD10RoundRect,0.250000X0.450000X-0.350000X0.450000X0.350000X-0.450000X0.350000X-0.450000X-0.350000X0*%
%ADD11RoundRect,0.250001X1.099999X-1.099999X1.099999X1.099999X-1.099999X1.099999X-1.099999X-1.099999X0*%
%ADD12C,2.700000*%
%ADD13RoundRect,0.250000X-0.450000X0.350000X-0.450000X-0.350000X0.450000X-0.350000X0.450000X0.350000X0*%
%ADD14C,1.600000*%
%ADD15RoundRect,0.250000X-0.350000X-0.450000X0.350000X-0.450000X0.350000X0.450000X-0.350000X0.450000X0*%
%ADD16FreePoly0,90.000000*%
%ADD17FreePoly1,90.000000*%
%ADD18C,2.400000*%
%ADD19RoundRect,0.250000X-0.475000X0.337500X-0.475000X-0.337500X0.475000X-0.337500X0.475000X0.337500X0*%
%ADD20RoundRect,0.250000X0.350000X0.450000X-0.350000X0.450000X-0.350000X-0.450000X0.350000X-0.450000X0*%
%ADD21RoundRect,0.250001X-1.099999X-1.099999X1.099999X-1.099999X1.099999X1.099999X-1.099999X1.099999X0*%
%ADD22C,5.600000*%
%ADD23RoundRect,0.100000X0.637500X0.100000X-0.637500X0.100000X-0.637500X-0.100000X0.637500X-0.100000X0*%
%ADD24RoundRect,0.250000X-2.350000X0.412500X-2.350000X-0.412500X2.350000X-0.412500X2.350000X0.412500X0*%
%ADD25RoundRect,0.250000X0.475000X-0.337500X0.475000X0.337500X-0.475000X0.337500X-0.475000X-0.337500X0*%
%ADD26R,1.800000X1.800000*%
%ADD27C,1.800000*%
%ADD28R,2.400000X2.400000*%
%ADD29R,1.700000X1.700000*%
%ADD30C,1.700000*%
%ADD31C,2.600000*%
%ADD32RoundRect,0.250000X0.475000X-0.250000X0.475000X0.250000X-0.475000X0.250000X-0.475000X-0.250000X0*%
%ADD33R,1.600000X1.600000*%
G04 APERTURE END LIST*
%TO.C,JP3*%
G36*
X160362500Y-62312500D02*
G01*
X161862500Y-62312500D01*
X161862500Y-62012500D01*
X160362500Y-62012500D01*
X160362500Y-62312500D01*
G37*
%TO.C,JP1*%
G36*
X96952500Y-62725000D02*
G01*
X98452500Y-62725000D01*
X98452500Y-62425000D01*
X96952500Y-62425000D01*
X96952500Y-62725000D01*
G37*
%TO.C,JP4*%
G36*
X169662500Y-62162500D02*
G01*
X171162500Y-62162500D01*
X171162500Y-61862500D01*
X169662500Y-61862500D01*
X169662500Y-62162500D01*
G37*
%TO.C,JP2*%
G36*
X133952500Y-62825000D02*
G01*
X135452500Y-62825000D01*
X135452500Y-62525000D01*
X133952500Y-62525000D01*
X133952500Y-62825000D01*
G37*
%TD*%
D10*
%TO.C,R40*%
X158862500Y-107325000D03*
X158862500Y-105325000D03*
%TD*%
D11*
%TO.C,J9*%
X221737500Y-117032500D03*
D12*
X221737500Y-112032500D03*
%TD*%
D13*
%TO.C,R41*%
X162662500Y-65912500D03*
X162662500Y-67912500D03*
%TD*%
D14*
%TO.C,C35*%
X215662500Y-58425000D03*
X215662500Y-63425000D03*
%TD*%
D15*
%TO.C,R17*%
X108262500Y-111125000D03*
X110262500Y-111125000D03*
%TD*%
D16*
%TO.C,JP3*%
X161112500Y-62812500D03*
D17*
X161112500Y-61512500D03*
%TD*%
D18*
%TO.C,C26*%
X134502500Y-70225000D03*
X119502500Y-70225000D03*
%TD*%
D13*
%TO.C,R6*%
X170200000Y-123800000D03*
X170200000Y-125800000D03*
%TD*%
D19*
%TO.C,C12*%
X110462500Y-113687500D03*
X110462500Y-115762500D03*
%TD*%
D14*
%TO.C,C50*%
X139985000Y-108125000D03*
X134985000Y-108125000D03*
%TD*%
D20*
%TO.C,R2*%
X121062500Y-123775000D03*
X119062500Y-123775000D03*
%TD*%
D16*
%TO.C,JP1*%
X97702500Y-63225000D03*
D17*
X97702500Y-61925000D03*
%TD*%
D14*
%TO.C,C36*%
X215362500Y-75580000D03*
X215362500Y-80580000D03*
%TD*%
%TO.C,C15*%
X107862500Y-108125000D03*
X102862500Y-108125000D03*
%TD*%
D15*
%TO.C,R34*%
X156462500Y-123725000D03*
X158462500Y-123725000D03*
%TD*%
D19*
%TO.C,C59*%
X168122500Y-65875000D03*
X168122500Y-67950000D03*
%TD*%
D20*
%TO.C,R4*%
X153662500Y-123725000D03*
X151662500Y-123725000D03*
%TD*%
D19*
%TO.C,C58*%
X156522500Y-65875000D03*
X156522500Y-67950000D03*
%TD*%
D13*
%TO.C,R43*%
X158662500Y-65912500D03*
X158662500Y-67912500D03*
%TD*%
D20*
%TO.C,R1*%
X105062500Y-123725000D03*
X103062500Y-123725000D03*
%TD*%
D14*
%TO.C,C54*%
X160712500Y-81812500D03*
X160712500Y-71812500D03*
%TD*%
D11*
%TO.C,J10*%
X221812500Y-99557500D03*
D12*
X221812500Y-94557500D03*
%TD*%
D16*
%TO.C,JP4*%
X170412500Y-62662500D03*
D17*
X170412500Y-61362500D03*
%TD*%
D14*
%TO.C,C52*%
X139985000Y-104825000D03*
X134985000Y-104825000D03*
%TD*%
%TO.C,C55*%
X154712500Y-81812500D03*
X154712500Y-71812500D03*
%TD*%
D13*
%TO.C,R50*%
X168112500Y-61012500D03*
X168112500Y-63012500D03*
%TD*%
D11*
%TO.C,J7*%
X222112500Y-63402500D03*
D12*
X222112500Y-58402500D03*
%TD*%
D14*
%TO.C,C68*%
X211887500Y-112055000D03*
X211887500Y-117055000D03*
%TD*%
D19*
%TO.C,C28*%
X121502500Y-61687500D03*
X121502500Y-63762500D03*
%TD*%
D14*
%TO.C,C64*%
X204887500Y-112055000D03*
X204887500Y-117055000D03*
%TD*%
D21*
%TO.C,J4*%
X152707500Y-129375000D03*
D12*
X157707500Y-129375000D03*
%TD*%
D14*
%TO.C,C67*%
X211812500Y-94755000D03*
X211812500Y-99755000D03*
%TD*%
D13*
%TO.C,R5*%
X177400000Y-123800000D03*
X177400000Y-125800000D03*
%TD*%
D14*
%TO.C,C57*%
X172712500Y-81812500D03*
X172712500Y-71812500D03*
%TD*%
D10*
%TO.C,R35*%
X140535000Y-115725000D03*
X140535000Y-113725000D03*
%TD*%
%TO.C,R26*%
X123702500Y-63725000D03*
X123702500Y-61725000D03*
%TD*%
D14*
%TO.C,C31*%
X205262500Y-58425000D03*
X205262500Y-63425000D03*
%TD*%
D13*
%TO.C,R28*%
X132502500Y-61675000D03*
X132502500Y-63675000D03*
%TD*%
D15*
%TO.C,R14*%
X124262500Y-123775000D03*
X126262500Y-123775000D03*
%TD*%
D10*
%TO.C,R19*%
X110662500Y-107325000D03*
X110662500Y-105325000D03*
%TD*%
D21*
%TO.C,J5*%
X78400000Y-129500000D03*
D12*
X83400000Y-129500000D03*
X88400000Y-129500000D03*
%TD*%
D14*
%TO.C,C33*%
X208662500Y-58425000D03*
X208662500Y-63425000D03*
%TD*%
D22*
%TO.C,H1*%
X223950000Y-133100000D03*
%TD*%
D14*
%TO.C,C51*%
X156062500Y-108125000D03*
X151062500Y-108125000D03*
%TD*%
D10*
%TO.C,R25*%
X86702500Y-63625000D03*
X86702500Y-61625000D03*
%TD*%
D14*
%TO.C,C44*%
X152462500Y-121125000D03*
X152462500Y-111125000D03*
%TD*%
%TO.C,C18*%
X107862500Y-104825000D03*
X102862500Y-104825000D03*
%TD*%
D23*
%TO.C,U1*%
X175925000Y-117700000D03*
X175925000Y-117050000D03*
X175925000Y-116400000D03*
X175925000Y-115750000D03*
X175925000Y-115100000D03*
X175925000Y-114450000D03*
X175925000Y-113800000D03*
X175925000Y-113150000D03*
X170200000Y-113150000D03*
X170200000Y-113800000D03*
X170200000Y-114450000D03*
X170200000Y-115100000D03*
X170200000Y-115750000D03*
X170200000Y-116400000D03*
X170200000Y-117050000D03*
X170200000Y-117700000D03*
%TD*%
D21*
%TO.C,J2*%
X120462500Y-129375000D03*
D12*
X125462500Y-129375000D03*
%TD*%
D14*
%TO.C,C37*%
X212262500Y-58425000D03*
X212262500Y-63425000D03*
%TD*%
D15*
%TO.C,R18*%
X124262500Y-111175000D03*
X126262500Y-111175000D03*
%TD*%
D24*
%TO.C,R65*%
X213687500Y-106742500D03*
X213687500Y-109167500D03*
%TD*%
D19*
%TO.C,C49*%
X158662500Y-113687500D03*
X158662500Y-115762500D03*
%TD*%
D25*
%TO.C,C61*%
X166112500Y-63050000D03*
X166112500Y-60975000D03*
%TD*%
D13*
%TO.C,R21*%
X91102500Y-61625000D03*
X91102500Y-63625000D03*
%TD*%
%TO.C,R22*%
X88902500Y-61625000D03*
X88902500Y-63625000D03*
%TD*%
D26*
%TO.C,U2*%
X81302500Y-56825000D03*
D27*
X83002500Y-51745000D03*
X84702500Y-56825000D03*
X86402500Y-51745000D03*
X88102500Y-56825000D03*
X89802500Y-51745000D03*
X91502500Y-56825000D03*
X93202500Y-51745000D03*
X94902500Y-56825000D03*
X96602500Y-51745000D03*
X98302500Y-56825000D03*
%TD*%
D11*
%TO.C,J8*%
X221962500Y-80680000D03*
D12*
X221962500Y-75680000D03*
%TD*%
D28*
%TO.C,C1*%
X86662500Y-109925000D03*
D18*
X91662500Y-109925000D03*
%TD*%
D13*
%TO.C,R46*%
X172122500Y-65912500D03*
X172122500Y-67912500D03*
%TD*%
%TO.C,R23*%
X128102500Y-61725000D03*
X128102500Y-63725000D03*
%TD*%
D14*
%TO.C,C32*%
X204962500Y-75580000D03*
X204962500Y-80580000D03*
%TD*%
D29*
%TO.C,J6*%
X170042500Y-129525000D03*
D30*
X172582500Y-129525000D03*
X175122500Y-129525000D03*
X177662500Y-129525000D03*
X180202500Y-129525000D03*
%TD*%
D15*
%TO.C,R33*%
X140412500Y-123725000D03*
X142412500Y-123725000D03*
%TD*%
D22*
%TO.C,H4*%
X223950000Y-43150000D03*
%TD*%
D31*
%TO.C,L2*%
X198262500Y-75580000D03*
X198262500Y-80580000D03*
%TD*%
D24*
%TO.C,R64*%
X213587500Y-89017500D03*
X213587500Y-91442500D03*
%TD*%
D13*
%TO.C,R24*%
X125902500Y-61725000D03*
X125902500Y-63725000D03*
%TD*%
D22*
%TO.C,H3*%
X48950000Y-133150000D03*
%TD*%
D15*
%TO.C,R37*%
X140485000Y-111225000D03*
X142485000Y-111225000D03*
%TD*%
D32*
%TO.C,C29*%
X93302500Y-63575000D03*
X93302500Y-61675000D03*
%TD*%
D19*
%TO.C,C27*%
X84502500Y-61587500D03*
X84502500Y-63662500D03*
%TD*%
D13*
%TO.C,R49*%
X158712500Y-61112500D03*
X158712500Y-63112500D03*
%TD*%
D25*
%TO.C,C60*%
X156662500Y-63212500D03*
X156662500Y-61137500D03*
%TD*%
D13*
%TO.C,R7*%
X172600000Y-123800000D03*
X172600000Y-125800000D03*
%TD*%
D15*
%TO.C,R13*%
X107862500Y-123725000D03*
X109862500Y-123725000D03*
%TD*%
D31*
%TO.C,L3*%
X198087500Y-112055000D03*
X198087500Y-117055000D03*
%TD*%
D19*
%TO.C,C48*%
X142635000Y-113687500D03*
X142635000Y-115762500D03*
%TD*%
D14*
%TO.C,C66*%
X215287500Y-112055000D03*
X215287500Y-117055000D03*
%TD*%
D10*
%TO.C,R47*%
X154522500Y-67912500D03*
X154522500Y-65912500D03*
%TD*%
D33*
%TO.C,C7*%
X108670000Y-63955302D03*
D14*
X108670000Y-67455302D03*
%TD*%
%TO.C,C56*%
X166712500Y-81812500D03*
X166712500Y-71812500D03*
%TD*%
D32*
%TO.C,C30*%
X130302500Y-63625000D03*
X130302500Y-61725000D03*
%TD*%
D10*
%TO.C,R20*%
X126662500Y-107375000D03*
X126662500Y-105375000D03*
%TD*%
D14*
%TO.C,C69*%
X215312500Y-94755000D03*
X215312500Y-99755000D03*
%TD*%
D10*
%TO.C,R36*%
X156462500Y-115725000D03*
X156462500Y-113725000D03*
%TD*%
D28*
%TO.C,C2*%
X72662500Y-109925000D03*
D18*
X77662500Y-109925000D03*
%TD*%
D10*
%TO.C,R15*%
X108262500Y-115725000D03*
X108262500Y-113725000D03*
%TD*%
D33*
%TO.C,C39*%
X145070000Y-63942651D03*
D14*
X145070000Y-67442651D03*
%TD*%
D33*
%TO.C,C5*%
X72862500Y-62477651D03*
D14*
X72862500Y-65977651D03*
%TD*%
D15*
%TO.C,R38*%
X156462500Y-111125000D03*
X158462500Y-111125000D03*
%TD*%
D14*
%TO.C,C8*%
X104262500Y-121125000D03*
X104262500Y-111125000D03*
%TD*%
%TO.C,C19*%
X123862500Y-104875000D03*
X118862500Y-104875000D03*
%TD*%
%TO.C,C65*%
X204887500Y-94755000D03*
X204887500Y-99755000D03*
%TD*%
D31*
%TO.C,L4*%
X198062500Y-94730000D03*
X198062500Y-99730000D03*
%TD*%
D14*
%TO.C,C38*%
X211962500Y-75580000D03*
X211962500Y-80580000D03*
%TD*%
%TO.C,C9*%
X120262500Y-121175000D03*
X120262500Y-111175000D03*
%TD*%
%TO.C,C63*%
X208287500Y-94755000D03*
X208287500Y-99755000D03*
%TD*%
D20*
%TO.C,R3*%
X137462500Y-123725000D03*
X135462500Y-123725000D03*
%TD*%
D16*
%TO.C,JP2*%
X134702500Y-63325000D03*
D17*
X134702500Y-62025000D03*
%TD*%
D31*
%TO.C,L1*%
X198462500Y-58525000D03*
X198462500Y-63525000D03*
%TD*%
D13*
%TO.C,R27*%
X95502500Y-61625000D03*
X95502500Y-63625000D03*
%TD*%
D19*
%TO.C,C13*%
X126462500Y-113737500D03*
X126462500Y-115812500D03*
%TD*%
D13*
%TO.C,R42*%
X160662500Y-65912500D03*
X160662500Y-67912500D03*
%TD*%
D33*
%TO.C,C10*%
X108670000Y-52302651D03*
D14*
X108670000Y-55802651D03*
%TD*%
D10*
%TO.C,R39*%
X142685000Y-107325000D03*
X142685000Y-105325000D03*
%TD*%
D13*
%TO.C,R45*%
X170122500Y-65912500D03*
X170122500Y-67912500D03*
%TD*%
D22*
%TO.C,H2*%
X49000000Y-43200000D03*
%TD*%
%TO.C,H5*%
X121000000Y-91250000D03*
%TD*%
D14*
%TO.C,C43*%
X136435000Y-121175000D03*
X136435000Y-111175000D03*
%TD*%
%TO.C,C62*%
X208287500Y-112055000D03*
X208287500Y-117055000D03*
%TD*%
%TO.C,C53*%
X156062500Y-104825000D03*
X151062500Y-104825000D03*
%TD*%
D26*
%TO.C,U5*%
X154990000Y-56690000D03*
D27*
X156260000Y-51610000D03*
X157530000Y-56690000D03*
X158800000Y-51610000D03*
X160070000Y-56690000D03*
X161340000Y-51610000D03*
X162610000Y-56690000D03*
X163880000Y-51610000D03*
X165150000Y-56690000D03*
X166420000Y-51610000D03*
X167690000Y-56690000D03*
X168960000Y-51610000D03*
X170230000Y-56690000D03*
X171500000Y-51610000D03*
X172770000Y-56690000D03*
%TD*%
D13*
%TO.C,R44*%
X174122500Y-65912500D03*
X174122500Y-67912500D03*
%TD*%
D10*
%TO.C,R16*%
X124262500Y-115775000D03*
X124262500Y-113775000D03*
%TD*%
D18*
%TO.C,C25*%
X97402500Y-70225000D03*
X82402500Y-70225000D03*
%TD*%
D13*
%TO.C,R8*%
X175000000Y-123800000D03*
X175000000Y-125800000D03*
%TD*%
D21*
%TO.C,J3*%
X136585000Y-129375000D03*
D12*
X141585000Y-129375000D03*
%TD*%
D10*
%TO.C,R48*%
X166122500Y-67912500D03*
X166122500Y-65912500D03*
%TD*%
D33*
%TO.C,C6*%
X72862500Y-52277651D03*
D14*
X72862500Y-55777651D03*
%TD*%
D33*
%TO.C,C40*%
X145000000Y-52332651D03*
D14*
X145000000Y-55832651D03*
%TD*%
%TO.C,C34*%
X208362500Y-75580000D03*
X208362500Y-80580000D03*
%TD*%
D26*
%TO.C,U3*%
X118402500Y-56705000D03*
D27*
X120102500Y-51625000D03*
X121802500Y-56705000D03*
X123502500Y-51625000D03*
X125202500Y-56705000D03*
X126902500Y-51625000D03*
X128602500Y-56705000D03*
X130302500Y-51625000D03*
X132002500Y-56705000D03*
X133702500Y-51625000D03*
X135402500Y-56705000D03*
%TD*%
D14*
%TO.C,C16*%
X123862500Y-108175000D03*
X118862500Y-108175000D03*
%TD*%
D21*
%TO.C,J1*%
X104385000Y-129375000D03*
D12*
X109385000Y-129375000D03*
%TD*%
M02*
