%TF.GenerationSoftware,KiCad,Pcbnew,9.0.1*%
%TF.CreationDate,2026-03-07T23:10:38+01:00*%
%TF.ProjectId,PCB,5043422e-6b69-4636-9164-5f7063625858,rev?*%
%TF.SameCoordinates,Original*%
%TF.FileFunction,Drillmap*%
%TF.FilePolarity,Positive*%
%FSLAX45Y45*%
G04 Gerber Fmt 4.5, Leading zero omitted, Abs format (unit mm)*
G04 Created by KiCad (PCBNEW 9.0.1) date 2026-03-07 23:10:38*
%MOMM*%
%LPD*%
G01*
G04 APERTURE LIST*
%ADD10C,0.050000*%
%ADD11C,0.200000*%
%ADD12C,0.100000*%
%ADD13C,0.120000*%
%ADD14C,0.130000*%
%ADD15C,0.170000*%
%ADD16C,0.320000*%
G04 APERTURE END LIST*
D10*
X5450000Y-3825000D02*
X15450000Y-3825000D01*
X15450000Y-13825000D01*
X5450000Y-13825000D01*
X5450000Y-3825000D01*
D11*
D12*
X6305000Y-5615000D02*
X6335000Y-5645000D01*
X6335000Y-5615000D02*
X6305000Y-5645000D01*
X6505000Y-5985000D02*
X6535000Y-6015000D01*
X6535000Y-5985000D02*
X6505000Y-6015000D01*
X6507500Y-6327500D02*
X6537500Y-6357500D01*
X6537500Y-6327500D02*
X6507500Y-6357500D01*
X6685000Y-8685000D02*
X6715000Y-8715000D01*
X6715000Y-8685000D02*
X6685000Y-8715000D01*
X6685000Y-8885000D02*
X6715000Y-8915000D01*
X6715000Y-8885000D02*
X6685000Y-8915000D01*
X6685000Y-9085000D02*
X6715000Y-9115000D01*
X6715000Y-9085000D02*
X6685000Y-9115000D01*
X6685000Y-9285000D02*
X6715000Y-9315000D01*
X6715000Y-9285000D02*
X6685000Y-9315000D01*
X6685000Y-9485000D02*
X6715000Y-9515000D01*
X6715000Y-9485000D02*
X6685000Y-9515000D01*
X6685000Y-9685000D02*
X6715000Y-9715000D01*
X6715000Y-9685000D02*
X6685000Y-9715000D01*
X6685000Y-9885000D02*
X6715000Y-9915000D01*
X6715000Y-9885000D02*
X6685000Y-9915000D01*
X6685000Y-10085000D02*
X6715000Y-10115000D01*
X6715000Y-10085000D02*
X6685000Y-10115000D01*
X6685000Y-10285000D02*
X6715000Y-10315000D01*
X6715000Y-10285000D02*
X6685000Y-10315000D01*
X6685000Y-10485000D02*
X6715000Y-10515000D01*
X6715000Y-10485000D02*
X6685000Y-10515000D01*
X6975000Y-6222500D02*
X7005000Y-6252500D01*
X7005000Y-6222500D02*
X6975000Y-6252500D01*
X8025000Y-7952500D02*
X8055000Y-7982500D01*
X8055000Y-7952500D02*
X8025000Y-7982500D01*
X8025000Y-8207500D02*
X8055000Y-8237500D01*
X8055000Y-8207500D02*
X8025000Y-8237500D01*
X8152500Y-8370000D02*
X8182500Y-8400000D01*
X8182500Y-8370000D02*
X8152500Y-8400000D01*
X8185000Y-8485000D02*
X8215000Y-8515000D01*
X8215000Y-8485000D02*
X8185000Y-8515000D01*
X8185000Y-8685000D02*
X8215000Y-8715000D01*
X8215000Y-8685000D02*
X8185000Y-8715000D01*
X8185000Y-10785000D02*
X8215000Y-10815000D01*
X8215000Y-10785000D02*
X8185000Y-10815000D01*
X8185000Y-10985000D02*
X8215000Y-11015000D01*
X8215000Y-10985000D02*
X8185000Y-11015000D01*
X8185000Y-11985000D02*
X8215000Y-12015000D01*
X8215000Y-11985000D02*
X8185000Y-12015000D01*
X8185000Y-12985000D02*
X8215000Y-13015000D01*
X8215000Y-12985000D02*
X8185000Y-13015000D01*
X8185000Y-13185000D02*
X8215000Y-13215000D01*
X8215000Y-13185000D02*
X8185000Y-13215000D01*
X8185000Y-13385000D02*
X8215000Y-13415000D01*
X8215000Y-13385000D02*
X8185000Y-13415000D01*
X8240000Y-10377500D02*
X8270000Y-10407500D01*
X8270000Y-10377500D02*
X8240000Y-10407500D01*
X8242000Y-12531250D02*
X8272000Y-12561250D01*
X8272000Y-12531250D02*
X8242000Y-12561250D01*
X8247500Y-11465000D02*
X8277500Y-11495000D01*
X8277500Y-11465000D02*
X8247500Y-11495000D01*
X8250000Y-7517500D02*
X8280000Y-7547500D01*
X8280000Y-7517500D02*
X8250000Y-7547500D01*
X8252500Y-9330000D02*
X8282500Y-9360000D01*
X8282500Y-9330000D02*
X8252500Y-9360000D01*
X8385000Y-8685000D02*
X8415000Y-8715000D01*
X8415000Y-8685000D02*
X8385000Y-8715000D01*
X8385000Y-8885000D02*
X8415000Y-8915000D01*
X8415000Y-8885000D02*
X8385000Y-8915000D01*
X8385000Y-9685000D02*
X8415000Y-9715000D01*
X8415000Y-9685000D02*
X8385000Y-9715000D01*
X8385000Y-9885000D02*
X8415000Y-9915000D01*
X8415000Y-9885000D02*
X8385000Y-9915000D01*
X8385000Y-10785000D02*
X8415000Y-10815000D01*
X8415000Y-10785000D02*
X8385000Y-10815000D01*
X8385000Y-10985000D02*
X8415000Y-11015000D01*
X8415000Y-10985000D02*
X8385000Y-11015000D01*
X8385000Y-11785000D02*
X8415000Y-11815000D01*
X8415000Y-11785000D02*
X8385000Y-11815000D01*
X8385000Y-11985000D02*
X8415000Y-12015000D01*
X8415000Y-11985000D02*
X8385000Y-12015000D01*
X8385000Y-12985000D02*
X8415000Y-13015000D01*
X8415000Y-12985000D02*
X8385000Y-13015000D01*
X8385000Y-13185000D02*
X8415000Y-13215000D01*
X8415000Y-13185000D02*
X8385000Y-13215000D01*
X8385000Y-13385000D02*
X8415000Y-13415000D01*
X8415000Y-13385000D02*
X8385000Y-13415000D01*
X8547500Y-8950000D02*
X8577500Y-8980000D01*
X8577500Y-8950000D02*
X8547500Y-8980000D01*
X8555000Y-11085000D02*
X8585000Y-11115000D01*
X8585000Y-11085000D02*
X8555000Y-11115000D01*
X8557000Y-12148750D02*
X8587000Y-12178750D01*
X8587000Y-12148750D02*
X8557000Y-12178750D01*
X8560000Y-7135000D02*
X8590000Y-7165000D01*
X8590000Y-7135000D02*
X8560000Y-7165000D01*
X8562500Y-9995000D02*
X8592500Y-10025000D01*
X8592500Y-9995000D02*
X8562500Y-10025000D01*
X8585000Y-8370000D02*
X8615000Y-8400000D01*
X8615000Y-8370000D02*
X8585000Y-8400000D01*
X8585000Y-9685000D02*
X8615000Y-9715000D01*
X8615000Y-9685000D02*
X8585000Y-9715000D01*
X8585000Y-9885000D02*
X8615000Y-9915000D01*
X8615000Y-9885000D02*
X8585000Y-9915000D01*
X8585000Y-10785000D02*
X8615000Y-10815000D01*
X8615000Y-10785000D02*
X8585000Y-10815000D01*
X8585000Y-10985000D02*
X8615000Y-11015000D01*
X8615000Y-10985000D02*
X8585000Y-11015000D01*
X8585000Y-11985000D02*
X8615000Y-12015000D01*
X8615000Y-11985000D02*
X8585000Y-12015000D01*
X8585000Y-12985000D02*
X8615000Y-13015000D01*
X8615000Y-12985000D02*
X8585000Y-13015000D01*
X8585000Y-13185000D02*
X8615000Y-13215000D01*
X8615000Y-13185000D02*
X8585000Y-13215000D01*
X8585000Y-13385000D02*
X8615000Y-13415000D01*
X8615000Y-13385000D02*
X8585000Y-13415000D01*
X9785000Y-4985000D02*
X9815000Y-5015000D01*
X9815000Y-4985000D02*
X9785000Y-5015000D01*
X9785000Y-5185000D02*
X9815000Y-5215000D01*
X9815000Y-5185000D02*
X9785000Y-5215000D01*
X9785000Y-5785000D02*
X9815000Y-5815000D01*
X9815000Y-5785000D02*
X9785000Y-5815000D01*
X9985000Y-4585000D02*
X10015000Y-4615000D01*
X10015000Y-4585000D02*
X9985000Y-4615000D01*
X9985000Y-4785000D02*
X10015000Y-4815000D01*
X10015000Y-4785000D02*
X9985000Y-4815000D01*
X9985000Y-4985000D02*
X10015000Y-5015000D01*
X10015000Y-4985000D02*
X9985000Y-5015000D01*
X9985000Y-5185000D02*
X10015000Y-5215000D01*
X10015000Y-5185000D02*
X9985000Y-5215000D01*
X9985000Y-5385000D02*
X10015000Y-5415000D01*
X10015000Y-5385000D02*
X9985000Y-5415000D01*
X9985000Y-5585000D02*
X10015000Y-5615000D01*
X10015000Y-5585000D02*
X9985000Y-5615000D01*
X9985000Y-5785000D02*
X10015000Y-5815000D01*
X10015000Y-5785000D02*
X9985000Y-5815000D01*
X10090000Y-5022500D02*
X10120000Y-5052500D01*
X10120000Y-5022500D02*
X10090000Y-5052500D01*
X10090000Y-8187500D02*
X10120000Y-8217500D01*
X10120000Y-8187500D02*
X10090000Y-8217500D01*
X10185000Y-4585000D02*
X10215000Y-4615000D01*
X10215000Y-4585000D02*
X10185000Y-4615000D01*
X10185000Y-4785000D02*
X10215000Y-4815000D01*
X10215000Y-4785000D02*
X10185000Y-4815000D01*
X10197500Y-7857500D02*
X10227500Y-7887500D01*
X10227500Y-7857500D02*
X10197500Y-7887500D01*
X10227500Y-5205000D02*
X10257500Y-5235000D01*
X10257500Y-5205000D02*
X10227500Y-5235000D01*
X10285000Y-8685000D02*
X10315000Y-8715000D01*
X10315000Y-8685000D02*
X10285000Y-8715000D01*
X10285000Y-8885000D02*
X10315000Y-8915000D01*
X10315000Y-8885000D02*
X10285000Y-8915000D01*
X10285000Y-9085000D02*
X10315000Y-9115000D01*
X10315000Y-9085000D02*
X10285000Y-9115000D01*
X10285000Y-9285000D02*
X10315000Y-9315000D01*
X10315000Y-9285000D02*
X10285000Y-9315000D01*
X10285000Y-9485000D02*
X10315000Y-9515000D01*
X10315000Y-9485000D02*
X10285000Y-9515000D01*
X10285000Y-9685000D02*
X10315000Y-9715000D01*
X10315000Y-9685000D02*
X10285000Y-9715000D01*
X10285000Y-9885000D02*
X10315000Y-9915000D01*
X10315000Y-9885000D02*
X10285000Y-9915000D01*
X10285000Y-10085000D02*
X10315000Y-10115000D01*
X10315000Y-10085000D02*
X10285000Y-10115000D01*
X10285000Y-10285000D02*
X10315000Y-10315000D01*
X10315000Y-10285000D02*
X10285000Y-10315000D01*
X10285000Y-10485000D02*
X10315000Y-10515000D01*
X10315000Y-10485000D02*
X10285000Y-10515000D01*
X10285000Y-10685000D02*
X10315000Y-10715000D01*
X10315000Y-10685000D02*
X10285000Y-10715000D01*
X10285000Y-10885000D02*
X10315000Y-10915000D01*
X10315000Y-10885000D02*
X10285000Y-10915000D01*
X10285000Y-11085000D02*
X10315000Y-11115000D01*
X10315000Y-11085000D02*
X10285000Y-11115000D01*
X10285000Y-11285000D02*
X10315000Y-11315000D01*
X10315000Y-11285000D02*
X10285000Y-11315000D01*
X10285000Y-11485000D02*
X10315000Y-11515000D01*
X10315000Y-11485000D02*
X10285000Y-11515000D01*
X10285000Y-11685000D02*
X10315000Y-11715000D01*
X10315000Y-11685000D02*
X10285000Y-11715000D01*
X10285000Y-11885000D02*
X10315000Y-11915000D01*
X10315000Y-11885000D02*
X10285000Y-11915000D01*
X10285000Y-12085000D02*
X10315000Y-12115000D01*
X10315000Y-12085000D02*
X10285000Y-12115000D01*
X10285000Y-12285000D02*
X10315000Y-12315000D01*
X10315000Y-12285000D02*
X10285000Y-12315000D01*
X10285000Y-12485000D02*
X10315000Y-12515000D01*
X10315000Y-12485000D02*
X10285000Y-12515000D01*
X10285000Y-12685000D02*
X10315000Y-12715000D01*
X10315000Y-12685000D02*
X10285000Y-12715000D01*
X10285000Y-12885000D02*
X10315000Y-12915000D01*
X10315000Y-12885000D02*
X10285000Y-12915000D01*
X10285000Y-13085000D02*
X10315000Y-13115000D01*
X10315000Y-13085000D02*
X10285000Y-13115000D01*
X10285000Y-13285000D02*
X10315000Y-13315000D01*
X10315000Y-13285000D02*
X10285000Y-13315000D01*
X10385000Y-4585000D02*
X10415000Y-4615000D01*
X10415000Y-4585000D02*
X10385000Y-4615000D01*
X10454500Y-4847500D02*
X10484500Y-4877500D01*
X10484500Y-4847500D02*
X10454500Y-4877500D01*
X10485000Y-8685000D02*
X10515000Y-8715000D01*
X10515000Y-8685000D02*
X10485000Y-8715000D01*
X10485000Y-8885000D02*
X10515000Y-8915000D01*
X10515000Y-8885000D02*
X10485000Y-8915000D01*
X10485000Y-9085000D02*
X10515000Y-9115000D01*
X10515000Y-9085000D02*
X10485000Y-9115000D01*
X10485000Y-9285000D02*
X10515000Y-9315000D01*
X10515000Y-9285000D02*
X10485000Y-9315000D01*
X10485000Y-9485000D02*
X10515000Y-9515000D01*
X10515000Y-9485000D02*
X10485000Y-9515000D01*
X10485000Y-9685000D02*
X10515000Y-9715000D01*
X10515000Y-9685000D02*
X10485000Y-9715000D01*
X10485000Y-9885000D02*
X10515000Y-9915000D01*
X10515000Y-9885000D02*
X10485000Y-9915000D01*
X10485000Y-10085000D02*
X10515000Y-10115000D01*
X10515000Y-10085000D02*
X10485000Y-10115000D01*
X10485000Y-10285000D02*
X10515000Y-10315000D01*
X10515000Y-10285000D02*
X10485000Y-10315000D01*
X10485000Y-10485000D02*
X10515000Y-10515000D01*
X10515000Y-10485000D02*
X10485000Y-10515000D01*
X10485000Y-10685000D02*
X10515000Y-10715000D01*
X10515000Y-10685000D02*
X10485000Y-10715000D01*
X10485000Y-10885000D02*
X10515000Y-10915000D01*
X10515000Y-10885000D02*
X10485000Y-10915000D01*
X10485000Y-11085000D02*
X10515000Y-11115000D01*
X10515000Y-11085000D02*
X10485000Y-11115000D01*
X10485000Y-11285000D02*
X10515000Y-11315000D01*
X10515000Y-11285000D02*
X10485000Y-11315000D01*
X10485000Y-11485000D02*
X10515000Y-11515000D01*
X10515000Y-11485000D02*
X10485000Y-11515000D01*
X10485000Y-11685000D02*
X10515000Y-11715000D01*
X10515000Y-11685000D02*
X10485000Y-11715000D01*
X10485000Y-11885000D02*
X10515000Y-11915000D01*
X10515000Y-11885000D02*
X10485000Y-11915000D01*
X10485000Y-12085000D02*
X10515000Y-12115000D01*
X10515000Y-12085000D02*
X10485000Y-12115000D01*
X10485000Y-12285000D02*
X10515000Y-12315000D01*
X10515000Y-12285000D02*
X10485000Y-12315000D01*
X10485000Y-12485000D02*
X10515000Y-12515000D01*
X10515000Y-12485000D02*
X10485000Y-12515000D01*
X10485000Y-12685000D02*
X10515000Y-12715000D01*
X10515000Y-12685000D02*
X10485000Y-12715000D01*
X10485000Y-12885000D02*
X10515000Y-12915000D01*
X10515000Y-12885000D02*
X10485000Y-12915000D01*
X10485000Y-13085000D02*
X10515000Y-13115000D01*
X10515000Y-13085000D02*
X10485000Y-13115000D01*
X10485000Y-13285000D02*
X10515000Y-13315000D01*
X10515000Y-13285000D02*
X10485000Y-13315000D01*
X10581500Y-5362500D02*
X10611500Y-5392500D01*
X10611500Y-5362500D02*
X10581500Y-5392500D01*
X10685000Y-8685000D02*
X10715000Y-8715000D01*
X10715000Y-8685000D02*
X10685000Y-8715000D01*
X10685000Y-8885000D02*
X10715000Y-8915000D01*
X10715000Y-8885000D02*
X10685000Y-8915000D01*
X10685000Y-9085000D02*
X10715000Y-9115000D01*
X10715000Y-9085000D02*
X10685000Y-9115000D01*
X10685000Y-9285000D02*
X10715000Y-9315000D01*
X10715000Y-9285000D02*
X10685000Y-9315000D01*
X10685000Y-9485000D02*
X10715000Y-9515000D01*
X10715000Y-9485000D02*
X10685000Y-9515000D01*
X10685000Y-9685000D02*
X10715000Y-9715000D01*
X10715000Y-9685000D02*
X10685000Y-9715000D01*
X10685000Y-9885000D02*
X10715000Y-9915000D01*
X10715000Y-9885000D02*
X10685000Y-9915000D01*
X10685000Y-10085000D02*
X10715000Y-10115000D01*
X10715000Y-10085000D02*
X10685000Y-10115000D01*
X10685000Y-10285000D02*
X10715000Y-10315000D01*
X10715000Y-10285000D02*
X10685000Y-10315000D01*
X10685000Y-10485000D02*
X10715000Y-10515000D01*
X10715000Y-10485000D02*
X10685000Y-10515000D01*
X10685000Y-10685000D02*
X10715000Y-10715000D01*
X10715000Y-10685000D02*
X10685000Y-10715000D01*
X10685000Y-10885000D02*
X10715000Y-10915000D01*
X10715000Y-10885000D02*
X10685000Y-10915000D01*
X10685000Y-11085000D02*
X10715000Y-11115000D01*
X10715000Y-11085000D02*
X10685000Y-11115000D01*
X10685000Y-11285000D02*
X10715000Y-11315000D01*
X10715000Y-11285000D02*
X10685000Y-11315000D01*
X10685000Y-11485000D02*
X10715000Y-11515000D01*
X10715000Y-11485000D02*
X10685000Y-11515000D01*
X10685000Y-11685000D02*
X10715000Y-11715000D01*
X10715000Y-11685000D02*
X10685000Y-11715000D01*
X10685000Y-11885000D02*
X10715000Y-11915000D01*
X10715000Y-11885000D02*
X10685000Y-11915000D01*
X10685000Y-12085000D02*
X10715000Y-12115000D01*
X10715000Y-12085000D02*
X10685000Y-12115000D01*
X10685000Y-12285000D02*
X10715000Y-12315000D01*
X10715000Y-12285000D02*
X10685000Y-12315000D01*
X10685000Y-12485000D02*
X10715000Y-12515000D01*
X10715000Y-12485000D02*
X10685000Y-12515000D01*
X10685000Y-12685000D02*
X10715000Y-12715000D01*
X10715000Y-12685000D02*
X10685000Y-12715000D01*
X10685000Y-12885000D02*
X10715000Y-12915000D01*
X10715000Y-12885000D02*
X10685000Y-12915000D01*
X10685000Y-13085000D02*
X10715000Y-13115000D01*
X10715000Y-13085000D02*
X10685000Y-13115000D01*
X10685000Y-13285000D02*
X10715000Y-13315000D01*
X10715000Y-13285000D02*
X10685000Y-13315000D01*
X10828750Y-4425000D02*
X10858750Y-4455000D01*
X10858750Y-4425000D02*
X10828750Y-4455000D01*
X10828750Y-5785000D02*
X10858750Y-5815000D01*
X10858750Y-5785000D02*
X10828750Y-5815000D01*
X11560000Y-5310000D02*
X11590000Y-5340000D01*
X11590000Y-5310000D02*
X11560000Y-5340000D01*
X11560000Y-5410000D02*
X11590000Y-5440000D01*
X11590000Y-5410000D02*
X11560000Y-5440000D01*
X11585000Y-4860000D02*
X11615000Y-4890000D01*
X11615000Y-4860000D02*
X11585000Y-4890000D01*
X11585000Y-4960000D02*
X11615000Y-4990000D01*
X11615000Y-4960000D02*
X11585000Y-4990000D01*
X11585000Y-5060000D02*
X11615000Y-5090000D01*
X11615000Y-5060000D02*
X11585000Y-5090000D01*
X11657500Y-8372500D02*
X11687500Y-8402500D01*
X11687500Y-8372500D02*
X11657500Y-8402500D01*
X11660000Y-5310000D02*
X11690000Y-5340000D01*
X11690000Y-5310000D02*
X11660000Y-5340000D01*
X11660000Y-5410000D02*
X11690000Y-5440000D01*
X11690000Y-5410000D02*
X11660000Y-5440000D01*
X11685000Y-4860000D02*
X11715000Y-4890000D01*
X11715000Y-4860000D02*
X11685000Y-4890000D01*
X11685000Y-4960000D02*
X11715000Y-4990000D01*
X11715000Y-4960000D02*
X11685000Y-4990000D01*
X11685000Y-5060000D02*
X11715000Y-5090000D01*
X11715000Y-5060000D02*
X11685000Y-5090000D01*
X11760000Y-5310000D02*
X11790000Y-5340000D01*
X11790000Y-5310000D02*
X11760000Y-5340000D01*
X11760000Y-5410000D02*
X11790000Y-5440000D01*
X11790000Y-5410000D02*
X11760000Y-5440000D01*
X11785000Y-4860000D02*
X11815000Y-4890000D01*
X11815000Y-4860000D02*
X11785000Y-4890000D01*
X11785000Y-4960000D02*
X11815000Y-4990000D01*
X11815000Y-4960000D02*
X11785000Y-4990000D01*
X11785000Y-5060000D02*
X11815000Y-5090000D01*
X11815000Y-5060000D02*
X11785000Y-5090000D01*
X11842500Y-8552500D02*
X11872500Y-8582500D01*
X11872500Y-8552500D02*
X11842500Y-8582500D01*
X11860000Y-5310000D02*
X11890000Y-5340000D01*
X11890000Y-5310000D02*
X11860000Y-5340000D01*
X11860000Y-5410000D02*
X11890000Y-5440000D01*
X11890000Y-5410000D02*
X11860000Y-5440000D01*
X11885000Y-4860000D02*
X11915000Y-4890000D01*
X11915000Y-4860000D02*
X11885000Y-4890000D01*
X11885000Y-4960000D02*
X11915000Y-4990000D01*
X11915000Y-4960000D02*
X11885000Y-4990000D01*
X11885000Y-5060000D02*
X11915000Y-5090000D01*
X11915000Y-5060000D02*
X11885000Y-5090000D01*
X11960000Y-5310000D02*
X11990000Y-5340000D01*
X11990000Y-5310000D02*
X11960000Y-5340000D01*
X11960000Y-5410000D02*
X11990000Y-5440000D01*
X11990000Y-5410000D02*
X11960000Y-5440000D01*
X11985000Y-4860000D02*
X12015000Y-4890000D01*
X12015000Y-4860000D02*
X11985000Y-4890000D01*
X11985000Y-4960000D02*
X12015000Y-4990000D01*
X12015000Y-4960000D02*
X11985000Y-4990000D01*
X11985000Y-5060000D02*
X12015000Y-5090000D01*
X12015000Y-5060000D02*
X11985000Y-5090000D01*
X12060000Y-5310000D02*
X12090000Y-5340000D01*
X12090000Y-5310000D02*
X12060000Y-5340000D01*
X12060000Y-5410000D02*
X12090000Y-5440000D01*
X12090000Y-5410000D02*
X12060000Y-5440000D01*
X12085000Y-4860000D02*
X12115000Y-4890000D01*
X12115000Y-4860000D02*
X12085000Y-4890000D01*
X12085000Y-4960000D02*
X12115000Y-4990000D01*
X12115000Y-4960000D02*
X12085000Y-4990000D01*
X12085000Y-5060000D02*
X12115000Y-5090000D01*
X12115000Y-5060000D02*
X12085000Y-5090000D01*
X12160000Y-5310000D02*
X12190000Y-5340000D01*
X12190000Y-5310000D02*
X12160000Y-5340000D01*
X12160000Y-5410000D02*
X12190000Y-5440000D01*
X12190000Y-5410000D02*
X12160000Y-5440000D01*
X12160000Y-7937500D02*
X12190000Y-7967500D01*
X12190000Y-7937500D02*
X12160000Y-7967500D01*
X12160000Y-8230000D02*
X12190000Y-8260000D01*
X12190000Y-8230000D02*
X12160000Y-8260000D01*
X12185000Y-4185000D02*
X12215000Y-4215000D01*
X12215000Y-4185000D02*
X12185000Y-4215000D01*
X12185000Y-4860000D02*
X12215000Y-4890000D01*
X12215000Y-4860000D02*
X12185000Y-4890000D01*
X12185000Y-4960000D02*
X12215000Y-4990000D01*
X12215000Y-4960000D02*
X12185000Y-4990000D01*
X12185000Y-5060000D02*
X12215000Y-5090000D01*
X12215000Y-5060000D02*
X12185000Y-5090000D01*
X12185000Y-6085000D02*
X12215000Y-6115000D01*
X12215000Y-6085000D02*
X12185000Y-6115000D01*
X12260000Y-5310000D02*
X12290000Y-5340000D01*
X12290000Y-5310000D02*
X12260000Y-5340000D01*
X12260000Y-5410000D02*
X12290000Y-5440000D01*
X12290000Y-5410000D02*
X12260000Y-5440000D01*
X12285000Y-4185000D02*
X12315000Y-4215000D01*
X12315000Y-4185000D02*
X12285000Y-4215000D01*
X12285000Y-4860000D02*
X12315000Y-4890000D01*
X12315000Y-4860000D02*
X12285000Y-4890000D01*
X12285000Y-4960000D02*
X12315000Y-4990000D01*
X12315000Y-4960000D02*
X12285000Y-4990000D01*
X12285000Y-5060000D02*
X12315000Y-5090000D01*
X12315000Y-5060000D02*
X12285000Y-5090000D01*
X12285000Y-6085000D02*
X12315000Y-6115000D01*
X12315000Y-6085000D02*
X12285000Y-6115000D01*
X12360000Y-5310000D02*
X12390000Y-5340000D01*
X12390000Y-5310000D02*
X12360000Y-5340000D01*
X12360000Y-5410000D02*
X12390000Y-5440000D01*
X12390000Y-5410000D02*
X12360000Y-5440000D01*
X12382000Y-12536250D02*
X12412000Y-12566250D01*
X12412000Y-12536250D02*
X12382000Y-12566250D01*
X12385000Y-4185000D02*
X12415000Y-4215000D01*
X12415000Y-4185000D02*
X12385000Y-4215000D01*
X12385000Y-4860000D02*
X12415000Y-4890000D01*
X12415000Y-4860000D02*
X12385000Y-4890000D01*
X12385000Y-4960000D02*
X12415000Y-4990000D01*
X12415000Y-4960000D02*
X12385000Y-4990000D01*
X12385000Y-5060000D02*
X12415000Y-5090000D01*
X12415000Y-5060000D02*
X12385000Y-5090000D01*
X12385000Y-6085000D02*
X12415000Y-6115000D01*
X12415000Y-6085000D02*
X12385000Y-6115000D01*
X12385000Y-8685000D02*
X12415000Y-8715000D01*
X12415000Y-8685000D02*
X12385000Y-8715000D01*
X12385000Y-8885000D02*
X12415000Y-8915000D01*
X12415000Y-8885000D02*
X12385000Y-8915000D01*
X12385000Y-9367500D02*
X12415000Y-9397500D01*
X12415000Y-9367500D02*
X12385000Y-9397500D01*
X12385000Y-10885000D02*
X12415000Y-10915000D01*
X12415000Y-10885000D02*
X12385000Y-10915000D01*
X12385000Y-11885000D02*
X12415000Y-11915000D01*
X12415000Y-11885000D02*
X12385000Y-11915000D01*
X12385000Y-13085000D02*
X12415000Y-13115000D01*
X12415000Y-13085000D02*
X12385000Y-13115000D01*
X12385000Y-13285000D02*
X12415000Y-13315000D01*
X12415000Y-13285000D02*
X12385000Y-13315000D01*
X12385000Y-13485000D02*
X12415000Y-13515000D01*
X12415000Y-13485000D02*
X12385000Y-13515000D01*
X12390000Y-10375000D02*
X12420000Y-10405000D01*
X12420000Y-10375000D02*
X12390000Y-10405000D01*
X12392500Y-11467500D02*
X12422500Y-11497500D01*
X12422500Y-11467500D02*
X12392500Y-11497500D01*
X12460000Y-5310000D02*
X12490000Y-5340000D01*
X12490000Y-5310000D02*
X12460000Y-5340000D01*
X12460000Y-5410000D02*
X12490000Y-5440000D01*
X12490000Y-5410000D02*
X12460000Y-5440000D01*
X12485000Y-4185000D02*
X12515000Y-4215000D01*
X12515000Y-4185000D02*
X12485000Y-4215000D01*
X12485000Y-4860000D02*
X12515000Y-4890000D01*
X12515000Y-4860000D02*
X12485000Y-4890000D01*
X12485000Y-4960000D02*
X12515000Y-4990000D01*
X12515000Y-4960000D02*
X12485000Y-4990000D01*
X12485000Y-5060000D02*
X12515000Y-5090000D01*
X12515000Y-5060000D02*
X12485000Y-5090000D01*
X12485000Y-6085000D02*
X12515000Y-6115000D01*
X12515000Y-6085000D02*
X12485000Y-6115000D01*
X12560000Y-5310000D02*
X12590000Y-5340000D01*
X12590000Y-5310000D02*
X12560000Y-5340000D01*
X12560000Y-5410000D02*
X12590000Y-5440000D01*
X12590000Y-5410000D02*
X12560000Y-5440000D01*
X12585000Y-4185000D02*
X12615000Y-4215000D01*
X12615000Y-4185000D02*
X12585000Y-4215000D01*
X12585000Y-4860000D02*
X12615000Y-4890000D01*
X12615000Y-4860000D02*
X12585000Y-4890000D01*
X12585000Y-4960000D02*
X12615000Y-4990000D01*
X12615000Y-4960000D02*
X12585000Y-4990000D01*
X12585000Y-5060000D02*
X12615000Y-5090000D01*
X12615000Y-5060000D02*
X12585000Y-5090000D01*
X12585000Y-6085000D02*
X12615000Y-6115000D01*
X12615000Y-6085000D02*
X12585000Y-6115000D01*
X12585000Y-8685000D02*
X12615000Y-8715000D01*
X12615000Y-8685000D02*
X12585000Y-8715000D01*
X12585000Y-8885000D02*
X12615000Y-8915000D01*
X12615000Y-8885000D02*
X12585000Y-8915000D01*
X12585000Y-9685000D02*
X12615000Y-9715000D01*
X12615000Y-9685000D02*
X12585000Y-9715000D01*
X12585000Y-9885000D02*
X12615000Y-9915000D01*
X12615000Y-9885000D02*
X12585000Y-9915000D01*
X12585000Y-10685000D02*
X12615000Y-10715000D01*
X12615000Y-10685000D02*
X12585000Y-10715000D01*
X12585000Y-10885000D02*
X12615000Y-10915000D01*
X12615000Y-10885000D02*
X12585000Y-10915000D01*
X12585000Y-11085000D02*
X12615000Y-11115000D01*
X12615000Y-11085000D02*
X12585000Y-11115000D01*
X12585000Y-11885000D02*
X12615000Y-11915000D01*
X12615000Y-11885000D02*
X12585000Y-11915000D01*
X12585000Y-12085000D02*
X12615000Y-12115000D01*
X12615000Y-12085000D02*
X12585000Y-12115000D01*
X12585000Y-13085000D02*
X12615000Y-13115000D01*
X12615000Y-13085000D02*
X12585000Y-13115000D01*
X12585000Y-13285000D02*
X12615000Y-13315000D01*
X12615000Y-13285000D02*
X12585000Y-13315000D01*
X12585000Y-13485000D02*
X12615000Y-13515000D01*
X12615000Y-13485000D02*
X12585000Y-13515000D01*
X12667500Y-5445000D02*
X12697500Y-5475000D01*
X12697500Y-5445000D02*
X12667500Y-5475000D01*
X12670000Y-4800000D02*
X12700000Y-4830000D01*
X12700000Y-4800000D02*
X12670000Y-4830000D01*
X12670000Y-5117500D02*
X12700000Y-5147500D01*
X12700000Y-5117500D02*
X12670000Y-5147500D01*
X12685000Y-4185000D02*
X12715000Y-4215000D01*
X12715000Y-4185000D02*
X12685000Y-4215000D01*
X12685000Y-6085000D02*
X12715000Y-6115000D01*
X12715000Y-6085000D02*
X12685000Y-6115000D01*
X12695000Y-8985000D02*
X12725000Y-9015000D01*
X12725000Y-8985000D02*
X12695000Y-9015000D01*
X12697000Y-12161250D02*
X12727000Y-12191250D01*
X12727000Y-12161250D02*
X12697000Y-12191250D01*
X12700000Y-11087500D02*
X12730000Y-11117500D01*
X12730000Y-11087500D02*
X12700000Y-11117500D01*
X12710000Y-9992500D02*
X12740000Y-10022500D01*
X12740000Y-9992500D02*
X12710000Y-10022500D01*
X12785000Y-4185000D02*
X12815000Y-4215000D01*
X12815000Y-4185000D02*
X12785000Y-4215000D01*
X12785000Y-4860000D02*
X12815000Y-4890000D01*
X12815000Y-4860000D02*
X12785000Y-4890000D01*
X12785000Y-4960000D02*
X12815000Y-4990000D01*
X12815000Y-4960000D02*
X12785000Y-4990000D01*
X12785000Y-5060000D02*
X12815000Y-5090000D01*
X12815000Y-5060000D02*
X12785000Y-5090000D01*
X12785000Y-5310000D02*
X12815000Y-5340000D01*
X12815000Y-5310000D02*
X12785000Y-5340000D01*
X12785000Y-5410000D02*
X12815000Y-5440000D01*
X12815000Y-5410000D02*
X12785000Y-5440000D01*
X12785000Y-6085000D02*
X12815000Y-6115000D01*
X12815000Y-6085000D02*
X12785000Y-6115000D01*
X12785000Y-9685000D02*
X12815000Y-9715000D01*
X12815000Y-9685000D02*
X12785000Y-9715000D01*
X12785000Y-9885000D02*
X12815000Y-9915000D01*
X12815000Y-9885000D02*
X12785000Y-9915000D01*
X12785000Y-10885000D02*
X12815000Y-10915000D01*
X12815000Y-10885000D02*
X12785000Y-10915000D01*
X12785000Y-11885000D02*
X12815000Y-11915000D01*
X12815000Y-11885000D02*
X12785000Y-11915000D01*
X12785000Y-13085000D02*
X12815000Y-13115000D01*
X12815000Y-13085000D02*
X12785000Y-13115000D01*
X12785000Y-13285000D02*
X12815000Y-13315000D01*
X12815000Y-13285000D02*
X12785000Y-13315000D01*
X12885000Y-4185000D02*
X12915000Y-4215000D01*
X12915000Y-4185000D02*
X12885000Y-4215000D01*
X12885000Y-6085000D02*
X12915000Y-6115000D01*
X12915000Y-6085000D02*
X12885000Y-6115000D01*
X12920000Y-5447500D02*
X12950000Y-5477500D01*
X12950000Y-5447500D02*
X12920000Y-5477500D01*
X12922500Y-4807500D02*
X12952500Y-4837500D01*
X12952500Y-4807500D02*
X12922500Y-4837500D01*
X12922500Y-5215000D02*
X12952500Y-5245000D01*
X12952500Y-5215000D02*
X12922500Y-5245000D01*
X12985000Y-4185000D02*
X13015000Y-4215000D01*
X13015000Y-4185000D02*
X12985000Y-4215000D01*
X12985000Y-6085000D02*
X13015000Y-6115000D01*
X13015000Y-6085000D02*
X12985000Y-6115000D01*
X13085000Y-4185000D02*
X13115000Y-4215000D01*
X13115000Y-4185000D02*
X13085000Y-4215000D01*
X13085000Y-4860000D02*
X13115000Y-4890000D01*
X13115000Y-4860000D02*
X13085000Y-4890000D01*
X13085000Y-4960000D02*
X13115000Y-4990000D01*
X13115000Y-4960000D02*
X13085000Y-4990000D01*
X13085000Y-5060000D02*
X13115000Y-5090000D01*
X13115000Y-5060000D02*
X13085000Y-5090000D01*
X13085000Y-5210000D02*
X13115000Y-5240000D01*
X13115000Y-5210000D02*
X13085000Y-5240000D01*
X13085000Y-5310000D02*
X13115000Y-5340000D01*
X13115000Y-5310000D02*
X13085000Y-5340000D01*
X13085000Y-5410000D02*
X13115000Y-5440000D01*
X13115000Y-5410000D02*
X13085000Y-5440000D01*
X13085000Y-6085000D02*
X13115000Y-6115000D01*
X13115000Y-6085000D02*
X13085000Y-6115000D01*
X13185000Y-4185000D02*
X13215000Y-4215000D01*
X13215000Y-4185000D02*
X13185000Y-4215000D01*
X13185000Y-4860000D02*
X13215000Y-4890000D01*
X13215000Y-4860000D02*
X13185000Y-4890000D01*
X13185000Y-4960000D02*
X13215000Y-4990000D01*
X13215000Y-4960000D02*
X13185000Y-4990000D01*
X13185000Y-5060000D02*
X13215000Y-5090000D01*
X13215000Y-5060000D02*
X13185000Y-5090000D01*
X13185000Y-5210000D02*
X13215000Y-5240000D01*
X13215000Y-5210000D02*
X13185000Y-5240000D01*
X13185000Y-5310000D02*
X13215000Y-5340000D01*
X13215000Y-5310000D02*
X13185000Y-5340000D01*
X13185000Y-5410000D02*
X13215000Y-5440000D01*
X13215000Y-5410000D02*
X13185000Y-5440000D01*
X13185000Y-6085000D02*
X13215000Y-6115000D01*
X13215000Y-6085000D02*
X13185000Y-6115000D01*
X13710000Y-5705000D02*
X13740000Y-5735000D01*
X13740000Y-5705000D02*
X13710000Y-5735000D01*
X13905000Y-6412500D02*
X13935000Y-6442500D01*
X13935000Y-6412500D02*
X13905000Y-6442500D01*
X13907500Y-6050000D02*
X13937500Y-6080000D01*
X13937500Y-6050000D02*
X13907500Y-6080000D01*
X14207500Y-6222500D02*
X14237500Y-6252500D01*
X14237500Y-6222500D02*
X14207500Y-6252500D01*
X14385000Y-8685000D02*
X14415000Y-8715000D01*
X14415000Y-8685000D02*
X14385000Y-8715000D01*
X14385000Y-8885000D02*
X14415000Y-8915000D01*
X14415000Y-8885000D02*
X14385000Y-8915000D01*
X14385000Y-9085000D02*
X14415000Y-9115000D01*
X14415000Y-9085000D02*
X14385000Y-9115000D01*
X14385000Y-9285000D02*
X14415000Y-9315000D01*
X14415000Y-9285000D02*
X14385000Y-9315000D01*
X14385000Y-9485000D02*
X14415000Y-9515000D01*
X14415000Y-9485000D02*
X14385000Y-9515000D01*
X14385000Y-9685000D02*
X14415000Y-9715000D01*
X14415000Y-9685000D02*
X14385000Y-9715000D01*
X14385000Y-9885000D02*
X14415000Y-9915000D01*
X14415000Y-9885000D02*
X14385000Y-9915000D01*
X14385000Y-10085000D02*
X14415000Y-10115000D01*
X14415000Y-10085000D02*
X14385000Y-10115000D01*
X14385000Y-10285000D02*
X14415000Y-10315000D01*
X14415000Y-10285000D02*
X14385000Y-10315000D01*
X14385000Y-10485000D02*
X14415000Y-10515000D01*
X14415000Y-10485000D02*
X14385000Y-10515000D01*
X6837000Y-11995000D02*
G75*
G02*
X6757000Y-11995000I-40000J0D01*
G01*
X6757000Y-11995000D02*
G75*
G02*
X6837000Y-11995000I40000J0D01*
G01*
X6837000Y-12495000D02*
G75*
G02*
X6757000Y-12495000I-40000J0D01*
G01*
X6757000Y-12495000D02*
G75*
G02*
X6837000Y-12495000I40000J0D01*
G01*
X6840000Y-10930750D02*
G75*
G02*
X6760000Y-10930750I-40000J0D01*
G01*
X6760000Y-10930750D02*
G75*
G02*
X6840000Y-10930750I40000J0D01*
G01*
X6840000Y-11430750D02*
G75*
G02*
X6760000Y-11430750I-40000J0D01*
G01*
X6760000Y-11430750D02*
G75*
G02*
X6840000Y-11430750I40000J0D01*
G01*
X7157000Y-11995000D02*
G75*
G02*
X7077000Y-11995000I-40000J0D01*
G01*
X7077000Y-11995000D02*
G75*
G02*
X7157000Y-11995000I40000J0D01*
G01*
X7157000Y-12495000D02*
G75*
G02*
X7077000Y-12495000I-40000J0D01*
G01*
X7077000Y-12495000D02*
G75*
G02*
X7157000Y-12495000I40000J0D01*
G01*
X7160000Y-9830250D02*
G75*
G02*
X7080000Y-9830250I-40000J0D01*
G01*
X7080000Y-9830250D02*
G75*
G02*
X7160000Y-9830250I40000J0D01*
G01*
X7160000Y-10330250D02*
G75*
G02*
X7080000Y-10330250I-40000J0D01*
G01*
X7080000Y-10330250D02*
G75*
G02*
X7160000Y-10330250I40000J0D01*
G01*
X7160000Y-10930750D02*
G75*
G02*
X7080000Y-10930750I-40000J0D01*
G01*
X7080000Y-10930750D02*
G75*
G02*
X7160000Y-10930750I40000J0D01*
G01*
X7160000Y-11430750D02*
G75*
G02*
X7080000Y-11430750I-40000J0D01*
G01*
X7080000Y-11430750D02*
G75*
G02*
X7160000Y-11430750I40000J0D01*
G01*
X7165000Y-8789250D02*
G75*
G02*
X7085000Y-8789250I-40000J0D01*
G01*
X7085000Y-8789250D02*
G75*
G02*
X7165000Y-8789250I40000J0D01*
G01*
X7165000Y-9289250D02*
G75*
G02*
X7085000Y-9289250I-40000J0D01*
G01*
X7085000Y-9289250D02*
G75*
G02*
X7165000Y-9289250I40000J0D01*
G01*
X7477000Y-11995000D02*
G75*
G02*
X7397000Y-11995000I-40000J0D01*
G01*
X7397000Y-11995000D02*
G75*
G02*
X7477000Y-11995000I40000J0D01*
G01*
X7477000Y-12495000D02*
G75*
G02*
X7397000Y-12495000I-40000J0D01*
G01*
X7397000Y-12495000D02*
G75*
G02*
X7477000Y-12495000I40000J0D01*
G01*
X7480000Y-9830250D02*
G75*
G02*
X7400000Y-9830250I-40000J0D01*
G01*
X7400000Y-9830250D02*
G75*
G02*
X7480000Y-9830250I40000J0D01*
G01*
X7480000Y-10330250D02*
G75*
G02*
X7400000Y-10330250I-40000J0D01*
G01*
X7400000Y-10330250D02*
G75*
G02*
X7480000Y-10330250I40000J0D01*
G01*
X7480000Y-10930750D02*
G75*
G02*
X7400000Y-10930750I-40000J0D01*
G01*
X7400000Y-10930750D02*
G75*
G02*
X7480000Y-10930750I40000J0D01*
G01*
X7480000Y-11430750D02*
G75*
G02*
X7400000Y-11430750I-40000J0D01*
G01*
X7400000Y-11430750D02*
G75*
G02*
X7480000Y-11430750I40000J0D01*
G01*
X7485000Y-8789250D02*
G75*
G02*
X7405000Y-8789250I-40000J0D01*
G01*
X7405000Y-8789250D02*
G75*
G02*
X7485000Y-8789250I40000J0D01*
G01*
X7485000Y-9289250D02*
G75*
G02*
X7405000Y-9289250I-40000J0D01*
G01*
X7405000Y-9289250D02*
G75*
G02*
X7485000Y-9289250I40000J0D01*
G01*
X9437000Y-11995000D02*
G75*
G02*
X9357000Y-11995000I-40000J0D01*
G01*
X9357000Y-11995000D02*
G75*
G02*
X9437000Y-11995000I40000J0D01*
G01*
X9437000Y-12495000D02*
G75*
G02*
X9357000Y-12495000I-40000J0D01*
G01*
X9357000Y-12495000D02*
G75*
G02*
X9437000Y-12495000I40000J0D01*
G01*
X9440000Y-9830250D02*
G75*
G02*
X9360000Y-9830250I-40000J0D01*
G01*
X9360000Y-9830250D02*
G75*
G02*
X9440000Y-9830250I40000J0D01*
G01*
X9440000Y-10330250D02*
G75*
G02*
X9360000Y-10330250I-40000J0D01*
G01*
X9360000Y-10330250D02*
G75*
G02*
X9440000Y-10330250I40000J0D01*
G01*
X9440000Y-10930750D02*
G75*
G02*
X9360000Y-10930750I-40000J0D01*
G01*
X9360000Y-10930750D02*
G75*
G02*
X9440000Y-10930750I40000J0D01*
G01*
X9440000Y-11430750D02*
G75*
G02*
X9360000Y-11430750I-40000J0D01*
G01*
X9360000Y-11430750D02*
G75*
G02*
X9440000Y-11430750I40000J0D01*
G01*
X9445000Y-8803000D02*
G75*
G02*
X9365000Y-8803000I-40000J0D01*
G01*
X9365000Y-8803000D02*
G75*
G02*
X9445000Y-8803000I40000J0D01*
G01*
X9445000Y-9303000D02*
G75*
G02*
X9365000Y-9303000I-40000J0D01*
G01*
X9365000Y-9303000D02*
G75*
G02*
X9445000Y-9303000I40000J0D01*
G01*
X9757000Y-11995000D02*
G75*
G02*
X9677000Y-11995000I-40000J0D01*
G01*
X9677000Y-11995000D02*
G75*
G02*
X9757000Y-11995000I40000J0D01*
G01*
X9757000Y-12495000D02*
G75*
G02*
X9677000Y-12495000I-40000J0D01*
G01*
X9677000Y-12495000D02*
G75*
G02*
X9757000Y-12495000I40000J0D01*
G01*
X9760000Y-9830250D02*
G75*
G02*
X9680000Y-9830250I-40000J0D01*
G01*
X9680000Y-9830250D02*
G75*
G02*
X9760000Y-9830250I40000J0D01*
G01*
X9760000Y-10330250D02*
G75*
G02*
X9680000Y-10330250I-40000J0D01*
G01*
X9680000Y-10330250D02*
G75*
G02*
X9760000Y-10330250I40000J0D01*
G01*
X9760000Y-10930750D02*
G75*
G02*
X9680000Y-10930750I-40000J0D01*
G01*
X9680000Y-10930750D02*
G75*
G02*
X9760000Y-10930750I40000J0D01*
G01*
X9760000Y-11430750D02*
G75*
G02*
X9680000Y-11430750I-40000J0D01*
G01*
X9680000Y-11430750D02*
G75*
G02*
X9760000Y-11430750I40000J0D01*
G01*
X9765000Y-8803000D02*
G75*
G02*
X9685000Y-8803000I-40000J0D01*
G01*
X9685000Y-8803000D02*
G75*
G02*
X9765000Y-8803000I40000J0D01*
G01*
X9765000Y-9303000D02*
G75*
G02*
X9685000Y-9303000I-40000J0D01*
G01*
X9685000Y-9303000D02*
G75*
G02*
X9765000Y-9303000I40000J0D01*
G01*
X10077000Y-11995000D02*
G75*
G02*
X9997000Y-11995000I-40000J0D01*
G01*
X9997000Y-11995000D02*
G75*
G02*
X10077000Y-11995000I40000J0D01*
G01*
X10077000Y-12495000D02*
G75*
G02*
X9997000Y-12495000I-40000J0D01*
G01*
X9997000Y-12495000D02*
G75*
G02*
X10077000Y-12495000I40000J0D01*
G01*
X10080000Y-10930750D02*
G75*
G02*
X10000000Y-10930750I-40000J0D01*
G01*
X10000000Y-10930750D02*
G75*
G02*
X10080000Y-10930750I40000J0D01*
G01*
X10080000Y-11430750D02*
G75*
G02*
X10000000Y-11430750I-40000J0D01*
G01*
X10000000Y-11430750D02*
G75*
G02*
X10080000Y-11430750I40000J0D01*
G01*
X10977000Y-11995000D02*
G75*
G02*
X10897000Y-11995000I-40000J0D01*
G01*
X10897000Y-11995000D02*
G75*
G02*
X10977000Y-11995000I40000J0D01*
G01*
X10977000Y-12495000D02*
G75*
G02*
X10897000Y-12495000I-40000J0D01*
G01*
X10897000Y-12495000D02*
G75*
G02*
X10977000Y-12495000I40000J0D01*
G01*
X10980000Y-10930750D02*
G75*
G02*
X10900000Y-10930750I-40000J0D01*
G01*
X10900000Y-10930750D02*
G75*
G02*
X10980000Y-10930750I40000J0D01*
G01*
X10980000Y-11430750D02*
G75*
G02*
X10900000Y-11430750I-40000J0D01*
G01*
X10900000Y-11430750D02*
G75*
G02*
X10980000Y-11430750I40000J0D01*
G01*
X11297000Y-11995000D02*
G75*
G02*
X11217000Y-11995000I-40000J0D01*
G01*
X11217000Y-11995000D02*
G75*
G02*
X11297000Y-11995000I40000J0D01*
G01*
X11297000Y-12495000D02*
G75*
G02*
X11217000Y-12495000I-40000J0D01*
G01*
X11217000Y-12495000D02*
G75*
G02*
X11297000Y-12495000I40000J0D01*
G01*
X11300000Y-8805000D02*
G75*
G02*
X11220000Y-8805000I-40000J0D01*
G01*
X11220000Y-8805000D02*
G75*
G02*
X11300000Y-8805000I40000J0D01*
G01*
X11300000Y-9305000D02*
G75*
G02*
X11220000Y-9305000I-40000J0D01*
G01*
X11220000Y-9305000D02*
G75*
G02*
X11300000Y-9305000I40000J0D01*
G01*
X11300000Y-9830250D02*
G75*
G02*
X11220000Y-9830250I-40000J0D01*
G01*
X11220000Y-9830250D02*
G75*
G02*
X11300000Y-9830250I40000J0D01*
G01*
X11300000Y-10330250D02*
G75*
G02*
X11220000Y-10330250I-40000J0D01*
G01*
X11220000Y-10330250D02*
G75*
G02*
X11300000Y-10330250I40000J0D01*
G01*
X11300000Y-10930750D02*
G75*
G02*
X11220000Y-10930750I-40000J0D01*
G01*
X11220000Y-10930750D02*
G75*
G02*
X11300000Y-10930750I40000J0D01*
G01*
X11300000Y-11430750D02*
G75*
G02*
X11220000Y-11430750I-40000J0D01*
G01*
X11220000Y-11430750D02*
G75*
G02*
X11300000Y-11430750I40000J0D01*
G01*
X11617000Y-11995000D02*
G75*
G02*
X11537000Y-11995000I-40000J0D01*
G01*
X11537000Y-11995000D02*
G75*
G02*
X11617000Y-11995000I40000J0D01*
G01*
X11617000Y-12495000D02*
G75*
G02*
X11537000Y-12495000I-40000J0D01*
G01*
X11537000Y-12495000D02*
G75*
G02*
X11617000Y-12495000I40000J0D01*
G01*
X11620000Y-8805000D02*
G75*
G02*
X11540000Y-8805000I-40000J0D01*
G01*
X11540000Y-8805000D02*
G75*
G02*
X11620000Y-8805000I40000J0D01*
G01*
X11620000Y-9305000D02*
G75*
G02*
X11540000Y-9305000I-40000J0D01*
G01*
X11540000Y-9305000D02*
G75*
G02*
X11620000Y-9305000I40000J0D01*
G01*
X11620000Y-9830250D02*
G75*
G02*
X11540000Y-9830250I-40000J0D01*
G01*
X11540000Y-9830250D02*
G75*
G02*
X11620000Y-9830250I40000J0D01*
G01*
X11620000Y-10330250D02*
G75*
G02*
X11540000Y-10330250I-40000J0D01*
G01*
X11540000Y-10330250D02*
G75*
G02*
X11620000Y-10330250I40000J0D01*
G01*
X11620000Y-10930750D02*
G75*
G02*
X11540000Y-10930750I-40000J0D01*
G01*
X11540000Y-10930750D02*
G75*
G02*
X11620000Y-10930750I40000J0D01*
G01*
X11620000Y-11430750D02*
G75*
G02*
X11540000Y-11430750I-40000J0D01*
G01*
X11540000Y-11430750D02*
G75*
G02*
X11620000Y-11430750I40000J0D01*
G01*
X13577000Y-11995000D02*
G75*
G02*
X13497000Y-11995000I-40000J0D01*
G01*
X13497000Y-11995000D02*
G75*
G02*
X13577000Y-11995000I40000J0D01*
G01*
X13577000Y-12495000D02*
G75*
G02*
X13497000Y-12495000I-40000J0D01*
G01*
X13497000Y-12495000D02*
G75*
G02*
X13577000Y-12495000I40000J0D01*
G01*
X13580000Y-8805250D02*
G75*
G02*
X13500000Y-8805250I-40000J0D01*
G01*
X13500000Y-8805250D02*
G75*
G02*
X13580000Y-8805250I40000J0D01*
G01*
X13580000Y-9305250D02*
G75*
G02*
X13500000Y-9305250I-40000J0D01*
G01*
X13500000Y-9305250D02*
G75*
G02*
X13580000Y-9305250I40000J0D01*
G01*
X13580000Y-9830250D02*
G75*
G02*
X13500000Y-9830250I-40000J0D01*
G01*
X13500000Y-9830250D02*
G75*
G02*
X13580000Y-9830250I40000J0D01*
G01*
X13580000Y-10330250D02*
G75*
G02*
X13500000Y-10330250I-40000J0D01*
G01*
X13500000Y-10330250D02*
G75*
G02*
X13580000Y-10330250I40000J0D01*
G01*
X13580000Y-10920750D02*
G75*
G02*
X13500000Y-10920750I-40000J0D01*
G01*
X13500000Y-10920750D02*
G75*
G02*
X13580000Y-10920750I40000J0D01*
G01*
X13580000Y-11420750D02*
G75*
G02*
X13500000Y-11420750I-40000J0D01*
G01*
X13500000Y-11420750D02*
G75*
G02*
X13580000Y-11420750I40000J0D01*
G01*
X13750000Y-6887750D02*
G75*
G02*
X13670000Y-6887750I-40000J0D01*
G01*
X13670000Y-6887750D02*
G75*
G02*
X13750000Y-6887750I40000J0D01*
G01*
X13750000Y-7237750D02*
G75*
G02*
X13670000Y-7237750I-40000J0D01*
G01*
X13670000Y-7237750D02*
G75*
G02*
X13750000Y-7237750I40000J0D01*
G01*
X13750000Y-7780000D02*
G75*
G02*
X13670000Y-7780000I-40000J0D01*
G01*
X13670000Y-7780000D02*
G75*
G02*
X13750000Y-7780000I40000J0D01*
G01*
X13750000Y-8130000D02*
G75*
G02*
X13670000Y-8130000I-40000J0D01*
G01*
X13670000Y-8130000D02*
G75*
G02*
X13750000Y-8130000I40000J0D01*
G01*
X13897000Y-11995000D02*
G75*
G02*
X13817000Y-11995000I-40000J0D01*
G01*
X13817000Y-11995000D02*
G75*
G02*
X13897000Y-11995000I40000J0D01*
G01*
X13897000Y-12495000D02*
G75*
G02*
X13817000Y-12495000I-40000J0D01*
G01*
X13817000Y-12495000D02*
G75*
G02*
X13897000Y-12495000I40000J0D01*
G01*
X13900000Y-8805250D02*
G75*
G02*
X13820000Y-8805250I-40000J0D01*
G01*
X13820000Y-8805250D02*
G75*
G02*
X13900000Y-8805250I40000J0D01*
G01*
X13900000Y-9305250D02*
G75*
G02*
X13820000Y-9305250I-40000J0D01*
G01*
X13820000Y-9305250D02*
G75*
G02*
X13900000Y-9305250I40000J0D01*
G01*
X13900000Y-9830250D02*
G75*
G02*
X13820000Y-9830250I-40000J0D01*
G01*
X13820000Y-9830250D02*
G75*
G02*
X13900000Y-9830250I40000J0D01*
G01*
X13900000Y-10330250D02*
G75*
G02*
X13820000Y-10330250I-40000J0D01*
G01*
X13820000Y-10330250D02*
G75*
G02*
X13900000Y-10330250I40000J0D01*
G01*
X13900000Y-10920750D02*
G75*
G02*
X13820000Y-10920750I-40000J0D01*
G01*
X13820000Y-10920750D02*
G75*
G02*
X13900000Y-10920750I40000J0D01*
G01*
X13900000Y-11420750D02*
G75*
G02*
X13820000Y-11420750I-40000J0D01*
G01*
X13820000Y-11420750D02*
G75*
G02*
X13900000Y-11420750I40000J0D01*
G01*
X14217000Y-11995000D02*
G75*
G02*
X14137000Y-11995000I-40000J0D01*
G01*
X14137000Y-11995000D02*
G75*
G02*
X14217000Y-11995000I40000J0D01*
G01*
X14217000Y-12495000D02*
G75*
G02*
X14137000Y-12495000I-40000J0D01*
G01*
X14137000Y-12495000D02*
G75*
G02*
X14217000Y-12495000I40000J0D01*
G01*
X14220000Y-10920750D02*
G75*
G02*
X14140000Y-10920750I-40000J0D01*
G01*
X14140000Y-10920750D02*
G75*
G02*
X14220000Y-10920750I40000J0D01*
G01*
X14220000Y-11420750D02*
G75*
G02*
X14140000Y-11420750I-40000J0D01*
G01*
X14140000Y-11420750D02*
G75*
G02*
X14220000Y-11420750I40000J0D01*
G01*
X6424250Y-4506250D02*
X6424250Y-4591250D01*
X6381750Y-4548750D02*
X6466750Y-4548750D01*
X6424250Y-4760250D02*
X6424250Y-4845250D01*
X6381750Y-4802750D02*
X6466750Y-4802750D01*
X6424250Y-5014250D02*
X6424250Y-5099250D01*
X6381750Y-5056750D02*
X6466750Y-5056750D01*
X6424250Y-5268250D02*
X6424250Y-5353250D01*
X6381750Y-5310750D02*
X6466750Y-5310750D01*
X6932250Y-4506250D02*
X6932250Y-4591250D01*
X6889750Y-4548750D02*
X6974750Y-4548750D01*
X6932250Y-4760250D02*
X6932250Y-4845250D01*
X6889750Y-4802750D02*
X6974750Y-4802750D01*
X6932250Y-5014250D02*
X6932250Y-5099250D01*
X6889750Y-5056750D02*
X6974750Y-5056750D01*
X6932250Y-5268250D02*
X6932250Y-5353250D01*
X6889750Y-5310750D02*
X6974750Y-5310750D01*
X13870000Y-4545500D02*
X13870000Y-4630500D01*
X13827500Y-4588000D02*
X13912500Y-4588000D01*
X13870000Y-4799500D02*
X13870000Y-4884500D01*
X13827500Y-4842000D02*
X13912500Y-4842000D01*
X13870000Y-5053500D02*
X13870000Y-5138500D01*
X13827500Y-5096000D02*
X13912500Y-5096000D01*
X13870000Y-5307500D02*
X13870000Y-5392500D01*
X13827500Y-5350000D02*
X13912500Y-5350000D01*
X14378000Y-4545500D02*
X14378000Y-4630500D01*
X14335500Y-4588000D02*
X14420500Y-4588000D01*
X14378000Y-4799500D02*
X14378000Y-4884500D01*
X14335500Y-4842000D02*
X14420500Y-4842000D01*
X14378000Y-5053500D02*
X14378000Y-5138500D01*
X14335500Y-5096000D02*
X14420500Y-5096000D01*
X14378000Y-5307500D02*
X14378000Y-5392500D01*
X14335500Y-5350000D02*
X14420500Y-5350000D01*
X5785356Y-5677356D02*
X5785356Y-5606644D01*
X5714644Y-5606644D01*
X5714644Y-5677356D01*
X5785356Y-5677356D01*
X5785356Y-5931356D02*
X5785356Y-5860644D01*
X5714644Y-5860644D01*
X5714644Y-5931356D01*
X5785356Y-5931356D01*
X5785356Y-6185356D02*
X5785356Y-6114644D01*
X5714644Y-6114644D01*
X5714644Y-6185356D01*
X5785356Y-6185356D01*
X5785356Y-6871356D02*
X5785356Y-6800644D01*
X5714644Y-6800644D01*
X5714644Y-6871356D01*
X5785356Y-6871356D01*
X5785356Y-7125356D02*
X5785356Y-7054644D01*
X5714644Y-7054644D01*
X5714644Y-7125356D01*
X5785356Y-7125356D01*
X5785356Y-7379356D02*
X5785356Y-7308644D01*
X5714644Y-7308644D01*
X5714644Y-7379356D01*
X5785356Y-7379356D01*
X5785356Y-7633356D02*
X5785356Y-7562644D01*
X5714644Y-7562644D01*
X5714644Y-7633356D01*
X5785356Y-7633356D01*
X5795356Y-4701356D02*
X5795356Y-4630644D01*
X5724644Y-4630644D01*
X5724644Y-4701356D01*
X5795356Y-4701356D01*
X5795356Y-4955356D02*
X5795356Y-4884644D01*
X5724644Y-4884644D01*
X5724644Y-4955356D01*
X5795356Y-4955356D01*
X5795356Y-5209356D02*
X5795356Y-5138644D01*
X5724644Y-5138644D01*
X5724644Y-5209356D01*
X5795356Y-5209356D01*
X15205356Y-4711356D02*
X15205356Y-4640644D01*
X15134644Y-4640644D01*
X15134644Y-4711356D01*
X15205356Y-4711356D01*
X15205356Y-4965356D02*
X15205356Y-4894644D01*
X15134644Y-4894644D01*
X15134644Y-4965356D01*
X15205356Y-4965356D01*
X15205356Y-5219356D02*
X15205356Y-5148644D01*
X15134644Y-5148644D01*
X15134644Y-5219356D01*
X15205356Y-5219356D01*
D13*
X9650000Y-4800000D02*
X9710000Y-4740000D01*
X9650000Y-4680000D01*
X9590000Y-4740000D01*
X9650000Y-4800000D01*
X9650000Y-5560000D02*
X9710000Y-5500000D01*
X9650000Y-5440000D01*
X9590000Y-5500000D01*
X9650000Y-5560000D01*
X11150000Y-4800000D02*
X11210000Y-4740000D01*
X11150000Y-4680000D01*
X11090000Y-4740000D01*
X11150000Y-4800000D01*
X11150000Y-5560000D02*
X11210000Y-5500000D01*
X11150000Y-5440000D01*
X11090000Y-5500000D01*
X11150000Y-5560000D01*
D14*
X7715000Y-4665000D02*
X7845000Y-4795000D01*
X7845000Y-4665000D02*
X7715000Y-4795000D01*
X7845000Y-4730000D02*
G75*
G02*
X7715000Y-4730000I-65000J0D01*
G01*
X7715000Y-4730000D02*
G75*
G02*
X7845000Y-4730000I65000J0D01*
G01*
X7715000Y-5415000D02*
X7845000Y-5545000D01*
X7845000Y-5415000D02*
X7715000Y-5545000D01*
X7845000Y-5480000D02*
G75*
G02*
X7715000Y-5480000I-65000J0D01*
G01*
X7715000Y-5480000D02*
G75*
G02*
X7845000Y-5480000I65000J0D01*
G01*
X8215000Y-4665000D02*
X8345000Y-4795000D01*
X8345000Y-4665000D02*
X8215000Y-4795000D01*
X8345000Y-4730000D02*
G75*
G02*
X8215000Y-4730000I-65000J0D01*
G01*
X8215000Y-4730000D02*
G75*
G02*
X8345000Y-4730000I65000J0D01*
G01*
X8215000Y-5415000D02*
X8345000Y-5545000D01*
X8345000Y-5415000D02*
X8215000Y-5545000D01*
X8345000Y-5480000D02*
G75*
G02*
X8215000Y-5480000I-65000J0D01*
G01*
X8215000Y-5480000D02*
G75*
G02*
X8345000Y-5480000I65000J0D01*
G01*
X8715000Y-4665000D02*
X8845000Y-4795000D01*
X8845000Y-4665000D02*
X8715000Y-4795000D01*
X8845000Y-4730000D02*
G75*
G02*
X8715000Y-4730000I-65000J0D01*
G01*
X8715000Y-4730000D02*
G75*
G02*
X8845000Y-4730000I65000J0D01*
G01*
X8715000Y-5415000D02*
X8845000Y-5545000D01*
X8845000Y-5415000D02*
X8715000Y-5545000D01*
X8845000Y-5480000D02*
G75*
G02*
X8715000Y-5480000I-65000J0D01*
G01*
X8715000Y-5480000D02*
G75*
G02*
X8845000Y-5480000I65000J0D01*
G01*
D15*
X7155000Y-13095000D02*
X7325000Y-13265000D01*
X7325000Y-13095000D02*
X7155000Y-13265000D01*
X7240000Y-13095000D02*
X7240000Y-13265000D01*
X7155000Y-13180000D02*
X7325000Y-13180000D01*
X7655000Y-13095000D02*
X7825000Y-13265000D01*
X7825000Y-13095000D02*
X7655000Y-13265000D01*
X7740000Y-13095000D02*
X7740000Y-13265000D01*
X7655000Y-13180000D02*
X7825000Y-13180000D01*
X9015000Y-13095000D02*
X9185000Y-13265000D01*
X9185000Y-13095000D02*
X9015000Y-13265000D01*
X9100000Y-13095000D02*
X9100000Y-13265000D01*
X9015000Y-13180000D02*
X9185000Y-13180000D01*
X9515000Y-13095000D02*
X9685000Y-13265000D01*
X9685000Y-13095000D02*
X9515000Y-13265000D01*
X9600000Y-13095000D02*
X9600000Y-13265000D01*
X9515000Y-13180000D02*
X9685000Y-13180000D01*
X11287250Y-13095000D02*
X11457250Y-13265000D01*
X11457250Y-13095000D02*
X11287250Y-13265000D01*
X11372250Y-13095000D02*
X11372250Y-13265000D01*
X11287250Y-13180000D02*
X11457250Y-13180000D01*
X11787250Y-13095000D02*
X11957250Y-13265000D01*
X11957250Y-13095000D02*
X11787250Y-13265000D01*
X11872250Y-13095000D02*
X11872250Y-13265000D01*
X11787250Y-13180000D02*
X11957250Y-13180000D01*
X13155000Y-13095000D02*
X13325000Y-13265000D01*
X13325000Y-13095000D02*
X13155000Y-13265000D01*
X13240000Y-13095000D02*
X13240000Y-13265000D01*
X13155000Y-13180000D02*
X13325000Y-13180000D01*
X13655000Y-13095000D02*
X13825000Y-13265000D01*
X13825000Y-13095000D02*
X13655000Y-13265000D01*
X13740000Y-13095000D02*
X13740000Y-13265000D01*
X13655000Y-13180000D02*
X13825000Y-13180000D01*
X14760000Y-6925000D02*
X14930000Y-7095000D01*
X14930000Y-6925000D02*
X14760000Y-7095000D01*
X14845000Y-6925000D02*
X14845000Y-7095000D01*
X14760000Y-7010000D02*
X14930000Y-7010000D01*
X14760000Y-7425000D02*
X14930000Y-7595000D01*
X14930000Y-7425000D02*
X14760000Y-7595000D01*
X14845000Y-7425000D02*
X14845000Y-7595000D01*
X14760000Y-7510000D02*
X14930000Y-7510000D01*
X14760000Y-7925000D02*
X14930000Y-8095000D01*
X14930000Y-7925000D02*
X14760000Y-8095000D01*
X14845000Y-7925000D02*
X14845000Y-8095000D01*
X14760000Y-8010000D02*
X14930000Y-8010000D01*
D16*
X5790000Y-9365000D02*
X6110000Y-9685000D01*
X6110000Y-9365000D02*
X5790000Y-9685000D01*
X6063138Y-9638138D02*
X6063138Y-9411862D01*
X5836862Y-9411862D01*
X5836862Y-9638138D01*
X6063138Y-9638138D01*
X5790000Y-13165000D02*
X6110000Y-13485000D01*
X6110000Y-13165000D02*
X5790000Y-13485000D01*
X6063138Y-13438138D02*
X6063138Y-13211862D01*
X5836862Y-13211862D01*
X5836862Y-13438138D01*
X6063138Y-13438138D01*
X10640000Y-6715000D02*
X10960000Y-7035000D01*
X10960000Y-6715000D02*
X10640000Y-7035000D01*
X10913138Y-6988138D02*
X10913138Y-6761862D01*
X10686862Y-6761862D01*
X10686862Y-6988138D01*
X10913138Y-6988138D01*
X14790000Y-9365000D02*
X15110000Y-9685000D01*
X15110000Y-9365000D02*
X14790000Y-9685000D01*
X15063138Y-9638138D02*
X15063138Y-9411862D01*
X14836862Y-9411862D01*
X14836862Y-9638138D01*
X15063138Y-9638138D01*
X14790000Y-13165000D02*
X15110000Y-13485000D01*
X15110000Y-13165000D02*
X14790000Y-13485000D01*
X15063138Y-13438138D02*
X15063138Y-13211862D01*
X14836862Y-13211862D01*
X14836862Y-13438138D01*
X15063138Y-13438138D01*
D11*
X5708277Y-14138984D02*
X5708277Y-13938984D01*
X5708277Y-13938984D02*
X5755896Y-13938984D01*
X5755896Y-13938984D02*
X5784467Y-13948508D01*
X5784467Y-13948508D02*
X5803515Y-13967555D01*
X5803515Y-13967555D02*
X5813039Y-13986603D01*
X5813039Y-13986603D02*
X5822562Y-14024698D01*
X5822562Y-14024698D02*
X5822562Y-14053269D01*
X5822562Y-14053269D02*
X5813039Y-14091365D01*
X5813039Y-14091365D02*
X5803515Y-14110412D01*
X5803515Y-14110412D02*
X5784467Y-14129460D01*
X5784467Y-14129460D02*
X5755896Y-14138984D01*
X5755896Y-14138984D02*
X5708277Y-14138984D01*
X5908277Y-14138984D02*
X5908277Y-14005650D01*
X5908277Y-14043746D02*
X5917801Y-14024698D01*
X5917801Y-14024698D02*
X5927324Y-14015174D01*
X5927324Y-14015174D02*
X5946372Y-14005650D01*
X5946372Y-14005650D02*
X5965420Y-14005650D01*
X6032086Y-14138984D02*
X6032086Y-14005650D01*
X6032086Y-13938984D02*
X6022562Y-13948508D01*
X6022562Y-13948508D02*
X6032086Y-13958031D01*
X6032086Y-13958031D02*
X6041610Y-13948508D01*
X6041610Y-13948508D02*
X6032086Y-13938984D01*
X6032086Y-13938984D02*
X6032086Y-13958031D01*
X6155896Y-14138984D02*
X6136848Y-14129460D01*
X6136848Y-14129460D02*
X6127324Y-14110412D01*
X6127324Y-14110412D02*
X6127324Y-13938984D01*
X6260658Y-14138984D02*
X6241610Y-14129460D01*
X6241610Y-14129460D02*
X6232086Y-14110412D01*
X6232086Y-14110412D02*
X6232086Y-13938984D01*
X6489229Y-14138984D02*
X6489229Y-13938984D01*
X6489229Y-13938984D02*
X6555896Y-14081841D01*
X6555896Y-14081841D02*
X6622562Y-13938984D01*
X6622562Y-13938984D02*
X6622562Y-14138984D01*
X6803515Y-14138984D02*
X6803515Y-14034222D01*
X6803515Y-14034222D02*
X6793991Y-14015174D01*
X6793991Y-14015174D02*
X6774943Y-14005650D01*
X6774943Y-14005650D02*
X6736848Y-14005650D01*
X6736848Y-14005650D02*
X6717801Y-14015174D01*
X6803515Y-14129460D02*
X6784467Y-14138984D01*
X6784467Y-14138984D02*
X6736848Y-14138984D01*
X6736848Y-14138984D02*
X6717801Y-14129460D01*
X6717801Y-14129460D02*
X6708277Y-14110412D01*
X6708277Y-14110412D02*
X6708277Y-14091365D01*
X6708277Y-14091365D02*
X6717801Y-14072317D01*
X6717801Y-14072317D02*
X6736848Y-14062793D01*
X6736848Y-14062793D02*
X6784467Y-14062793D01*
X6784467Y-14062793D02*
X6803515Y-14053269D01*
X6898753Y-14005650D02*
X6898753Y-14205650D01*
X6898753Y-14015174D02*
X6917801Y-14005650D01*
X6917801Y-14005650D02*
X6955896Y-14005650D01*
X6955896Y-14005650D02*
X6974943Y-14015174D01*
X6974943Y-14015174D02*
X6984467Y-14024698D01*
X6984467Y-14024698D02*
X6993991Y-14043746D01*
X6993991Y-14043746D02*
X6993991Y-14100888D01*
X6993991Y-14100888D02*
X6984467Y-14119936D01*
X6984467Y-14119936D02*
X6974943Y-14129460D01*
X6974943Y-14129460D02*
X6955896Y-14138984D01*
X6955896Y-14138984D02*
X6917801Y-14138984D01*
X6917801Y-14138984D02*
X6898753Y-14129460D01*
X7079705Y-14119936D02*
X7089229Y-14129460D01*
X7089229Y-14129460D02*
X7079705Y-14138984D01*
X7079705Y-14138984D02*
X7070182Y-14129460D01*
X7070182Y-14129460D02*
X7079705Y-14119936D01*
X7079705Y-14119936D02*
X7079705Y-14138984D01*
X7079705Y-14015174D02*
X7089229Y-14024698D01*
X7089229Y-14024698D02*
X7079705Y-14034222D01*
X7079705Y-14034222D02*
X7070182Y-14024698D01*
X7070182Y-14024698D02*
X7079705Y-14015174D01*
X7079705Y-14015174D02*
X7079705Y-14034222D01*
D12*
X5417500Y-14452500D02*
X5447500Y-14482500D01*
X5447500Y-14452500D02*
X5417500Y-14482500D01*
D11*
X5746372Y-14358984D02*
X5765420Y-14358984D01*
X5765420Y-14358984D02*
X5784467Y-14368508D01*
X5784467Y-14368508D02*
X5793991Y-14378031D01*
X5793991Y-14378031D02*
X5803515Y-14397079D01*
X5803515Y-14397079D02*
X5813039Y-14435174D01*
X5813039Y-14435174D02*
X5813039Y-14482793D01*
X5813039Y-14482793D02*
X5803515Y-14520888D01*
X5803515Y-14520888D02*
X5793991Y-14539936D01*
X5793991Y-14539936D02*
X5784467Y-14549460D01*
X5784467Y-14549460D02*
X5765420Y-14558984D01*
X5765420Y-14558984D02*
X5746372Y-14558984D01*
X5746372Y-14558984D02*
X5727324Y-14549460D01*
X5727324Y-14549460D02*
X5717801Y-14539936D01*
X5717801Y-14539936D02*
X5708277Y-14520888D01*
X5708277Y-14520888D02*
X5698753Y-14482793D01*
X5698753Y-14482793D02*
X5698753Y-14435174D01*
X5698753Y-14435174D02*
X5708277Y-14397079D01*
X5708277Y-14397079D02*
X5717801Y-14378031D01*
X5717801Y-14378031D02*
X5727324Y-14368508D01*
X5727324Y-14368508D02*
X5746372Y-14358984D01*
X5898753Y-14539936D02*
X5908277Y-14549460D01*
X5908277Y-14549460D02*
X5898753Y-14558984D01*
X5898753Y-14558984D02*
X5889229Y-14549460D01*
X5889229Y-14549460D02*
X5898753Y-14539936D01*
X5898753Y-14539936D02*
X5898753Y-14558984D01*
X5974943Y-14358984D02*
X6098753Y-14358984D01*
X6098753Y-14358984D02*
X6032086Y-14435174D01*
X6032086Y-14435174D02*
X6060658Y-14435174D01*
X6060658Y-14435174D02*
X6079705Y-14444698D01*
X6079705Y-14444698D02*
X6089229Y-14454222D01*
X6089229Y-14454222D02*
X6098753Y-14473269D01*
X6098753Y-14473269D02*
X6098753Y-14520888D01*
X6098753Y-14520888D02*
X6089229Y-14539936D01*
X6089229Y-14539936D02*
X6079705Y-14549460D01*
X6079705Y-14549460D02*
X6060658Y-14558984D01*
X6060658Y-14558984D02*
X6003515Y-14558984D01*
X6003515Y-14558984D02*
X5984467Y-14549460D01*
X5984467Y-14549460D02*
X5974943Y-14539936D01*
X6222562Y-14358984D02*
X6241610Y-14358984D01*
X6241610Y-14358984D02*
X6260658Y-14368508D01*
X6260658Y-14368508D02*
X6270182Y-14378031D01*
X6270182Y-14378031D02*
X6279705Y-14397079D01*
X6279705Y-14397079D02*
X6289229Y-14435174D01*
X6289229Y-14435174D02*
X6289229Y-14482793D01*
X6289229Y-14482793D02*
X6279705Y-14520888D01*
X6279705Y-14520888D02*
X6270182Y-14539936D01*
X6270182Y-14539936D02*
X6260658Y-14549460D01*
X6260658Y-14549460D02*
X6241610Y-14558984D01*
X6241610Y-14558984D02*
X6222562Y-14558984D01*
X6222562Y-14558984D02*
X6203515Y-14549460D01*
X6203515Y-14549460D02*
X6193991Y-14539936D01*
X6193991Y-14539936D02*
X6184467Y-14520888D01*
X6184467Y-14520888D02*
X6174943Y-14482793D01*
X6174943Y-14482793D02*
X6174943Y-14435174D01*
X6174943Y-14435174D02*
X6184467Y-14397079D01*
X6184467Y-14397079D02*
X6193991Y-14378031D01*
X6193991Y-14378031D02*
X6203515Y-14368508D01*
X6203515Y-14368508D02*
X6222562Y-14358984D01*
X6413039Y-14358984D02*
X6432086Y-14358984D01*
X6432086Y-14358984D02*
X6451134Y-14368508D01*
X6451134Y-14368508D02*
X6460658Y-14378031D01*
X6460658Y-14378031D02*
X6470182Y-14397079D01*
X6470182Y-14397079D02*
X6479705Y-14435174D01*
X6479705Y-14435174D02*
X6479705Y-14482793D01*
X6479705Y-14482793D02*
X6470182Y-14520888D01*
X6470182Y-14520888D02*
X6460658Y-14539936D01*
X6460658Y-14539936D02*
X6451134Y-14549460D01*
X6451134Y-14549460D02*
X6432086Y-14558984D01*
X6432086Y-14558984D02*
X6413039Y-14558984D01*
X6413039Y-14558984D02*
X6393991Y-14549460D01*
X6393991Y-14549460D02*
X6384467Y-14539936D01*
X6384467Y-14539936D02*
X6374943Y-14520888D01*
X6374943Y-14520888D02*
X6365420Y-14482793D01*
X6365420Y-14482793D02*
X6365420Y-14435174D01*
X6365420Y-14435174D02*
X6374943Y-14397079D01*
X6374943Y-14397079D02*
X6384467Y-14378031D01*
X6384467Y-14378031D02*
X6393991Y-14368508D01*
X6393991Y-14368508D02*
X6413039Y-14358984D01*
X6565420Y-14558984D02*
X6565420Y-14425650D01*
X6565420Y-14444698D02*
X6574943Y-14435174D01*
X6574943Y-14435174D02*
X6593991Y-14425650D01*
X6593991Y-14425650D02*
X6622563Y-14425650D01*
X6622563Y-14425650D02*
X6641610Y-14435174D01*
X6641610Y-14435174D02*
X6651134Y-14454222D01*
X6651134Y-14454222D02*
X6651134Y-14558984D01*
X6651134Y-14454222D02*
X6660658Y-14435174D01*
X6660658Y-14435174D02*
X6679705Y-14425650D01*
X6679705Y-14425650D02*
X6708277Y-14425650D01*
X6708277Y-14425650D02*
X6727324Y-14435174D01*
X6727324Y-14435174D02*
X6736848Y-14454222D01*
X6736848Y-14454222D02*
X6736848Y-14558984D01*
X6832086Y-14558984D02*
X6832086Y-14425650D01*
X6832086Y-14444698D02*
X6841610Y-14435174D01*
X6841610Y-14435174D02*
X6860658Y-14425650D01*
X6860658Y-14425650D02*
X6889229Y-14425650D01*
X6889229Y-14425650D02*
X6908277Y-14435174D01*
X6908277Y-14435174D02*
X6917801Y-14454222D01*
X6917801Y-14454222D02*
X6917801Y-14558984D01*
X6917801Y-14454222D02*
X6927324Y-14435174D01*
X6927324Y-14435174D02*
X6946372Y-14425650D01*
X6946372Y-14425650D02*
X6974943Y-14425650D01*
X6974943Y-14425650D02*
X6993991Y-14435174D01*
X6993991Y-14435174D02*
X7003515Y-14454222D01*
X7003515Y-14454222D02*
X7003515Y-14558984D01*
X7393991Y-14349460D02*
X7222563Y-14606603D01*
X7651134Y-14358984D02*
X7670182Y-14358984D01*
X7670182Y-14358984D02*
X7689229Y-14368508D01*
X7689229Y-14368508D02*
X7698753Y-14378031D01*
X7698753Y-14378031D02*
X7708277Y-14397079D01*
X7708277Y-14397079D02*
X7717801Y-14435174D01*
X7717801Y-14435174D02*
X7717801Y-14482793D01*
X7717801Y-14482793D02*
X7708277Y-14520888D01*
X7708277Y-14520888D02*
X7698753Y-14539936D01*
X7698753Y-14539936D02*
X7689229Y-14549460D01*
X7689229Y-14549460D02*
X7670182Y-14558984D01*
X7670182Y-14558984D02*
X7651134Y-14558984D01*
X7651134Y-14558984D02*
X7632086Y-14549460D01*
X7632086Y-14549460D02*
X7622563Y-14539936D01*
X7622563Y-14539936D02*
X7613039Y-14520888D01*
X7613039Y-14520888D02*
X7603515Y-14482793D01*
X7603515Y-14482793D02*
X7603515Y-14435174D01*
X7603515Y-14435174D02*
X7613039Y-14397079D01*
X7613039Y-14397079D02*
X7622563Y-14378031D01*
X7622563Y-14378031D02*
X7632086Y-14368508D01*
X7632086Y-14368508D02*
X7651134Y-14358984D01*
X7803515Y-14539936D02*
X7813039Y-14549460D01*
X7813039Y-14549460D02*
X7803515Y-14558984D01*
X7803515Y-14558984D02*
X7793991Y-14549460D01*
X7793991Y-14549460D02*
X7803515Y-14539936D01*
X7803515Y-14539936D02*
X7803515Y-14558984D01*
X7936848Y-14358984D02*
X7955896Y-14358984D01*
X7955896Y-14358984D02*
X7974944Y-14368508D01*
X7974944Y-14368508D02*
X7984467Y-14378031D01*
X7984467Y-14378031D02*
X7993991Y-14397079D01*
X7993991Y-14397079D02*
X8003515Y-14435174D01*
X8003515Y-14435174D02*
X8003515Y-14482793D01*
X8003515Y-14482793D02*
X7993991Y-14520888D01*
X7993991Y-14520888D02*
X7984467Y-14539936D01*
X7984467Y-14539936D02*
X7974944Y-14549460D01*
X7974944Y-14549460D02*
X7955896Y-14558984D01*
X7955896Y-14558984D02*
X7936848Y-14558984D01*
X7936848Y-14558984D02*
X7917801Y-14549460D01*
X7917801Y-14549460D02*
X7908277Y-14539936D01*
X7908277Y-14539936D02*
X7898753Y-14520888D01*
X7898753Y-14520888D02*
X7889229Y-14482793D01*
X7889229Y-14482793D02*
X7889229Y-14435174D01*
X7889229Y-14435174D02*
X7898753Y-14397079D01*
X7898753Y-14397079D02*
X7908277Y-14378031D01*
X7908277Y-14378031D02*
X7917801Y-14368508D01*
X7917801Y-14368508D02*
X7936848Y-14358984D01*
X8193991Y-14558984D02*
X8079706Y-14558984D01*
X8136848Y-14558984D02*
X8136848Y-14358984D01*
X8136848Y-14358984D02*
X8117801Y-14387555D01*
X8117801Y-14387555D02*
X8098753Y-14406603D01*
X8098753Y-14406603D02*
X8079706Y-14416127D01*
X8384467Y-14558984D02*
X8270182Y-14558984D01*
X8327325Y-14558984D02*
X8327325Y-14358984D01*
X8327325Y-14358984D02*
X8308277Y-14387555D01*
X8308277Y-14387555D02*
X8289229Y-14406603D01*
X8289229Y-14406603D02*
X8270182Y-14416127D01*
X8498753Y-14444698D02*
X8479706Y-14435174D01*
X8479706Y-14435174D02*
X8470182Y-14425650D01*
X8470182Y-14425650D02*
X8460658Y-14406603D01*
X8460658Y-14406603D02*
X8460658Y-14397079D01*
X8460658Y-14397079D02*
X8470182Y-14378031D01*
X8470182Y-14378031D02*
X8479706Y-14368508D01*
X8479706Y-14368508D02*
X8498753Y-14358984D01*
X8498753Y-14358984D02*
X8536849Y-14358984D01*
X8536849Y-14358984D02*
X8555896Y-14368508D01*
X8555896Y-14368508D02*
X8565420Y-14378031D01*
X8565420Y-14378031D02*
X8574944Y-14397079D01*
X8574944Y-14397079D02*
X8574944Y-14406603D01*
X8574944Y-14406603D02*
X8565420Y-14425650D01*
X8565420Y-14425650D02*
X8555896Y-14435174D01*
X8555896Y-14435174D02*
X8536849Y-14444698D01*
X8536849Y-14444698D02*
X8498753Y-14444698D01*
X8498753Y-14444698D02*
X8479706Y-14454222D01*
X8479706Y-14454222D02*
X8470182Y-14463746D01*
X8470182Y-14463746D02*
X8460658Y-14482793D01*
X8460658Y-14482793D02*
X8460658Y-14520888D01*
X8460658Y-14520888D02*
X8470182Y-14539936D01*
X8470182Y-14539936D02*
X8479706Y-14549460D01*
X8479706Y-14549460D02*
X8498753Y-14558984D01*
X8498753Y-14558984D02*
X8536849Y-14558984D01*
X8536849Y-14558984D02*
X8555896Y-14549460D01*
X8555896Y-14549460D02*
X8565420Y-14539936D01*
X8565420Y-14539936D02*
X8574944Y-14520888D01*
X8574944Y-14520888D02*
X8574944Y-14482793D01*
X8574944Y-14482793D02*
X8565420Y-14463746D01*
X8565420Y-14463746D02*
X8555896Y-14454222D01*
X8555896Y-14454222D02*
X8536849Y-14444698D01*
X8651134Y-14358984D02*
X8651134Y-14397079D01*
X8727325Y-14358984D02*
X8727325Y-14397079D01*
X9022563Y-14635174D02*
X9013039Y-14625650D01*
X9013039Y-14625650D02*
X8993991Y-14597079D01*
X8993991Y-14597079D02*
X8984468Y-14578031D01*
X8984468Y-14578031D02*
X8974944Y-14549460D01*
X8974944Y-14549460D02*
X8965420Y-14501841D01*
X8965420Y-14501841D02*
X8965420Y-14463746D01*
X8965420Y-14463746D02*
X8974944Y-14416127D01*
X8974944Y-14416127D02*
X8984468Y-14387555D01*
X8984468Y-14387555D02*
X8993991Y-14368508D01*
X8993991Y-14368508D02*
X9013039Y-14339936D01*
X9013039Y-14339936D02*
X9022563Y-14330412D01*
X9089230Y-14378031D02*
X9098753Y-14368508D01*
X9098753Y-14368508D02*
X9117801Y-14358984D01*
X9117801Y-14358984D02*
X9165420Y-14358984D01*
X9165420Y-14358984D02*
X9184468Y-14368508D01*
X9184468Y-14368508D02*
X9193991Y-14378031D01*
X9193991Y-14378031D02*
X9203515Y-14397079D01*
X9203515Y-14397079D02*
X9203515Y-14416127D01*
X9203515Y-14416127D02*
X9193991Y-14444698D01*
X9193991Y-14444698D02*
X9079706Y-14558984D01*
X9079706Y-14558984D02*
X9203515Y-14558984D01*
X9298753Y-14558984D02*
X9336849Y-14558984D01*
X9336849Y-14558984D02*
X9355896Y-14549460D01*
X9355896Y-14549460D02*
X9365420Y-14539936D01*
X9365420Y-14539936D02*
X9384468Y-14511365D01*
X9384468Y-14511365D02*
X9393991Y-14473269D01*
X9393991Y-14473269D02*
X9393991Y-14397079D01*
X9393991Y-14397079D02*
X9384468Y-14378031D01*
X9384468Y-14378031D02*
X9374944Y-14368508D01*
X9374944Y-14368508D02*
X9355896Y-14358984D01*
X9355896Y-14358984D02*
X9317801Y-14358984D01*
X9317801Y-14358984D02*
X9298753Y-14368508D01*
X9298753Y-14368508D02*
X9289230Y-14378031D01*
X9289230Y-14378031D02*
X9279706Y-14397079D01*
X9279706Y-14397079D02*
X9279706Y-14444698D01*
X9279706Y-14444698D02*
X9289230Y-14463746D01*
X9289230Y-14463746D02*
X9298753Y-14473269D01*
X9298753Y-14473269D02*
X9317801Y-14482793D01*
X9317801Y-14482793D02*
X9355896Y-14482793D01*
X9355896Y-14482793D02*
X9374944Y-14473269D01*
X9374944Y-14473269D02*
X9384468Y-14463746D01*
X9384468Y-14463746D02*
X9393991Y-14444698D01*
X9489230Y-14558984D02*
X9527325Y-14558984D01*
X9527325Y-14558984D02*
X9546372Y-14549460D01*
X9546372Y-14549460D02*
X9555896Y-14539936D01*
X9555896Y-14539936D02*
X9574944Y-14511365D01*
X9574944Y-14511365D02*
X9584468Y-14473269D01*
X9584468Y-14473269D02*
X9584468Y-14397079D01*
X9584468Y-14397079D02*
X9574944Y-14378031D01*
X9574944Y-14378031D02*
X9565420Y-14368508D01*
X9565420Y-14368508D02*
X9546372Y-14358984D01*
X9546372Y-14358984D02*
X9508277Y-14358984D01*
X9508277Y-14358984D02*
X9489230Y-14368508D01*
X9489230Y-14368508D02*
X9479706Y-14378031D01*
X9479706Y-14378031D02*
X9470182Y-14397079D01*
X9470182Y-14397079D02*
X9470182Y-14444698D01*
X9470182Y-14444698D02*
X9479706Y-14463746D01*
X9479706Y-14463746D02*
X9489230Y-14473269D01*
X9489230Y-14473269D02*
X9508277Y-14482793D01*
X9508277Y-14482793D02*
X9546372Y-14482793D01*
X9546372Y-14482793D02*
X9565420Y-14473269D01*
X9565420Y-14473269D02*
X9574944Y-14463746D01*
X9574944Y-14463746D02*
X9584468Y-14444698D01*
X9822563Y-14558984D02*
X9822563Y-14358984D01*
X9908277Y-14558984D02*
X9908277Y-14454222D01*
X9908277Y-14454222D02*
X9898753Y-14435174D01*
X9898753Y-14435174D02*
X9879706Y-14425650D01*
X9879706Y-14425650D02*
X9851134Y-14425650D01*
X9851134Y-14425650D02*
X9832087Y-14435174D01*
X9832087Y-14435174D02*
X9822563Y-14444698D01*
X10032087Y-14558984D02*
X10013039Y-14549460D01*
X10013039Y-14549460D02*
X10003515Y-14539936D01*
X10003515Y-14539936D02*
X9993992Y-14520888D01*
X9993992Y-14520888D02*
X9993992Y-14463746D01*
X9993992Y-14463746D02*
X10003515Y-14444698D01*
X10003515Y-14444698D02*
X10013039Y-14435174D01*
X10013039Y-14435174D02*
X10032087Y-14425650D01*
X10032087Y-14425650D02*
X10060658Y-14425650D01*
X10060658Y-14425650D02*
X10079706Y-14435174D01*
X10079706Y-14435174D02*
X10089230Y-14444698D01*
X10089230Y-14444698D02*
X10098753Y-14463746D01*
X10098753Y-14463746D02*
X10098753Y-14520888D01*
X10098753Y-14520888D02*
X10089230Y-14539936D01*
X10089230Y-14539936D02*
X10079706Y-14549460D01*
X10079706Y-14549460D02*
X10060658Y-14558984D01*
X10060658Y-14558984D02*
X10032087Y-14558984D01*
X10213039Y-14558984D02*
X10193992Y-14549460D01*
X10193992Y-14549460D02*
X10184468Y-14530412D01*
X10184468Y-14530412D02*
X10184468Y-14358984D01*
X10365420Y-14549460D02*
X10346373Y-14558984D01*
X10346373Y-14558984D02*
X10308277Y-14558984D01*
X10308277Y-14558984D02*
X10289230Y-14549460D01*
X10289230Y-14549460D02*
X10279706Y-14530412D01*
X10279706Y-14530412D02*
X10279706Y-14454222D01*
X10279706Y-14454222D02*
X10289230Y-14435174D01*
X10289230Y-14435174D02*
X10308277Y-14425650D01*
X10308277Y-14425650D02*
X10346373Y-14425650D01*
X10346373Y-14425650D02*
X10365420Y-14435174D01*
X10365420Y-14435174D02*
X10374944Y-14454222D01*
X10374944Y-14454222D02*
X10374944Y-14473269D01*
X10374944Y-14473269D02*
X10279706Y-14492317D01*
X10451134Y-14549460D02*
X10470182Y-14558984D01*
X10470182Y-14558984D02*
X10508277Y-14558984D01*
X10508277Y-14558984D02*
X10527325Y-14549460D01*
X10527325Y-14549460D02*
X10536849Y-14530412D01*
X10536849Y-14530412D02*
X10536849Y-14520888D01*
X10536849Y-14520888D02*
X10527325Y-14501841D01*
X10527325Y-14501841D02*
X10508277Y-14492317D01*
X10508277Y-14492317D02*
X10479706Y-14492317D01*
X10479706Y-14492317D02*
X10460658Y-14482793D01*
X10460658Y-14482793D02*
X10451134Y-14463746D01*
X10451134Y-14463746D02*
X10451134Y-14454222D01*
X10451134Y-14454222D02*
X10460658Y-14435174D01*
X10460658Y-14435174D02*
X10479706Y-14425650D01*
X10479706Y-14425650D02*
X10508277Y-14425650D01*
X10508277Y-14425650D02*
X10527325Y-14435174D01*
X10603515Y-14635174D02*
X10613039Y-14625650D01*
X10613039Y-14625650D02*
X10632087Y-14597079D01*
X10632087Y-14597079D02*
X10641611Y-14578031D01*
X10641611Y-14578031D02*
X10651134Y-14549460D01*
X10651134Y-14549460D02*
X10660658Y-14501841D01*
X10660658Y-14501841D02*
X10660658Y-14463746D01*
X10660658Y-14463746D02*
X10651134Y-14416127D01*
X10651134Y-14416127D02*
X10641611Y-14387555D01*
X10641611Y-14387555D02*
X10632087Y-14368508D01*
X10632087Y-14368508D02*
X10613039Y-14339936D01*
X10613039Y-14339936D02*
X10603515Y-14330412D01*
D12*
X5447500Y-14731500D02*
G75*
G02*
X5367500Y-14731500I-40000J0D01*
G01*
X5367500Y-14731500D02*
G75*
G02*
X5447500Y-14731500I40000J0D01*
G01*
D11*
X5746372Y-14622984D02*
X5765420Y-14622984D01*
X5765420Y-14622984D02*
X5784467Y-14632508D01*
X5784467Y-14632508D02*
X5793991Y-14642031D01*
X5793991Y-14642031D02*
X5803515Y-14661079D01*
X5803515Y-14661079D02*
X5813039Y-14699174D01*
X5813039Y-14699174D02*
X5813039Y-14746793D01*
X5813039Y-14746793D02*
X5803515Y-14784888D01*
X5803515Y-14784888D02*
X5793991Y-14803936D01*
X5793991Y-14803936D02*
X5784467Y-14813460D01*
X5784467Y-14813460D02*
X5765420Y-14822984D01*
X5765420Y-14822984D02*
X5746372Y-14822984D01*
X5746372Y-14822984D02*
X5727324Y-14813460D01*
X5727324Y-14813460D02*
X5717801Y-14803936D01*
X5717801Y-14803936D02*
X5708277Y-14784888D01*
X5708277Y-14784888D02*
X5698753Y-14746793D01*
X5698753Y-14746793D02*
X5698753Y-14699174D01*
X5698753Y-14699174D02*
X5708277Y-14661079D01*
X5708277Y-14661079D02*
X5717801Y-14642031D01*
X5717801Y-14642031D02*
X5727324Y-14632508D01*
X5727324Y-14632508D02*
X5746372Y-14622984D01*
X5898753Y-14803936D02*
X5908277Y-14813460D01*
X5908277Y-14813460D02*
X5898753Y-14822984D01*
X5898753Y-14822984D02*
X5889229Y-14813460D01*
X5889229Y-14813460D02*
X5898753Y-14803936D01*
X5898753Y-14803936D02*
X5898753Y-14822984D01*
X6022562Y-14708698D02*
X6003515Y-14699174D01*
X6003515Y-14699174D02*
X5993991Y-14689650D01*
X5993991Y-14689650D02*
X5984467Y-14670603D01*
X5984467Y-14670603D02*
X5984467Y-14661079D01*
X5984467Y-14661079D02*
X5993991Y-14642031D01*
X5993991Y-14642031D02*
X6003515Y-14632508D01*
X6003515Y-14632508D02*
X6022562Y-14622984D01*
X6022562Y-14622984D02*
X6060658Y-14622984D01*
X6060658Y-14622984D02*
X6079705Y-14632508D01*
X6079705Y-14632508D02*
X6089229Y-14642031D01*
X6089229Y-14642031D02*
X6098753Y-14661079D01*
X6098753Y-14661079D02*
X6098753Y-14670603D01*
X6098753Y-14670603D02*
X6089229Y-14689650D01*
X6089229Y-14689650D02*
X6079705Y-14699174D01*
X6079705Y-14699174D02*
X6060658Y-14708698D01*
X6060658Y-14708698D02*
X6022562Y-14708698D01*
X6022562Y-14708698D02*
X6003515Y-14718222D01*
X6003515Y-14718222D02*
X5993991Y-14727746D01*
X5993991Y-14727746D02*
X5984467Y-14746793D01*
X5984467Y-14746793D02*
X5984467Y-14784888D01*
X5984467Y-14784888D02*
X5993991Y-14803936D01*
X5993991Y-14803936D02*
X6003515Y-14813460D01*
X6003515Y-14813460D02*
X6022562Y-14822984D01*
X6022562Y-14822984D02*
X6060658Y-14822984D01*
X6060658Y-14822984D02*
X6079705Y-14813460D01*
X6079705Y-14813460D02*
X6089229Y-14803936D01*
X6089229Y-14803936D02*
X6098753Y-14784888D01*
X6098753Y-14784888D02*
X6098753Y-14746793D01*
X6098753Y-14746793D02*
X6089229Y-14727746D01*
X6089229Y-14727746D02*
X6079705Y-14718222D01*
X6079705Y-14718222D02*
X6060658Y-14708698D01*
X6222562Y-14622984D02*
X6241610Y-14622984D01*
X6241610Y-14622984D02*
X6260658Y-14632508D01*
X6260658Y-14632508D02*
X6270182Y-14642031D01*
X6270182Y-14642031D02*
X6279705Y-14661079D01*
X6279705Y-14661079D02*
X6289229Y-14699174D01*
X6289229Y-14699174D02*
X6289229Y-14746793D01*
X6289229Y-14746793D02*
X6279705Y-14784888D01*
X6279705Y-14784888D02*
X6270182Y-14803936D01*
X6270182Y-14803936D02*
X6260658Y-14813460D01*
X6260658Y-14813460D02*
X6241610Y-14822984D01*
X6241610Y-14822984D02*
X6222562Y-14822984D01*
X6222562Y-14822984D02*
X6203515Y-14813460D01*
X6203515Y-14813460D02*
X6193991Y-14803936D01*
X6193991Y-14803936D02*
X6184467Y-14784888D01*
X6184467Y-14784888D02*
X6174943Y-14746793D01*
X6174943Y-14746793D02*
X6174943Y-14699174D01*
X6174943Y-14699174D02*
X6184467Y-14661079D01*
X6184467Y-14661079D02*
X6193991Y-14642031D01*
X6193991Y-14642031D02*
X6203515Y-14632508D01*
X6203515Y-14632508D02*
X6222562Y-14622984D01*
X6413039Y-14622984D02*
X6432086Y-14622984D01*
X6432086Y-14622984D02*
X6451134Y-14632508D01*
X6451134Y-14632508D02*
X6460658Y-14642031D01*
X6460658Y-14642031D02*
X6470182Y-14661079D01*
X6470182Y-14661079D02*
X6479705Y-14699174D01*
X6479705Y-14699174D02*
X6479705Y-14746793D01*
X6479705Y-14746793D02*
X6470182Y-14784888D01*
X6470182Y-14784888D02*
X6460658Y-14803936D01*
X6460658Y-14803936D02*
X6451134Y-14813460D01*
X6451134Y-14813460D02*
X6432086Y-14822984D01*
X6432086Y-14822984D02*
X6413039Y-14822984D01*
X6413039Y-14822984D02*
X6393991Y-14813460D01*
X6393991Y-14813460D02*
X6384467Y-14803936D01*
X6384467Y-14803936D02*
X6374943Y-14784888D01*
X6374943Y-14784888D02*
X6365420Y-14746793D01*
X6365420Y-14746793D02*
X6365420Y-14699174D01*
X6365420Y-14699174D02*
X6374943Y-14661079D01*
X6374943Y-14661079D02*
X6384467Y-14642031D01*
X6384467Y-14642031D02*
X6393991Y-14632508D01*
X6393991Y-14632508D02*
X6413039Y-14622984D01*
X6565420Y-14822984D02*
X6565420Y-14689650D01*
X6565420Y-14708698D02*
X6574943Y-14699174D01*
X6574943Y-14699174D02*
X6593991Y-14689650D01*
X6593991Y-14689650D02*
X6622563Y-14689650D01*
X6622563Y-14689650D02*
X6641610Y-14699174D01*
X6641610Y-14699174D02*
X6651134Y-14718222D01*
X6651134Y-14718222D02*
X6651134Y-14822984D01*
X6651134Y-14718222D02*
X6660658Y-14699174D01*
X6660658Y-14699174D02*
X6679705Y-14689650D01*
X6679705Y-14689650D02*
X6708277Y-14689650D01*
X6708277Y-14689650D02*
X6727324Y-14699174D01*
X6727324Y-14699174D02*
X6736848Y-14718222D01*
X6736848Y-14718222D02*
X6736848Y-14822984D01*
X6832086Y-14822984D02*
X6832086Y-14689650D01*
X6832086Y-14708698D02*
X6841610Y-14699174D01*
X6841610Y-14699174D02*
X6860658Y-14689650D01*
X6860658Y-14689650D02*
X6889229Y-14689650D01*
X6889229Y-14689650D02*
X6908277Y-14699174D01*
X6908277Y-14699174D02*
X6917801Y-14718222D01*
X6917801Y-14718222D02*
X6917801Y-14822984D01*
X6917801Y-14718222D02*
X6927324Y-14699174D01*
X6927324Y-14699174D02*
X6946372Y-14689650D01*
X6946372Y-14689650D02*
X6974943Y-14689650D01*
X6974943Y-14689650D02*
X6993991Y-14699174D01*
X6993991Y-14699174D02*
X7003515Y-14718222D01*
X7003515Y-14718222D02*
X7003515Y-14822984D01*
X7393991Y-14613460D02*
X7222563Y-14870603D01*
X7651134Y-14622984D02*
X7670182Y-14622984D01*
X7670182Y-14622984D02*
X7689229Y-14632508D01*
X7689229Y-14632508D02*
X7698753Y-14642031D01*
X7698753Y-14642031D02*
X7708277Y-14661079D01*
X7708277Y-14661079D02*
X7717801Y-14699174D01*
X7717801Y-14699174D02*
X7717801Y-14746793D01*
X7717801Y-14746793D02*
X7708277Y-14784888D01*
X7708277Y-14784888D02*
X7698753Y-14803936D01*
X7698753Y-14803936D02*
X7689229Y-14813460D01*
X7689229Y-14813460D02*
X7670182Y-14822984D01*
X7670182Y-14822984D02*
X7651134Y-14822984D01*
X7651134Y-14822984D02*
X7632086Y-14813460D01*
X7632086Y-14813460D02*
X7622563Y-14803936D01*
X7622563Y-14803936D02*
X7613039Y-14784888D01*
X7613039Y-14784888D02*
X7603515Y-14746793D01*
X7603515Y-14746793D02*
X7603515Y-14699174D01*
X7603515Y-14699174D02*
X7613039Y-14661079D01*
X7613039Y-14661079D02*
X7622563Y-14642031D01*
X7622563Y-14642031D02*
X7632086Y-14632508D01*
X7632086Y-14632508D02*
X7651134Y-14622984D01*
X7803515Y-14803936D02*
X7813039Y-14813460D01*
X7813039Y-14813460D02*
X7803515Y-14822984D01*
X7803515Y-14822984D02*
X7793991Y-14813460D01*
X7793991Y-14813460D02*
X7803515Y-14803936D01*
X7803515Y-14803936D02*
X7803515Y-14822984D01*
X7936848Y-14622984D02*
X7955896Y-14622984D01*
X7955896Y-14622984D02*
X7974944Y-14632508D01*
X7974944Y-14632508D02*
X7984467Y-14642031D01*
X7984467Y-14642031D02*
X7993991Y-14661079D01*
X7993991Y-14661079D02*
X8003515Y-14699174D01*
X8003515Y-14699174D02*
X8003515Y-14746793D01*
X8003515Y-14746793D02*
X7993991Y-14784888D01*
X7993991Y-14784888D02*
X7984467Y-14803936D01*
X7984467Y-14803936D02*
X7974944Y-14813460D01*
X7974944Y-14813460D02*
X7955896Y-14822984D01*
X7955896Y-14822984D02*
X7936848Y-14822984D01*
X7936848Y-14822984D02*
X7917801Y-14813460D01*
X7917801Y-14813460D02*
X7908277Y-14803936D01*
X7908277Y-14803936D02*
X7898753Y-14784888D01*
X7898753Y-14784888D02*
X7889229Y-14746793D01*
X7889229Y-14746793D02*
X7889229Y-14699174D01*
X7889229Y-14699174D02*
X7898753Y-14661079D01*
X7898753Y-14661079D02*
X7908277Y-14642031D01*
X7908277Y-14642031D02*
X7917801Y-14632508D01*
X7917801Y-14632508D02*
X7936848Y-14622984D01*
X8070182Y-14622984D02*
X8193991Y-14622984D01*
X8193991Y-14622984D02*
X8127325Y-14699174D01*
X8127325Y-14699174D02*
X8155896Y-14699174D01*
X8155896Y-14699174D02*
X8174944Y-14708698D01*
X8174944Y-14708698D02*
X8184467Y-14718222D01*
X8184467Y-14718222D02*
X8193991Y-14737269D01*
X8193991Y-14737269D02*
X8193991Y-14784888D01*
X8193991Y-14784888D02*
X8184467Y-14803936D01*
X8184467Y-14803936D02*
X8174944Y-14813460D01*
X8174944Y-14813460D02*
X8155896Y-14822984D01*
X8155896Y-14822984D02*
X8098753Y-14822984D01*
X8098753Y-14822984D02*
X8079706Y-14813460D01*
X8079706Y-14813460D02*
X8070182Y-14803936D01*
X8384467Y-14822984D02*
X8270182Y-14822984D01*
X8327325Y-14822984D02*
X8327325Y-14622984D01*
X8327325Y-14622984D02*
X8308277Y-14651555D01*
X8308277Y-14651555D02*
X8289229Y-14670603D01*
X8289229Y-14670603D02*
X8270182Y-14680127D01*
X8565420Y-14622984D02*
X8470182Y-14622984D01*
X8470182Y-14622984D02*
X8460658Y-14718222D01*
X8460658Y-14718222D02*
X8470182Y-14708698D01*
X8470182Y-14708698D02*
X8489229Y-14699174D01*
X8489229Y-14699174D02*
X8536849Y-14699174D01*
X8536849Y-14699174D02*
X8555896Y-14708698D01*
X8555896Y-14708698D02*
X8565420Y-14718222D01*
X8565420Y-14718222D02*
X8574944Y-14737269D01*
X8574944Y-14737269D02*
X8574944Y-14784888D01*
X8574944Y-14784888D02*
X8565420Y-14803936D01*
X8565420Y-14803936D02*
X8555896Y-14813460D01*
X8555896Y-14813460D02*
X8536849Y-14822984D01*
X8536849Y-14822984D02*
X8489229Y-14822984D01*
X8489229Y-14822984D02*
X8470182Y-14813460D01*
X8470182Y-14813460D02*
X8460658Y-14803936D01*
X8651134Y-14622984D02*
X8651134Y-14661079D01*
X8727325Y-14622984D02*
X8727325Y-14661079D01*
X9022563Y-14899174D02*
X9013039Y-14889650D01*
X9013039Y-14889650D02*
X8993991Y-14861079D01*
X8993991Y-14861079D02*
X8984468Y-14842031D01*
X8984468Y-14842031D02*
X8974944Y-14813460D01*
X8974944Y-14813460D02*
X8965420Y-14765841D01*
X8965420Y-14765841D02*
X8965420Y-14727746D01*
X8965420Y-14727746D02*
X8974944Y-14680127D01*
X8974944Y-14680127D02*
X8984468Y-14651555D01*
X8984468Y-14651555D02*
X8993991Y-14632508D01*
X8993991Y-14632508D02*
X9013039Y-14603936D01*
X9013039Y-14603936D02*
X9022563Y-14594412D01*
X9127325Y-14708698D02*
X9108277Y-14699174D01*
X9108277Y-14699174D02*
X9098753Y-14689650D01*
X9098753Y-14689650D02*
X9089230Y-14670603D01*
X9089230Y-14670603D02*
X9089230Y-14661079D01*
X9089230Y-14661079D02*
X9098753Y-14642031D01*
X9098753Y-14642031D02*
X9108277Y-14632508D01*
X9108277Y-14632508D02*
X9127325Y-14622984D01*
X9127325Y-14622984D02*
X9165420Y-14622984D01*
X9165420Y-14622984D02*
X9184468Y-14632508D01*
X9184468Y-14632508D02*
X9193991Y-14642031D01*
X9193991Y-14642031D02*
X9203515Y-14661079D01*
X9203515Y-14661079D02*
X9203515Y-14670603D01*
X9203515Y-14670603D02*
X9193991Y-14689650D01*
X9193991Y-14689650D02*
X9184468Y-14699174D01*
X9184468Y-14699174D02*
X9165420Y-14708698D01*
X9165420Y-14708698D02*
X9127325Y-14708698D01*
X9127325Y-14708698D02*
X9108277Y-14718222D01*
X9108277Y-14718222D02*
X9098753Y-14727746D01*
X9098753Y-14727746D02*
X9089230Y-14746793D01*
X9089230Y-14746793D02*
X9089230Y-14784888D01*
X9089230Y-14784888D02*
X9098753Y-14803936D01*
X9098753Y-14803936D02*
X9108277Y-14813460D01*
X9108277Y-14813460D02*
X9127325Y-14822984D01*
X9127325Y-14822984D02*
X9165420Y-14822984D01*
X9165420Y-14822984D02*
X9184468Y-14813460D01*
X9184468Y-14813460D02*
X9193991Y-14803936D01*
X9193991Y-14803936D02*
X9203515Y-14784888D01*
X9203515Y-14784888D02*
X9203515Y-14746793D01*
X9203515Y-14746793D02*
X9193991Y-14727746D01*
X9193991Y-14727746D02*
X9184468Y-14718222D01*
X9184468Y-14718222D02*
X9165420Y-14708698D01*
X9374944Y-14689650D02*
X9374944Y-14822984D01*
X9327325Y-14613460D02*
X9279706Y-14756317D01*
X9279706Y-14756317D02*
X9403515Y-14756317D01*
X9632087Y-14822984D02*
X9632087Y-14622984D01*
X9717801Y-14822984D02*
X9717801Y-14718222D01*
X9717801Y-14718222D02*
X9708277Y-14699174D01*
X9708277Y-14699174D02*
X9689230Y-14689650D01*
X9689230Y-14689650D02*
X9660658Y-14689650D01*
X9660658Y-14689650D02*
X9641611Y-14699174D01*
X9641611Y-14699174D02*
X9632087Y-14708698D01*
X9841611Y-14822984D02*
X9822563Y-14813460D01*
X9822563Y-14813460D02*
X9813039Y-14803936D01*
X9813039Y-14803936D02*
X9803515Y-14784888D01*
X9803515Y-14784888D02*
X9803515Y-14727746D01*
X9803515Y-14727746D02*
X9813039Y-14708698D01*
X9813039Y-14708698D02*
X9822563Y-14699174D01*
X9822563Y-14699174D02*
X9841611Y-14689650D01*
X9841611Y-14689650D02*
X9870182Y-14689650D01*
X9870182Y-14689650D02*
X9889230Y-14699174D01*
X9889230Y-14699174D02*
X9898753Y-14708698D01*
X9898753Y-14708698D02*
X9908277Y-14727746D01*
X9908277Y-14727746D02*
X9908277Y-14784888D01*
X9908277Y-14784888D02*
X9898753Y-14803936D01*
X9898753Y-14803936D02*
X9889230Y-14813460D01*
X9889230Y-14813460D02*
X9870182Y-14822984D01*
X9870182Y-14822984D02*
X9841611Y-14822984D01*
X10022563Y-14822984D02*
X10003515Y-14813460D01*
X10003515Y-14813460D02*
X9993992Y-14794412D01*
X9993992Y-14794412D02*
X9993992Y-14622984D01*
X10174944Y-14813460D02*
X10155896Y-14822984D01*
X10155896Y-14822984D02*
X10117801Y-14822984D01*
X10117801Y-14822984D02*
X10098753Y-14813460D01*
X10098753Y-14813460D02*
X10089230Y-14794412D01*
X10089230Y-14794412D02*
X10089230Y-14718222D01*
X10089230Y-14718222D02*
X10098753Y-14699174D01*
X10098753Y-14699174D02*
X10117801Y-14689650D01*
X10117801Y-14689650D02*
X10155896Y-14689650D01*
X10155896Y-14689650D02*
X10174944Y-14699174D01*
X10174944Y-14699174D02*
X10184468Y-14718222D01*
X10184468Y-14718222D02*
X10184468Y-14737269D01*
X10184468Y-14737269D02*
X10089230Y-14756317D01*
X10260658Y-14813460D02*
X10279706Y-14822984D01*
X10279706Y-14822984D02*
X10317801Y-14822984D01*
X10317801Y-14822984D02*
X10336849Y-14813460D01*
X10336849Y-14813460D02*
X10346373Y-14794412D01*
X10346373Y-14794412D02*
X10346373Y-14784888D01*
X10346373Y-14784888D02*
X10336849Y-14765841D01*
X10336849Y-14765841D02*
X10317801Y-14756317D01*
X10317801Y-14756317D02*
X10289230Y-14756317D01*
X10289230Y-14756317D02*
X10270182Y-14746793D01*
X10270182Y-14746793D02*
X10260658Y-14727746D01*
X10260658Y-14727746D02*
X10260658Y-14718222D01*
X10260658Y-14718222D02*
X10270182Y-14699174D01*
X10270182Y-14699174D02*
X10289230Y-14689650D01*
X10289230Y-14689650D02*
X10317801Y-14689650D01*
X10317801Y-14689650D02*
X10336849Y-14699174D01*
X10413039Y-14899174D02*
X10422563Y-14889650D01*
X10422563Y-14889650D02*
X10441611Y-14861079D01*
X10441611Y-14861079D02*
X10451134Y-14842031D01*
X10451134Y-14842031D02*
X10460658Y-14813460D01*
X10460658Y-14813460D02*
X10470182Y-14765841D01*
X10470182Y-14765841D02*
X10470182Y-14727746D01*
X10470182Y-14727746D02*
X10460658Y-14680127D01*
X10460658Y-14680127D02*
X10451134Y-14651555D01*
X10451134Y-14651555D02*
X10441611Y-14632508D01*
X10441611Y-14632508D02*
X10422563Y-14603936D01*
X10422563Y-14603936D02*
X10413039Y-14594412D01*
D12*
X5405000Y-14953000D02*
X5405000Y-15038000D01*
X5362500Y-14995500D02*
X5447500Y-14995500D01*
D11*
X5746372Y-14886984D02*
X5765420Y-14886984D01*
X5765420Y-14886984D02*
X5784467Y-14896508D01*
X5784467Y-14896508D02*
X5793991Y-14906031D01*
X5793991Y-14906031D02*
X5803515Y-14925079D01*
X5803515Y-14925079D02*
X5813039Y-14963174D01*
X5813039Y-14963174D02*
X5813039Y-15010793D01*
X5813039Y-15010793D02*
X5803515Y-15048888D01*
X5803515Y-15048888D02*
X5793991Y-15067936D01*
X5793991Y-15067936D02*
X5784467Y-15077460D01*
X5784467Y-15077460D02*
X5765420Y-15086984D01*
X5765420Y-15086984D02*
X5746372Y-15086984D01*
X5746372Y-15086984D02*
X5727324Y-15077460D01*
X5727324Y-15077460D02*
X5717801Y-15067936D01*
X5717801Y-15067936D02*
X5708277Y-15048888D01*
X5708277Y-15048888D02*
X5698753Y-15010793D01*
X5698753Y-15010793D02*
X5698753Y-14963174D01*
X5698753Y-14963174D02*
X5708277Y-14925079D01*
X5708277Y-14925079D02*
X5717801Y-14906031D01*
X5717801Y-14906031D02*
X5727324Y-14896508D01*
X5727324Y-14896508D02*
X5746372Y-14886984D01*
X5898753Y-15067936D02*
X5908277Y-15077460D01*
X5908277Y-15077460D02*
X5898753Y-15086984D01*
X5898753Y-15086984D02*
X5889229Y-15077460D01*
X5889229Y-15077460D02*
X5898753Y-15067936D01*
X5898753Y-15067936D02*
X5898753Y-15086984D01*
X6022562Y-14972698D02*
X6003515Y-14963174D01*
X6003515Y-14963174D02*
X5993991Y-14953650D01*
X5993991Y-14953650D02*
X5984467Y-14934603D01*
X5984467Y-14934603D02*
X5984467Y-14925079D01*
X5984467Y-14925079D02*
X5993991Y-14906031D01*
X5993991Y-14906031D02*
X6003515Y-14896508D01*
X6003515Y-14896508D02*
X6022562Y-14886984D01*
X6022562Y-14886984D02*
X6060658Y-14886984D01*
X6060658Y-14886984D02*
X6079705Y-14896508D01*
X6079705Y-14896508D02*
X6089229Y-14906031D01*
X6089229Y-14906031D02*
X6098753Y-14925079D01*
X6098753Y-14925079D02*
X6098753Y-14934603D01*
X6098753Y-14934603D02*
X6089229Y-14953650D01*
X6089229Y-14953650D02*
X6079705Y-14963174D01*
X6079705Y-14963174D02*
X6060658Y-14972698D01*
X6060658Y-14972698D02*
X6022562Y-14972698D01*
X6022562Y-14972698D02*
X6003515Y-14982222D01*
X6003515Y-14982222D02*
X5993991Y-14991746D01*
X5993991Y-14991746D02*
X5984467Y-15010793D01*
X5984467Y-15010793D02*
X5984467Y-15048888D01*
X5984467Y-15048888D02*
X5993991Y-15067936D01*
X5993991Y-15067936D02*
X6003515Y-15077460D01*
X6003515Y-15077460D02*
X6022562Y-15086984D01*
X6022562Y-15086984D02*
X6060658Y-15086984D01*
X6060658Y-15086984D02*
X6079705Y-15077460D01*
X6079705Y-15077460D02*
X6089229Y-15067936D01*
X6089229Y-15067936D02*
X6098753Y-15048888D01*
X6098753Y-15048888D02*
X6098753Y-15010793D01*
X6098753Y-15010793D02*
X6089229Y-14991746D01*
X6089229Y-14991746D02*
X6079705Y-14982222D01*
X6079705Y-14982222D02*
X6060658Y-14972698D01*
X6279705Y-14886984D02*
X6184467Y-14886984D01*
X6184467Y-14886984D02*
X6174943Y-14982222D01*
X6174943Y-14982222D02*
X6184467Y-14972698D01*
X6184467Y-14972698D02*
X6203515Y-14963174D01*
X6203515Y-14963174D02*
X6251134Y-14963174D01*
X6251134Y-14963174D02*
X6270182Y-14972698D01*
X6270182Y-14972698D02*
X6279705Y-14982222D01*
X6279705Y-14982222D02*
X6289229Y-15001269D01*
X6289229Y-15001269D02*
X6289229Y-15048888D01*
X6289229Y-15048888D02*
X6279705Y-15067936D01*
X6279705Y-15067936D02*
X6270182Y-15077460D01*
X6270182Y-15077460D02*
X6251134Y-15086984D01*
X6251134Y-15086984D02*
X6203515Y-15086984D01*
X6203515Y-15086984D02*
X6184467Y-15077460D01*
X6184467Y-15077460D02*
X6174943Y-15067936D01*
X6413039Y-14886984D02*
X6432086Y-14886984D01*
X6432086Y-14886984D02*
X6451134Y-14896508D01*
X6451134Y-14896508D02*
X6460658Y-14906031D01*
X6460658Y-14906031D02*
X6470182Y-14925079D01*
X6470182Y-14925079D02*
X6479705Y-14963174D01*
X6479705Y-14963174D02*
X6479705Y-15010793D01*
X6479705Y-15010793D02*
X6470182Y-15048888D01*
X6470182Y-15048888D02*
X6460658Y-15067936D01*
X6460658Y-15067936D02*
X6451134Y-15077460D01*
X6451134Y-15077460D02*
X6432086Y-15086984D01*
X6432086Y-15086984D02*
X6413039Y-15086984D01*
X6413039Y-15086984D02*
X6393991Y-15077460D01*
X6393991Y-15077460D02*
X6384467Y-15067936D01*
X6384467Y-15067936D02*
X6374943Y-15048888D01*
X6374943Y-15048888D02*
X6365420Y-15010793D01*
X6365420Y-15010793D02*
X6365420Y-14963174D01*
X6365420Y-14963174D02*
X6374943Y-14925079D01*
X6374943Y-14925079D02*
X6384467Y-14906031D01*
X6384467Y-14906031D02*
X6393991Y-14896508D01*
X6393991Y-14896508D02*
X6413039Y-14886984D01*
X6565420Y-15086984D02*
X6565420Y-14953650D01*
X6565420Y-14972698D02*
X6574943Y-14963174D01*
X6574943Y-14963174D02*
X6593991Y-14953650D01*
X6593991Y-14953650D02*
X6622563Y-14953650D01*
X6622563Y-14953650D02*
X6641610Y-14963174D01*
X6641610Y-14963174D02*
X6651134Y-14982222D01*
X6651134Y-14982222D02*
X6651134Y-15086984D01*
X6651134Y-14982222D02*
X6660658Y-14963174D01*
X6660658Y-14963174D02*
X6679705Y-14953650D01*
X6679705Y-14953650D02*
X6708277Y-14953650D01*
X6708277Y-14953650D02*
X6727324Y-14963174D01*
X6727324Y-14963174D02*
X6736848Y-14982222D01*
X6736848Y-14982222D02*
X6736848Y-15086984D01*
X6832086Y-15086984D02*
X6832086Y-14953650D01*
X6832086Y-14972698D02*
X6841610Y-14963174D01*
X6841610Y-14963174D02*
X6860658Y-14953650D01*
X6860658Y-14953650D02*
X6889229Y-14953650D01*
X6889229Y-14953650D02*
X6908277Y-14963174D01*
X6908277Y-14963174D02*
X6917801Y-14982222D01*
X6917801Y-14982222D02*
X6917801Y-15086984D01*
X6917801Y-14982222D02*
X6927324Y-14963174D01*
X6927324Y-14963174D02*
X6946372Y-14953650D01*
X6946372Y-14953650D02*
X6974943Y-14953650D01*
X6974943Y-14953650D02*
X6993991Y-14963174D01*
X6993991Y-14963174D02*
X7003515Y-14982222D01*
X7003515Y-14982222D02*
X7003515Y-15086984D01*
X7393991Y-14877460D02*
X7222563Y-15134603D01*
X7651134Y-14886984D02*
X7670182Y-14886984D01*
X7670182Y-14886984D02*
X7689229Y-14896508D01*
X7689229Y-14896508D02*
X7698753Y-14906031D01*
X7698753Y-14906031D02*
X7708277Y-14925079D01*
X7708277Y-14925079D02*
X7717801Y-14963174D01*
X7717801Y-14963174D02*
X7717801Y-15010793D01*
X7717801Y-15010793D02*
X7708277Y-15048888D01*
X7708277Y-15048888D02*
X7698753Y-15067936D01*
X7698753Y-15067936D02*
X7689229Y-15077460D01*
X7689229Y-15077460D02*
X7670182Y-15086984D01*
X7670182Y-15086984D02*
X7651134Y-15086984D01*
X7651134Y-15086984D02*
X7632086Y-15077460D01*
X7632086Y-15077460D02*
X7622563Y-15067936D01*
X7622563Y-15067936D02*
X7613039Y-15048888D01*
X7613039Y-15048888D02*
X7603515Y-15010793D01*
X7603515Y-15010793D02*
X7603515Y-14963174D01*
X7603515Y-14963174D02*
X7613039Y-14925079D01*
X7613039Y-14925079D02*
X7622563Y-14906031D01*
X7622563Y-14906031D02*
X7632086Y-14896508D01*
X7632086Y-14896508D02*
X7651134Y-14886984D01*
X7803515Y-15067936D02*
X7813039Y-15077460D01*
X7813039Y-15077460D02*
X7803515Y-15086984D01*
X7803515Y-15086984D02*
X7793991Y-15077460D01*
X7793991Y-15077460D02*
X7803515Y-15067936D01*
X7803515Y-15067936D02*
X7803515Y-15086984D01*
X7936848Y-14886984D02*
X7955896Y-14886984D01*
X7955896Y-14886984D02*
X7974944Y-14896508D01*
X7974944Y-14896508D02*
X7984467Y-14906031D01*
X7984467Y-14906031D02*
X7993991Y-14925079D01*
X7993991Y-14925079D02*
X8003515Y-14963174D01*
X8003515Y-14963174D02*
X8003515Y-15010793D01*
X8003515Y-15010793D02*
X7993991Y-15048888D01*
X7993991Y-15048888D02*
X7984467Y-15067936D01*
X7984467Y-15067936D02*
X7974944Y-15077460D01*
X7974944Y-15077460D02*
X7955896Y-15086984D01*
X7955896Y-15086984D02*
X7936848Y-15086984D01*
X7936848Y-15086984D02*
X7917801Y-15077460D01*
X7917801Y-15077460D02*
X7908277Y-15067936D01*
X7908277Y-15067936D02*
X7898753Y-15048888D01*
X7898753Y-15048888D02*
X7889229Y-15010793D01*
X7889229Y-15010793D02*
X7889229Y-14963174D01*
X7889229Y-14963174D02*
X7898753Y-14925079D01*
X7898753Y-14925079D02*
X7908277Y-14906031D01*
X7908277Y-14906031D02*
X7917801Y-14896508D01*
X7917801Y-14896508D02*
X7936848Y-14886984D01*
X8070182Y-14886984D02*
X8193991Y-14886984D01*
X8193991Y-14886984D02*
X8127325Y-14963174D01*
X8127325Y-14963174D02*
X8155896Y-14963174D01*
X8155896Y-14963174D02*
X8174944Y-14972698D01*
X8174944Y-14972698D02*
X8184467Y-14982222D01*
X8184467Y-14982222D02*
X8193991Y-15001269D01*
X8193991Y-15001269D02*
X8193991Y-15048888D01*
X8193991Y-15048888D02*
X8184467Y-15067936D01*
X8184467Y-15067936D02*
X8174944Y-15077460D01*
X8174944Y-15077460D02*
X8155896Y-15086984D01*
X8155896Y-15086984D02*
X8098753Y-15086984D01*
X8098753Y-15086984D02*
X8079706Y-15077460D01*
X8079706Y-15077460D02*
X8070182Y-15067936D01*
X8260658Y-14886984D02*
X8384467Y-14886984D01*
X8384467Y-14886984D02*
X8317801Y-14963174D01*
X8317801Y-14963174D02*
X8346372Y-14963174D01*
X8346372Y-14963174D02*
X8365420Y-14972698D01*
X8365420Y-14972698D02*
X8374944Y-14982222D01*
X8374944Y-14982222D02*
X8384467Y-15001269D01*
X8384467Y-15001269D02*
X8384467Y-15048888D01*
X8384467Y-15048888D02*
X8374944Y-15067936D01*
X8374944Y-15067936D02*
X8365420Y-15077460D01*
X8365420Y-15077460D02*
X8346372Y-15086984D01*
X8346372Y-15086984D02*
X8289229Y-15086984D01*
X8289229Y-15086984D02*
X8270182Y-15077460D01*
X8270182Y-15077460D02*
X8260658Y-15067936D01*
X8565420Y-14886984D02*
X8470182Y-14886984D01*
X8470182Y-14886984D02*
X8460658Y-14982222D01*
X8460658Y-14982222D02*
X8470182Y-14972698D01*
X8470182Y-14972698D02*
X8489229Y-14963174D01*
X8489229Y-14963174D02*
X8536849Y-14963174D01*
X8536849Y-14963174D02*
X8555896Y-14972698D01*
X8555896Y-14972698D02*
X8565420Y-14982222D01*
X8565420Y-14982222D02*
X8574944Y-15001269D01*
X8574944Y-15001269D02*
X8574944Y-15048888D01*
X8574944Y-15048888D02*
X8565420Y-15067936D01*
X8565420Y-15067936D02*
X8555896Y-15077460D01*
X8555896Y-15077460D02*
X8536849Y-15086984D01*
X8536849Y-15086984D02*
X8489229Y-15086984D01*
X8489229Y-15086984D02*
X8470182Y-15077460D01*
X8470182Y-15077460D02*
X8460658Y-15067936D01*
X8651134Y-14886984D02*
X8651134Y-14925079D01*
X8727325Y-14886984D02*
X8727325Y-14925079D01*
X9022563Y-15163174D02*
X9013039Y-15153650D01*
X9013039Y-15153650D02*
X8993991Y-15125079D01*
X8993991Y-15125079D02*
X8984468Y-15106031D01*
X8984468Y-15106031D02*
X8974944Y-15077460D01*
X8974944Y-15077460D02*
X8965420Y-15029841D01*
X8965420Y-15029841D02*
X8965420Y-14991746D01*
X8965420Y-14991746D02*
X8974944Y-14944127D01*
X8974944Y-14944127D02*
X8984468Y-14915555D01*
X8984468Y-14915555D02*
X8993991Y-14896508D01*
X8993991Y-14896508D02*
X9013039Y-14867936D01*
X9013039Y-14867936D02*
X9022563Y-14858412D01*
X9203515Y-15086984D02*
X9089230Y-15086984D01*
X9146372Y-15086984D02*
X9146372Y-14886984D01*
X9146372Y-14886984D02*
X9127325Y-14915555D01*
X9127325Y-14915555D02*
X9108277Y-14934603D01*
X9108277Y-14934603D02*
X9089230Y-14944127D01*
X9374944Y-14886984D02*
X9336849Y-14886984D01*
X9336849Y-14886984D02*
X9317801Y-14896508D01*
X9317801Y-14896508D02*
X9308277Y-14906031D01*
X9308277Y-14906031D02*
X9289230Y-14934603D01*
X9289230Y-14934603D02*
X9279706Y-14972698D01*
X9279706Y-14972698D02*
X9279706Y-15048888D01*
X9279706Y-15048888D02*
X9289230Y-15067936D01*
X9289230Y-15067936D02*
X9298753Y-15077460D01*
X9298753Y-15077460D02*
X9317801Y-15086984D01*
X9317801Y-15086984D02*
X9355896Y-15086984D01*
X9355896Y-15086984D02*
X9374944Y-15077460D01*
X9374944Y-15077460D02*
X9384468Y-15067936D01*
X9384468Y-15067936D02*
X9393991Y-15048888D01*
X9393991Y-15048888D02*
X9393991Y-15001269D01*
X9393991Y-15001269D02*
X9384468Y-14982222D01*
X9384468Y-14982222D02*
X9374944Y-14972698D01*
X9374944Y-14972698D02*
X9355896Y-14963174D01*
X9355896Y-14963174D02*
X9317801Y-14963174D01*
X9317801Y-14963174D02*
X9298753Y-14972698D01*
X9298753Y-14972698D02*
X9289230Y-14982222D01*
X9289230Y-14982222D02*
X9279706Y-15001269D01*
X9632087Y-15086984D02*
X9632087Y-14886984D01*
X9717801Y-15086984D02*
X9717801Y-14982222D01*
X9717801Y-14982222D02*
X9708277Y-14963174D01*
X9708277Y-14963174D02*
X9689230Y-14953650D01*
X9689230Y-14953650D02*
X9660658Y-14953650D01*
X9660658Y-14953650D02*
X9641611Y-14963174D01*
X9641611Y-14963174D02*
X9632087Y-14972698D01*
X9841611Y-15086984D02*
X9822563Y-15077460D01*
X9822563Y-15077460D02*
X9813039Y-15067936D01*
X9813039Y-15067936D02*
X9803515Y-15048888D01*
X9803515Y-15048888D02*
X9803515Y-14991746D01*
X9803515Y-14991746D02*
X9813039Y-14972698D01*
X9813039Y-14972698D02*
X9822563Y-14963174D01*
X9822563Y-14963174D02*
X9841611Y-14953650D01*
X9841611Y-14953650D02*
X9870182Y-14953650D01*
X9870182Y-14953650D02*
X9889230Y-14963174D01*
X9889230Y-14963174D02*
X9898753Y-14972698D01*
X9898753Y-14972698D02*
X9908277Y-14991746D01*
X9908277Y-14991746D02*
X9908277Y-15048888D01*
X9908277Y-15048888D02*
X9898753Y-15067936D01*
X9898753Y-15067936D02*
X9889230Y-15077460D01*
X9889230Y-15077460D02*
X9870182Y-15086984D01*
X9870182Y-15086984D02*
X9841611Y-15086984D01*
X10022563Y-15086984D02*
X10003515Y-15077460D01*
X10003515Y-15077460D02*
X9993992Y-15058412D01*
X9993992Y-15058412D02*
X9993992Y-14886984D01*
X10174944Y-15077460D02*
X10155896Y-15086984D01*
X10155896Y-15086984D02*
X10117801Y-15086984D01*
X10117801Y-15086984D02*
X10098753Y-15077460D01*
X10098753Y-15077460D02*
X10089230Y-15058412D01*
X10089230Y-15058412D02*
X10089230Y-14982222D01*
X10089230Y-14982222D02*
X10098753Y-14963174D01*
X10098753Y-14963174D02*
X10117801Y-14953650D01*
X10117801Y-14953650D02*
X10155896Y-14953650D01*
X10155896Y-14953650D02*
X10174944Y-14963174D01*
X10174944Y-14963174D02*
X10184468Y-14982222D01*
X10184468Y-14982222D02*
X10184468Y-15001269D01*
X10184468Y-15001269D02*
X10089230Y-15020317D01*
X10260658Y-15077460D02*
X10279706Y-15086984D01*
X10279706Y-15086984D02*
X10317801Y-15086984D01*
X10317801Y-15086984D02*
X10336849Y-15077460D01*
X10336849Y-15077460D02*
X10346373Y-15058412D01*
X10346373Y-15058412D02*
X10346373Y-15048888D01*
X10346373Y-15048888D02*
X10336849Y-15029841D01*
X10336849Y-15029841D02*
X10317801Y-15020317D01*
X10317801Y-15020317D02*
X10289230Y-15020317D01*
X10289230Y-15020317D02*
X10270182Y-15010793D01*
X10270182Y-15010793D02*
X10260658Y-14991746D01*
X10260658Y-14991746D02*
X10260658Y-14982222D01*
X10260658Y-14982222D02*
X10270182Y-14963174D01*
X10270182Y-14963174D02*
X10289230Y-14953650D01*
X10289230Y-14953650D02*
X10317801Y-14953650D01*
X10317801Y-14953650D02*
X10336849Y-14963174D01*
X10413039Y-15163174D02*
X10422563Y-15153650D01*
X10422563Y-15153650D02*
X10441611Y-15125079D01*
X10441611Y-15125079D02*
X10451134Y-15106031D01*
X10451134Y-15106031D02*
X10460658Y-15077460D01*
X10460658Y-15077460D02*
X10470182Y-15029841D01*
X10470182Y-15029841D02*
X10470182Y-14991746D01*
X10470182Y-14991746D02*
X10460658Y-14944127D01*
X10460658Y-14944127D02*
X10451134Y-14915555D01*
X10451134Y-14915555D02*
X10441611Y-14896508D01*
X10441611Y-14896508D02*
X10422563Y-14867936D01*
X10422563Y-14867936D02*
X10413039Y-14858412D01*
D12*
X5432856Y-15294856D02*
X5432856Y-15224144D01*
X5362144Y-15224144D01*
X5362144Y-15294856D01*
X5432856Y-15294856D01*
D11*
X5813039Y-15350984D02*
X5698753Y-15350984D01*
X5755896Y-15350984D02*
X5755896Y-15150984D01*
X5755896Y-15150984D02*
X5736848Y-15179555D01*
X5736848Y-15179555D02*
X5717801Y-15198603D01*
X5717801Y-15198603D02*
X5698753Y-15208127D01*
X5898753Y-15331936D02*
X5908277Y-15341460D01*
X5908277Y-15341460D02*
X5898753Y-15350984D01*
X5898753Y-15350984D02*
X5889229Y-15341460D01*
X5889229Y-15341460D02*
X5898753Y-15331936D01*
X5898753Y-15331936D02*
X5898753Y-15350984D01*
X6032086Y-15150984D02*
X6051134Y-15150984D01*
X6051134Y-15150984D02*
X6070182Y-15160508D01*
X6070182Y-15160508D02*
X6079705Y-15170031D01*
X6079705Y-15170031D02*
X6089229Y-15189079D01*
X6089229Y-15189079D02*
X6098753Y-15227174D01*
X6098753Y-15227174D02*
X6098753Y-15274793D01*
X6098753Y-15274793D02*
X6089229Y-15312888D01*
X6089229Y-15312888D02*
X6079705Y-15331936D01*
X6079705Y-15331936D02*
X6070182Y-15341460D01*
X6070182Y-15341460D02*
X6051134Y-15350984D01*
X6051134Y-15350984D02*
X6032086Y-15350984D01*
X6032086Y-15350984D02*
X6013039Y-15341460D01*
X6013039Y-15341460D02*
X6003515Y-15331936D01*
X6003515Y-15331936D02*
X5993991Y-15312888D01*
X5993991Y-15312888D02*
X5984467Y-15274793D01*
X5984467Y-15274793D02*
X5984467Y-15227174D01*
X5984467Y-15227174D02*
X5993991Y-15189079D01*
X5993991Y-15189079D02*
X6003515Y-15170031D01*
X6003515Y-15170031D02*
X6013039Y-15160508D01*
X6013039Y-15160508D02*
X6032086Y-15150984D01*
X6222562Y-15150984D02*
X6241610Y-15150984D01*
X6241610Y-15150984D02*
X6260658Y-15160508D01*
X6260658Y-15160508D02*
X6270182Y-15170031D01*
X6270182Y-15170031D02*
X6279705Y-15189079D01*
X6279705Y-15189079D02*
X6289229Y-15227174D01*
X6289229Y-15227174D02*
X6289229Y-15274793D01*
X6289229Y-15274793D02*
X6279705Y-15312888D01*
X6279705Y-15312888D02*
X6270182Y-15331936D01*
X6270182Y-15331936D02*
X6260658Y-15341460D01*
X6260658Y-15341460D02*
X6241610Y-15350984D01*
X6241610Y-15350984D02*
X6222562Y-15350984D01*
X6222562Y-15350984D02*
X6203515Y-15341460D01*
X6203515Y-15341460D02*
X6193991Y-15331936D01*
X6193991Y-15331936D02*
X6184467Y-15312888D01*
X6184467Y-15312888D02*
X6174943Y-15274793D01*
X6174943Y-15274793D02*
X6174943Y-15227174D01*
X6174943Y-15227174D02*
X6184467Y-15189079D01*
X6184467Y-15189079D02*
X6193991Y-15170031D01*
X6193991Y-15170031D02*
X6203515Y-15160508D01*
X6203515Y-15160508D02*
X6222562Y-15150984D01*
X6413039Y-15150984D02*
X6432086Y-15150984D01*
X6432086Y-15150984D02*
X6451134Y-15160508D01*
X6451134Y-15160508D02*
X6460658Y-15170031D01*
X6460658Y-15170031D02*
X6470182Y-15189079D01*
X6470182Y-15189079D02*
X6479705Y-15227174D01*
X6479705Y-15227174D02*
X6479705Y-15274793D01*
X6479705Y-15274793D02*
X6470182Y-15312888D01*
X6470182Y-15312888D02*
X6460658Y-15331936D01*
X6460658Y-15331936D02*
X6451134Y-15341460D01*
X6451134Y-15341460D02*
X6432086Y-15350984D01*
X6432086Y-15350984D02*
X6413039Y-15350984D01*
X6413039Y-15350984D02*
X6393991Y-15341460D01*
X6393991Y-15341460D02*
X6384467Y-15331936D01*
X6384467Y-15331936D02*
X6374943Y-15312888D01*
X6374943Y-15312888D02*
X6365420Y-15274793D01*
X6365420Y-15274793D02*
X6365420Y-15227174D01*
X6365420Y-15227174D02*
X6374943Y-15189079D01*
X6374943Y-15189079D02*
X6384467Y-15170031D01*
X6384467Y-15170031D02*
X6393991Y-15160508D01*
X6393991Y-15160508D02*
X6413039Y-15150984D01*
X6565420Y-15350984D02*
X6565420Y-15217650D01*
X6565420Y-15236698D02*
X6574943Y-15227174D01*
X6574943Y-15227174D02*
X6593991Y-15217650D01*
X6593991Y-15217650D02*
X6622563Y-15217650D01*
X6622563Y-15217650D02*
X6641610Y-15227174D01*
X6641610Y-15227174D02*
X6651134Y-15246222D01*
X6651134Y-15246222D02*
X6651134Y-15350984D01*
X6651134Y-15246222D02*
X6660658Y-15227174D01*
X6660658Y-15227174D02*
X6679705Y-15217650D01*
X6679705Y-15217650D02*
X6708277Y-15217650D01*
X6708277Y-15217650D02*
X6727324Y-15227174D01*
X6727324Y-15227174D02*
X6736848Y-15246222D01*
X6736848Y-15246222D02*
X6736848Y-15350984D01*
X6832086Y-15350984D02*
X6832086Y-15217650D01*
X6832086Y-15236698D02*
X6841610Y-15227174D01*
X6841610Y-15227174D02*
X6860658Y-15217650D01*
X6860658Y-15217650D02*
X6889229Y-15217650D01*
X6889229Y-15217650D02*
X6908277Y-15227174D01*
X6908277Y-15227174D02*
X6917801Y-15246222D01*
X6917801Y-15246222D02*
X6917801Y-15350984D01*
X6917801Y-15246222D02*
X6927324Y-15227174D01*
X6927324Y-15227174D02*
X6946372Y-15217650D01*
X6946372Y-15217650D02*
X6974943Y-15217650D01*
X6974943Y-15217650D02*
X6993991Y-15227174D01*
X6993991Y-15227174D02*
X7003515Y-15246222D01*
X7003515Y-15246222D02*
X7003515Y-15350984D01*
X7393991Y-15141460D02*
X7222563Y-15398603D01*
X7651134Y-15150984D02*
X7670182Y-15150984D01*
X7670182Y-15150984D02*
X7689229Y-15160508D01*
X7689229Y-15160508D02*
X7698753Y-15170031D01*
X7698753Y-15170031D02*
X7708277Y-15189079D01*
X7708277Y-15189079D02*
X7717801Y-15227174D01*
X7717801Y-15227174D02*
X7717801Y-15274793D01*
X7717801Y-15274793D02*
X7708277Y-15312888D01*
X7708277Y-15312888D02*
X7698753Y-15331936D01*
X7698753Y-15331936D02*
X7689229Y-15341460D01*
X7689229Y-15341460D02*
X7670182Y-15350984D01*
X7670182Y-15350984D02*
X7651134Y-15350984D01*
X7651134Y-15350984D02*
X7632086Y-15341460D01*
X7632086Y-15341460D02*
X7622563Y-15331936D01*
X7622563Y-15331936D02*
X7613039Y-15312888D01*
X7613039Y-15312888D02*
X7603515Y-15274793D01*
X7603515Y-15274793D02*
X7603515Y-15227174D01*
X7603515Y-15227174D02*
X7613039Y-15189079D01*
X7613039Y-15189079D02*
X7622563Y-15170031D01*
X7622563Y-15170031D02*
X7632086Y-15160508D01*
X7632086Y-15160508D02*
X7651134Y-15150984D01*
X7803515Y-15331936D02*
X7813039Y-15341460D01*
X7813039Y-15341460D02*
X7803515Y-15350984D01*
X7803515Y-15350984D02*
X7793991Y-15341460D01*
X7793991Y-15341460D02*
X7803515Y-15331936D01*
X7803515Y-15331936D02*
X7803515Y-15350984D01*
X7936848Y-15150984D02*
X7955896Y-15150984D01*
X7955896Y-15150984D02*
X7974944Y-15160508D01*
X7974944Y-15160508D02*
X7984467Y-15170031D01*
X7984467Y-15170031D02*
X7993991Y-15189079D01*
X7993991Y-15189079D02*
X8003515Y-15227174D01*
X8003515Y-15227174D02*
X8003515Y-15274793D01*
X8003515Y-15274793D02*
X7993991Y-15312888D01*
X7993991Y-15312888D02*
X7984467Y-15331936D01*
X7984467Y-15331936D02*
X7974944Y-15341460D01*
X7974944Y-15341460D02*
X7955896Y-15350984D01*
X7955896Y-15350984D02*
X7936848Y-15350984D01*
X7936848Y-15350984D02*
X7917801Y-15341460D01*
X7917801Y-15341460D02*
X7908277Y-15331936D01*
X7908277Y-15331936D02*
X7898753Y-15312888D01*
X7898753Y-15312888D02*
X7889229Y-15274793D01*
X7889229Y-15274793D02*
X7889229Y-15227174D01*
X7889229Y-15227174D02*
X7898753Y-15189079D01*
X7898753Y-15189079D02*
X7908277Y-15170031D01*
X7908277Y-15170031D02*
X7917801Y-15160508D01*
X7917801Y-15160508D02*
X7936848Y-15150984D01*
X8070182Y-15150984D02*
X8193991Y-15150984D01*
X8193991Y-15150984D02*
X8127325Y-15227174D01*
X8127325Y-15227174D02*
X8155896Y-15227174D01*
X8155896Y-15227174D02*
X8174944Y-15236698D01*
X8174944Y-15236698D02*
X8184467Y-15246222D01*
X8184467Y-15246222D02*
X8193991Y-15265269D01*
X8193991Y-15265269D02*
X8193991Y-15312888D01*
X8193991Y-15312888D02*
X8184467Y-15331936D01*
X8184467Y-15331936D02*
X8174944Y-15341460D01*
X8174944Y-15341460D02*
X8155896Y-15350984D01*
X8155896Y-15350984D02*
X8098753Y-15350984D01*
X8098753Y-15350984D02*
X8079706Y-15341460D01*
X8079706Y-15341460D02*
X8070182Y-15331936D01*
X8289229Y-15350984D02*
X8327325Y-15350984D01*
X8327325Y-15350984D02*
X8346372Y-15341460D01*
X8346372Y-15341460D02*
X8355896Y-15331936D01*
X8355896Y-15331936D02*
X8374944Y-15303365D01*
X8374944Y-15303365D02*
X8384467Y-15265269D01*
X8384467Y-15265269D02*
X8384467Y-15189079D01*
X8384467Y-15189079D02*
X8374944Y-15170031D01*
X8374944Y-15170031D02*
X8365420Y-15160508D01*
X8365420Y-15160508D02*
X8346372Y-15150984D01*
X8346372Y-15150984D02*
X8308277Y-15150984D01*
X8308277Y-15150984D02*
X8289229Y-15160508D01*
X8289229Y-15160508D02*
X8279706Y-15170031D01*
X8279706Y-15170031D02*
X8270182Y-15189079D01*
X8270182Y-15189079D02*
X8270182Y-15236698D01*
X8270182Y-15236698D02*
X8279706Y-15255746D01*
X8279706Y-15255746D02*
X8289229Y-15265269D01*
X8289229Y-15265269D02*
X8308277Y-15274793D01*
X8308277Y-15274793D02*
X8346372Y-15274793D01*
X8346372Y-15274793D02*
X8365420Y-15265269D01*
X8365420Y-15265269D02*
X8374944Y-15255746D01*
X8374944Y-15255746D02*
X8384467Y-15236698D01*
X8555896Y-15217650D02*
X8555896Y-15350984D01*
X8508277Y-15141460D02*
X8460658Y-15284317D01*
X8460658Y-15284317D02*
X8584468Y-15284317D01*
X8651134Y-15150984D02*
X8651134Y-15189079D01*
X8727325Y-15150984D02*
X8727325Y-15189079D01*
X9022563Y-15427174D02*
X9013039Y-15417650D01*
X9013039Y-15417650D02*
X8993991Y-15389079D01*
X8993991Y-15389079D02*
X8984468Y-15370031D01*
X8984468Y-15370031D02*
X8974944Y-15341460D01*
X8974944Y-15341460D02*
X8965420Y-15293841D01*
X8965420Y-15293841D02*
X8965420Y-15255746D01*
X8965420Y-15255746D02*
X8974944Y-15208127D01*
X8974944Y-15208127D02*
X8984468Y-15179555D01*
X8984468Y-15179555D02*
X8993991Y-15160508D01*
X8993991Y-15160508D02*
X9013039Y-15131936D01*
X9013039Y-15131936D02*
X9022563Y-15122412D01*
X9203515Y-15350984D02*
X9089230Y-15350984D01*
X9146372Y-15350984D02*
X9146372Y-15150984D01*
X9146372Y-15150984D02*
X9127325Y-15179555D01*
X9127325Y-15179555D02*
X9108277Y-15198603D01*
X9108277Y-15198603D02*
X9089230Y-15208127D01*
X9270182Y-15150984D02*
X9393991Y-15150984D01*
X9393991Y-15150984D02*
X9327325Y-15227174D01*
X9327325Y-15227174D02*
X9355896Y-15227174D01*
X9355896Y-15227174D02*
X9374944Y-15236698D01*
X9374944Y-15236698D02*
X9384468Y-15246222D01*
X9384468Y-15246222D02*
X9393991Y-15265269D01*
X9393991Y-15265269D02*
X9393991Y-15312888D01*
X9393991Y-15312888D02*
X9384468Y-15331936D01*
X9384468Y-15331936D02*
X9374944Y-15341460D01*
X9374944Y-15341460D02*
X9355896Y-15350984D01*
X9355896Y-15350984D02*
X9298753Y-15350984D01*
X9298753Y-15350984D02*
X9279706Y-15341460D01*
X9279706Y-15341460D02*
X9270182Y-15331936D01*
X9632087Y-15350984D02*
X9632087Y-15150984D01*
X9717801Y-15350984D02*
X9717801Y-15246222D01*
X9717801Y-15246222D02*
X9708277Y-15227174D01*
X9708277Y-15227174D02*
X9689230Y-15217650D01*
X9689230Y-15217650D02*
X9660658Y-15217650D01*
X9660658Y-15217650D02*
X9641611Y-15227174D01*
X9641611Y-15227174D02*
X9632087Y-15236698D01*
X9841611Y-15350984D02*
X9822563Y-15341460D01*
X9822563Y-15341460D02*
X9813039Y-15331936D01*
X9813039Y-15331936D02*
X9803515Y-15312888D01*
X9803515Y-15312888D02*
X9803515Y-15255746D01*
X9803515Y-15255746D02*
X9813039Y-15236698D01*
X9813039Y-15236698D02*
X9822563Y-15227174D01*
X9822563Y-15227174D02*
X9841611Y-15217650D01*
X9841611Y-15217650D02*
X9870182Y-15217650D01*
X9870182Y-15217650D02*
X9889230Y-15227174D01*
X9889230Y-15227174D02*
X9898753Y-15236698D01*
X9898753Y-15236698D02*
X9908277Y-15255746D01*
X9908277Y-15255746D02*
X9908277Y-15312888D01*
X9908277Y-15312888D02*
X9898753Y-15331936D01*
X9898753Y-15331936D02*
X9889230Y-15341460D01*
X9889230Y-15341460D02*
X9870182Y-15350984D01*
X9870182Y-15350984D02*
X9841611Y-15350984D01*
X10022563Y-15350984D02*
X10003515Y-15341460D01*
X10003515Y-15341460D02*
X9993992Y-15322412D01*
X9993992Y-15322412D02*
X9993992Y-15150984D01*
X10174944Y-15341460D02*
X10155896Y-15350984D01*
X10155896Y-15350984D02*
X10117801Y-15350984D01*
X10117801Y-15350984D02*
X10098753Y-15341460D01*
X10098753Y-15341460D02*
X10089230Y-15322412D01*
X10089230Y-15322412D02*
X10089230Y-15246222D01*
X10089230Y-15246222D02*
X10098753Y-15227174D01*
X10098753Y-15227174D02*
X10117801Y-15217650D01*
X10117801Y-15217650D02*
X10155896Y-15217650D01*
X10155896Y-15217650D02*
X10174944Y-15227174D01*
X10174944Y-15227174D02*
X10184468Y-15246222D01*
X10184468Y-15246222D02*
X10184468Y-15265269D01*
X10184468Y-15265269D02*
X10089230Y-15284317D01*
X10260658Y-15341460D02*
X10279706Y-15350984D01*
X10279706Y-15350984D02*
X10317801Y-15350984D01*
X10317801Y-15350984D02*
X10336849Y-15341460D01*
X10336849Y-15341460D02*
X10346373Y-15322412D01*
X10346373Y-15322412D02*
X10346373Y-15312888D01*
X10346373Y-15312888D02*
X10336849Y-15293841D01*
X10336849Y-15293841D02*
X10317801Y-15284317D01*
X10317801Y-15284317D02*
X10289230Y-15284317D01*
X10289230Y-15284317D02*
X10270182Y-15274793D01*
X10270182Y-15274793D02*
X10260658Y-15255746D01*
X10260658Y-15255746D02*
X10260658Y-15246222D01*
X10260658Y-15246222D02*
X10270182Y-15227174D01*
X10270182Y-15227174D02*
X10289230Y-15217650D01*
X10289230Y-15217650D02*
X10317801Y-15217650D01*
X10317801Y-15217650D02*
X10336849Y-15227174D01*
X10413039Y-15427174D02*
X10422563Y-15417650D01*
X10422563Y-15417650D02*
X10441611Y-15389079D01*
X10441611Y-15389079D02*
X10451134Y-15370031D01*
X10451134Y-15370031D02*
X10460658Y-15341460D01*
X10460658Y-15341460D02*
X10470182Y-15293841D01*
X10470182Y-15293841D02*
X10470182Y-15255746D01*
X10470182Y-15255746D02*
X10460658Y-15208127D01*
X10460658Y-15208127D02*
X10451134Y-15179555D01*
X10451134Y-15179555D02*
X10441611Y-15160508D01*
X10441611Y-15160508D02*
X10422563Y-15131936D01*
X10422563Y-15131936D02*
X10413039Y-15122412D01*
D13*
X5387500Y-15583500D02*
X5447500Y-15523500D01*
X5387500Y-15463500D01*
X5327500Y-15523500D01*
X5387500Y-15583500D01*
D11*
X5813039Y-15614984D02*
X5698753Y-15614984D01*
X5755896Y-15614984D02*
X5755896Y-15414984D01*
X5755896Y-15414984D02*
X5736848Y-15443555D01*
X5736848Y-15443555D02*
X5717801Y-15462603D01*
X5717801Y-15462603D02*
X5698753Y-15472127D01*
X5898753Y-15595936D02*
X5908277Y-15605460D01*
X5908277Y-15605460D02*
X5898753Y-15614984D01*
X5898753Y-15614984D02*
X5889229Y-15605460D01*
X5889229Y-15605460D02*
X5898753Y-15595936D01*
X5898753Y-15595936D02*
X5898753Y-15614984D01*
X5984467Y-15434031D02*
X5993991Y-15424508D01*
X5993991Y-15424508D02*
X6013039Y-15414984D01*
X6013039Y-15414984D02*
X6060658Y-15414984D01*
X6060658Y-15414984D02*
X6079705Y-15424508D01*
X6079705Y-15424508D02*
X6089229Y-15434031D01*
X6089229Y-15434031D02*
X6098753Y-15453079D01*
X6098753Y-15453079D02*
X6098753Y-15472127D01*
X6098753Y-15472127D02*
X6089229Y-15500698D01*
X6089229Y-15500698D02*
X5974943Y-15614984D01*
X5974943Y-15614984D02*
X6098753Y-15614984D01*
X6222562Y-15414984D02*
X6241610Y-15414984D01*
X6241610Y-15414984D02*
X6260658Y-15424508D01*
X6260658Y-15424508D02*
X6270182Y-15434031D01*
X6270182Y-15434031D02*
X6279705Y-15453079D01*
X6279705Y-15453079D02*
X6289229Y-15491174D01*
X6289229Y-15491174D02*
X6289229Y-15538793D01*
X6289229Y-15538793D02*
X6279705Y-15576888D01*
X6279705Y-15576888D02*
X6270182Y-15595936D01*
X6270182Y-15595936D02*
X6260658Y-15605460D01*
X6260658Y-15605460D02*
X6241610Y-15614984D01*
X6241610Y-15614984D02*
X6222562Y-15614984D01*
X6222562Y-15614984D02*
X6203515Y-15605460D01*
X6203515Y-15605460D02*
X6193991Y-15595936D01*
X6193991Y-15595936D02*
X6184467Y-15576888D01*
X6184467Y-15576888D02*
X6174943Y-15538793D01*
X6174943Y-15538793D02*
X6174943Y-15491174D01*
X6174943Y-15491174D02*
X6184467Y-15453079D01*
X6184467Y-15453079D02*
X6193991Y-15434031D01*
X6193991Y-15434031D02*
X6203515Y-15424508D01*
X6203515Y-15424508D02*
X6222562Y-15414984D01*
X6413039Y-15414984D02*
X6432086Y-15414984D01*
X6432086Y-15414984D02*
X6451134Y-15424508D01*
X6451134Y-15424508D02*
X6460658Y-15434031D01*
X6460658Y-15434031D02*
X6470182Y-15453079D01*
X6470182Y-15453079D02*
X6479705Y-15491174D01*
X6479705Y-15491174D02*
X6479705Y-15538793D01*
X6479705Y-15538793D02*
X6470182Y-15576888D01*
X6470182Y-15576888D02*
X6460658Y-15595936D01*
X6460658Y-15595936D02*
X6451134Y-15605460D01*
X6451134Y-15605460D02*
X6432086Y-15614984D01*
X6432086Y-15614984D02*
X6413039Y-15614984D01*
X6413039Y-15614984D02*
X6393991Y-15605460D01*
X6393991Y-15605460D02*
X6384467Y-15595936D01*
X6384467Y-15595936D02*
X6374943Y-15576888D01*
X6374943Y-15576888D02*
X6365420Y-15538793D01*
X6365420Y-15538793D02*
X6365420Y-15491174D01*
X6365420Y-15491174D02*
X6374943Y-15453079D01*
X6374943Y-15453079D02*
X6384467Y-15434031D01*
X6384467Y-15434031D02*
X6393991Y-15424508D01*
X6393991Y-15424508D02*
X6413039Y-15414984D01*
X6565420Y-15614984D02*
X6565420Y-15481650D01*
X6565420Y-15500698D02*
X6574943Y-15491174D01*
X6574943Y-15491174D02*
X6593991Y-15481650D01*
X6593991Y-15481650D02*
X6622563Y-15481650D01*
X6622563Y-15481650D02*
X6641610Y-15491174D01*
X6641610Y-15491174D02*
X6651134Y-15510222D01*
X6651134Y-15510222D02*
X6651134Y-15614984D01*
X6651134Y-15510222D02*
X6660658Y-15491174D01*
X6660658Y-15491174D02*
X6679705Y-15481650D01*
X6679705Y-15481650D02*
X6708277Y-15481650D01*
X6708277Y-15481650D02*
X6727324Y-15491174D01*
X6727324Y-15491174D02*
X6736848Y-15510222D01*
X6736848Y-15510222D02*
X6736848Y-15614984D01*
X6832086Y-15614984D02*
X6832086Y-15481650D01*
X6832086Y-15500698D02*
X6841610Y-15491174D01*
X6841610Y-15491174D02*
X6860658Y-15481650D01*
X6860658Y-15481650D02*
X6889229Y-15481650D01*
X6889229Y-15481650D02*
X6908277Y-15491174D01*
X6908277Y-15491174D02*
X6917801Y-15510222D01*
X6917801Y-15510222D02*
X6917801Y-15614984D01*
X6917801Y-15510222D02*
X6927324Y-15491174D01*
X6927324Y-15491174D02*
X6946372Y-15481650D01*
X6946372Y-15481650D02*
X6974943Y-15481650D01*
X6974943Y-15481650D02*
X6993991Y-15491174D01*
X6993991Y-15491174D02*
X7003515Y-15510222D01*
X7003515Y-15510222D02*
X7003515Y-15614984D01*
X7393991Y-15405460D02*
X7222563Y-15662603D01*
X7651134Y-15414984D02*
X7670182Y-15414984D01*
X7670182Y-15414984D02*
X7689229Y-15424508D01*
X7689229Y-15424508D02*
X7698753Y-15434031D01*
X7698753Y-15434031D02*
X7708277Y-15453079D01*
X7708277Y-15453079D02*
X7717801Y-15491174D01*
X7717801Y-15491174D02*
X7717801Y-15538793D01*
X7717801Y-15538793D02*
X7708277Y-15576888D01*
X7708277Y-15576888D02*
X7698753Y-15595936D01*
X7698753Y-15595936D02*
X7689229Y-15605460D01*
X7689229Y-15605460D02*
X7670182Y-15614984D01*
X7670182Y-15614984D02*
X7651134Y-15614984D01*
X7651134Y-15614984D02*
X7632086Y-15605460D01*
X7632086Y-15605460D02*
X7622563Y-15595936D01*
X7622563Y-15595936D02*
X7613039Y-15576888D01*
X7613039Y-15576888D02*
X7603515Y-15538793D01*
X7603515Y-15538793D02*
X7603515Y-15491174D01*
X7603515Y-15491174D02*
X7613039Y-15453079D01*
X7613039Y-15453079D02*
X7622563Y-15434031D01*
X7622563Y-15434031D02*
X7632086Y-15424508D01*
X7632086Y-15424508D02*
X7651134Y-15414984D01*
X7803515Y-15595936D02*
X7813039Y-15605460D01*
X7813039Y-15605460D02*
X7803515Y-15614984D01*
X7803515Y-15614984D02*
X7793991Y-15605460D01*
X7793991Y-15605460D02*
X7803515Y-15595936D01*
X7803515Y-15595936D02*
X7803515Y-15614984D01*
X7936848Y-15414984D02*
X7955896Y-15414984D01*
X7955896Y-15414984D02*
X7974944Y-15424508D01*
X7974944Y-15424508D02*
X7984467Y-15434031D01*
X7984467Y-15434031D02*
X7993991Y-15453079D01*
X7993991Y-15453079D02*
X8003515Y-15491174D01*
X8003515Y-15491174D02*
X8003515Y-15538793D01*
X8003515Y-15538793D02*
X7993991Y-15576888D01*
X7993991Y-15576888D02*
X7984467Y-15595936D01*
X7984467Y-15595936D02*
X7974944Y-15605460D01*
X7974944Y-15605460D02*
X7955896Y-15614984D01*
X7955896Y-15614984D02*
X7936848Y-15614984D01*
X7936848Y-15614984D02*
X7917801Y-15605460D01*
X7917801Y-15605460D02*
X7908277Y-15595936D01*
X7908277Y-15595936D02*
X7898753Y-15576888D01*
X7898753Y-15576888D02*
X7889229Y-15538793D01*
X7889229Y-15538793D02*
X7889229Y-15491174D01*
X7889229Y-15491174D02*
X7898753Y-15453079D01*
X7898753Y-15453079D02*
X7908277Y-15434031D01*
X7908277Y-15434031D02*
X7917801Y-15424508D01*
X7917801Y-15424508D02*
X7936848Y-15414984D01*
X8174944Y-15481650D02*
X8174944Y-15614984D01*
X8127325Y-15405460D02*
X8079706Y-15548317D01*
X8079706Y-15548317D02*
X8203515Y-15548317D01*
X8260658Y-15414984D02*
X8393991Y-15414984D01*
X8393991Y-15414984D02*
X8308277Y-15614984D01*
X8460658Y-15434031D02*
X8470182Y-15424508D01*
X8470182Y-15424508D02*
X8489229Y-15414984D01*
X8489229Y-15414984D02*
X8536849Y-15414984D01*
X8536849Y-15414984D02*
X8555896Y-15424508D01*
X8555896Y-15424508D02*
X8565420Y-15434031D01*
X8565420Y-15434031D02*
X8574944Y-15453079D01*
X8574944Y-15453079D02*
X8574944Y-15472127D01*
X8574944Y-15472127D02*
X8565420Y-15500698D01*
X8565420Y-15500698D02*
X8451134Y-15614984D01*
X8451134Y-15614984D02*
X8574944Y-15614984D01*
X8651134Y-15414984D02*
X8651134Y-15453079D01*
X8727325Y-15414984D02*
X8727325Y-15453079D01*
X9022563Y-15691174D02*
X9013039Y-15681650D01*
X9013039Y-15681650D02*
X8993991Y-15653079D01*
X8993991Y-15653079D02*
X8984468Y-15634031D01*
X8984468Y-15634031D02*
X8974944Y-15605460D01*
X8974944Y-15605460D02*
X8965420Y-15557841D01*
X8965420Y-15557841D02*
X8965420Y-15519746D01*
X8965420Y-15519746D02*
X8974944Y-15472127D01*
X8974944Y-15472127D02*
X8984468Y-15443555D01*
X8984468Y-15443555D02*
X8993991Y-15424508D01*
X8993991Y-15424508D02*
X9013039Y-15395936D01*
X9013039Y-15395936D02*
X9022563Y-15386412D01*
X9184468Y-15481650D02*
X9184468Y-15614984D01*
X9136849Y-15405460D02*
X9089230Y-15548317D01*
X9089230Y-15548317D02*
X9213039Y-15548317D01*
X9441611Y-15614984D02*
X9441611Y-15414984D01*
X9527325Y-15614984D02*
X9527325Y-15510222D01*
X9527325Y-15510222D02*
X9517801Y-15491174D01*
X9517801Y-15491174D02*
X9498753Y-15481650D01*
X9498753Y-15481650D02*
X9470182Y-15481650D01*
X9470182Y-15481650D02*
X9451134Y-15491174D01*
X9451134Y-15491174D02*
X9441611Y-15500698D01*
X9651134Y-15614984D02*
X9632087Y-15605460D01*
X9632087Y-15605460D02*
X9622563Y-15595936D01*
X9622563Y-15595936D02*
X9613039Y-15576888D01*
X9613039Y-15576888D02*
X9613039Y-15519746D01*
X9613039Y-15519746D02*
X9622563Y-15500698D01*
X9622563Y-15500698D02*
X9632087Y-15491174D01*
X9632087Y-15491174D02*
X9651134Y-15481650D01*
X9651134Y-15481650D02*
X9679706Y-15481650D01*
X9679706Y-15481650D02*
X9698753Y-15491174D01*
X9698753Y-15491174D02*
X9708277Y-15500698D01*
X9708277Y-15500698D02*
X9717801Y-15519746D01*
X9717801Y-15519746D02*
X9717801Y-15576888D01*
X9717801Y-15576888D02*
X9708277Y-15595936D01*
X9708277Y-15595936D02*
X9698753Y-15605460D01*
X9698753Y-15605460D02*
X9679706Y-15614984D01*
X9679706Y-15614984D02*
X9651134Y-15614984D01*
X9832087Y-15614984D02*
X9813039Y-15605460D01*
X9813039Y-15605460D02*
X9803515Y-15586412D01*
X9803515Y-15586412D02*
X9803515Y-15414984D01*
X9984468Y-15605460D02*
X9965420Y-15614984D01*
X9965420Y-15614984D02*
X9927325Y-15614984D01*
X9927325Y-15614984D02*
X9908277Y-15605460D01*
X9908277Y-15605460D02*
X9898753Y-15586412D01*
X9898753Y-15586412D02*
X9898753Y-15510222D01*
X9898753Y-15510222D02*
X9908277Y-15491174D01*
X9908277Y-15491174D02*
X9927325Y-15481650D01*
X9927325Y-15481650D02*
X9965420Y-15481650D01*
X9965420Y-15481650D02*
X9984468Y-15491174D01*
X9984468Y-15491174D02*
X9993992Y-15510222D01*
X9993992Y-15510222D02*
X9993992Y-15529269D01*
X9993992Y-15529269D02*
X9898753Y-15548317D01*
X10070182Y-15605460D02*
X10089230Y-15614984D01*
X10089230Y-15614984D02*
X10127325Y-15614984D01*
X10127325Y-15614984D02*
X10146373Y-15605460D01*
X10146373Y-15605460D02*
X10155896Y-15586412D01*
X10155896Y-15586412D02*
X10155896Y-15576888D01*
X10155896Y-15576888D02*
X10146373Y-15557841D01*
X10146373Y-15557841D02*
X10127325Y-15548317D01*
X10127325Y-15548317D02*
X10098753Y-15548317D01*
X10098753Y-15548317D02*
X10079706Y-15538793D01*
X10079706Y-15538793D02*
X10070182Y-15519746D01*
X10070182Y-15519746D02*
X10070182Y-15510222D01*
X10070182Y-15510222D02*
X10079706Y-15491174D01*
X10079706Y-15491174D02*
X10098753Y-15481650D01*
X10098753Y-15481650D02*
X10127325Y-15481650D01*
X10127325Y-15481650D02*
X10146373Y-15491174D01*
X10222563Y-15691174D02*
X10232087Y-15681650D01*
X10232087Y-15681650D02*
X10251134Y-15653079D01*
X10251134Y-15653079D02*
X10260658Y-15634031D01*
X10260658Y-15634031D02*
X10270182Y-15605460D01*
X10270182Y-15605460D02*
X10279706Y-15557841D01*
X10279706Y-15557841D02*
X10279706Y-15519746D01*
X10279706Y-15519746D02*
X10270182Y-15472127D01*
X10270182Y-15472127D02*
X10260658Y-15443555D01*
X10260658Y-15443555D02*
X10251134Y-15424508D01*
X10251134Y-15424508D02*
X10232087Y-15395936D01*
X10232087Y-15395936D02*
X10222563Y-15386412D01*
D14*
X5317500Y-15722500D02*
X5447500Y-15852500D01*
X5447500Y-15722500D02*
X5317500Y-15852500D01*
X5447500Y-15787500D02*
G75*
G02*
X5317500Y-15787500I-65000J0D01*
G01*
X5317500Y-15787500D02*
G75*
G02*
X5447500Y-15787500I65000J0D01*
G01*
D11*
X5813039Y-15878984D02*
X5698753Y-15878984D01*
X5755896Y-15878984D02*
X5755896Y-15678984D01*
X5755896Y-15678984D02*
X5736848Y-15707555D01*
X5736848Y-15707555D02*
X5717801Y-15726603D01*
X5717801Y-15726603D02*
X5698753Y-15736127D01*
X5898753Y-15859936D02*
X5908277Y-15869460D01*
X5908277Y-15869460D02*
X5898753Y-15878984D01*
X5898753Y-15878984D02*
X5889229Y-15869460D01*
X5889229Y-15869460D02*
X5898753Y-15859936D01*
X5898753Y-15859936D02*
X5898753Y-15878984D01*
X5974943Y-15678984D02*
X6098753Y-15678984D01*
X6098753Y-15678984D02*
X6032086Y-15755174D01*
X6032086Y-15755174D02*
X6060658Y-15755174D01*
X6060658Y-15755174D02*
X6079705Y-15764698D01*
X6079705Y-15764698D02*
X6089229Y-15774222D01*
X6089229Y-15774222D02*
X6098753Y-15793269D01*
X6098753Y-15793269D02*
X6098753Y-15840888D01*
X6098753Y-15840888D02*
X6089229Y-15859936D01*
X6089229Y-15859936D02*
X6079705Y-15869460D01*
X6079705Y-15869460D02*
X6060658Y-15878984D01*
X6060658Y-15878984D02*
X6003515Y-15878984D01*
X6003515Y-15878984D02*
X5984467Y-15869460D01*
X5984467Y-15869460D02*
X5974943Y-15859936D01*
X6222562Y-15678984D02*
X6241610Y-15678984D01*
X6241610Y-15678984D02*
X6260658Y-15688508D01*
X6260658Y-15688508D02*
X6270182Y-15698031D01*
X6270182Y-15698031D02*
X6279705Y-15717079D01*
X6279705Y-15717079D02*
X6289229Y-15755174D01*
X6289229Y-15755174D02*
X6289229Y-15802793D01*
X6289229Y-15802793D02*
X6279705Y-15840888D01*
X6279705Y-15840888D02*
X6270182Y-15859936D01*
X6270182Y-15859936D02*
X6260658Y-15869460D01*
X6260658Y-15869460D02*
X6241610Y-15878984D01*
X6241610Y-15878984D02*
X6222562Y-15878984D01*
X6222562Y-15878984D02*
X6203515Y-15869460D01*
X6203515Y-15869460D02*
X6193991Y-15859936D01*
X6193991Y-15859936D02*
X6184467Y-15840888D01*
X6184467Y-15840888D02*
X6174943Y-15802793D01*
X6174943Y-15802793D02*
X6174943Y-15755174D01*
X6174943Y-15755174D02*
X6184467Y-15717079D01*
X6184467Y-15717079D02*
X6193991Y-15698031D01*
X6193991Y-15698031D02*
X6203515Y-15688508D01*
X6203515Y-15688508D02*
X6222562Y-15678984D01*
X6413039Y-15678984D02*
X6432086Y-15678984D01*
X6432086Y-15678984D02*
X6451134Y-15688508D01*
X6451134Y-15688508D02*
X6460658Y-15698031D01*
X6460658Y-15698031D02*
X6470182Y-15717079D01*
X6470182Y-15717079D02*
X6479705Y-15755174D01*
X6479705Y-15755174D02*
X6479705Y-15802793D01*
X6479705Y-15802793D02*
X6470182Y-15840888D01*
X6470182Y-15840888D02*
X6460658Y-15859936D01*
X6460658Y-15859936D02*
X6451134Y-15869460D01*
X6451134Y-15869460D02*
X6432086Y-15878984D01*
X6432086Y-15878984D02*
X6413039Y-15878984D01*
X6413039Y-15878984D02*
X6393991Y-15869460D01*
X6393991Y-15869460D02*
X6384467Y-15859936D01*
X6384467Y-15859936D02*
X6374943Y-15840888D01*
X6374943Y-15840888D02*
X6365420Y-15802793D01*
X6365420Y-15802793D02*
X6365420Y-15755174D01*
X6365420Y-15755174D02*
X6374943Y-15717079D01*
X6374943Y-15717079D02*
X6384467Y-15698031D01*
X6384467Y-15698031D02*
X6393991Y-15688508D01*
X6393991Y-15688508D02*
X6413039Y-15678984D01*
X6565420Y-15878984D02*
X6565420Y-15745650D01*
X6565420Y-15764698D02*
X6574943Y-15755174D01*
X6574943Y-15755174D02*
X6593991Y-15745650D01*
X6593991Y-15745650D02*
X6622563Y-15745650D01*
X6622563Y-15745650D02*
X6641610Y-15755174D01*
X6641610Y-15755174D02*
X6651134Y-15774222D01*
X6651134Y-15774222D02*
X6651134Y-15878984D01*
X6651134Y-15774222D02*
X6660658Y-15755174D01*
X6660658Y-15755174D02*
X6679705Y-15745650D01*
X6679705Y-15745650D02*
X6708277Y-15745650D01*
X6708277Y-15745650D02*
X6727324Y-15755174D01*
X6727324Y-15755174D02*
X6736848Y-15774222D01*
X6736848Y-15774222D02*
X6736848Y-15878984D01*
X6832086Y-15878984D02*
X6832086Y-15745650D01*
X6832086Y-15764698D02*
X6841610Y-15755174D01*
X6841610Y-15755174D02*
X6860658Y-15745650D01*
X6860658Y-15745650D02*
X6889229Y-15745650D01*
X6889229Y-15745650D02*
X6908277Y-15755174D01*
X6908277Y-15755174D02*
X6917801Y-15774222D01*
X6917801Y-15774222D02*
X6917801Y-15878984D01*
X6917801Y-15774222D02*
X6927324Y-15755174D01*
X6927324Y-15755174D02*
X6946372Y-15745650D01*
X6946372Y-15745650D02*
X6974943Y-15745650D01*
X6974943Y-15745650D02*
X6993991Y-15755174D01*
X6993991Y-15755174D02*
X7003515Y-15774222D01*
X7003515Y-15774222D02*
X7003515Y-15878984D01*
X7393991Y-15669460D02*
X7222563Y-15926603D01*
X7651134Y-15678984D02*
X7670182Y-15678984D01*
X7670182Y-15678984D02*
X7689229Y-15688508D01*
X7689229Y-15688508D02*
X7698753Y-15698031D01*
X7698753Y-15698031D02*
X7708277Y-15717079D01*
X7708277Y-15717079D02*
X7717801Y-15755174D01*
X7717801Y-15755174D02*
X7717801Y-15802793D01*
X7717801Y-15802793D02*
X7708277Y-15840888D01*
X7708277Y-15840888D02*
X7698753Y-15859936D01*
X7698753Y-15859936D02*
X7689229Y-15869460D01*
X7689229Y-15869460D02*
X7670182Y-15878984D01*
X7670182Y-15878984D02*
X7651134Y-15878984D01*
X7651134Y-15878984D02*
X7632086Y-15869460D01*
X7632086Y-15869460D02*
X7622563Y-15859936D01*
X7622563Y-15859936D02*
X7613039Y-15840888D01*
X7613039Y-15840888D02*
X7603515Y-15802793D01*
X7603515Y-15802793D02*
X7603515Y-15755174D01*
X7603515Y-15755174D02*
X7613039Y-15717079D01*
X7613039Y-15717079D02*
X7622563Y-15698031D01*
X7622563Y-15698031D02*
X7632086Y-15688508D01*
X7632086Y-15688508D02*
X7651134Y-15678984D01*
X7803515Y-15859936D02*
X7813039Y-15869460D01*
X7813039Y-15869460D02*
X7803515Y-15878984D01*
X7803515Y-15878984D02*
X7793991Y-15869460D01*
X7793991Y-15869460D02*
X7803515Y-15859936D01*
X7803515Y-15859936D02*
X7803515Y-15878984D01*
X7936848Y-15678984D02*
X7955896Y-15678984D01*
X7955896Y-15678984D02*
X7974944Y-15688508D01*
X7974944Y-15688508D02*
X7984467Y-15698031D01*
X7984467Y-15698031D02*
X7993991Y-15717079D01*
X7993991Y-15717079D02*
X8003515Y-15755174D01*
X8003515Y-15755174D02*
X8003515Y-15802793D01*
X8003515Y-15802793D02*
X7993991Y-15840888D01*
X7993991Y-15840888D02*
X7984467Y-15859936D01*
X7984467Y-15859936D02*
X7974944Y-15869460D01*
X7974944Y-15869460D02*
X7955896Y-15878984D01*
X7955896Y-15878984D02*
X7936848Y-15878984D01*
X7936848Y-15878984D02*
X7917801Y-15869460D01*
X7917801Y-15869460D02*
X7908277Y-15859936D01*
X7908277Y-15859936D02*
X7898753Y-15840888D01*
X7898753Y-15840888D02*
X7889229Y-15802793D01*
X7889229Y-15802793D02*
X7889229Y-15755174D01*
X7889229Y-15755174D02*
X7898753Y-15717079D01*
X7898753Y-15717079D02*
X7908277Y-15698031D01*
X7908277Y-15698031D02*
X7917801Y-15688508D01*
X7917801Y-15688508D02*
X7936848Y-15678984D01*
X8184467Y-15678984D02*
X8089229Y-15678984D01*
X8089229Y-15678984D02*
X8079706Y-15774222D01*
X8079706Y-15774222D02*
X8089229Y-15764698D01*
X8089229Y-15764698D02*
X8108277Y-15755174D01*
X8108277Y-15755174D02*
X8155896Y-15755174D01*
X8155896Y-15755174D02*
X8174944Y-15764698D01*
X8174944Y-15764698D02*
X8184467Y-15774222D01*
X8184467Y-15774222D02*
X8193991Y-15793269D01*
X8193991Y-15793269D02*
X8193991Y-15840888D01*
X8193991Y-15840888D02*
X8184467Y-15859936D01*
X8184467Y-15859936D02*
X8174944Y-15869460D01*
X8174944Y-15869460D02*
X8155896Y-15878984D01*
X8155896Y-15878984D02*
X8108277Y-15878984D01*
X8108277Y-15878984D02*
X8089229Y-15869460D01*
X8089229Y-15869460D02*
X8079706Y-15859936D01*
X8384467Y-15878984D02*
X8270182Y-15878984D01*
X8327325Y-15878984D02*
X8327325Y-15678984D01*
X8327325Y-15678984D02*
X8308277Y-15707555D01*
X8308277Y-15707555D02*
X8289229Y-15726603D01*
X8289229Y-15726603D02*
X8270182Y-15736127D01*
X8460658Y-15698031D02*
X8470182Y-15688508D01*
X8470182Y-15688508D02*
X8489229Y-15678984D01*
X8489229Y-15678984D02*
X8536849Y-15678984D01*
X8536849Y-15678984D02*
X8555896Y-15688508D01*
X8555896Y-15688508D02*
X8565420Y-15698031D01*
X8565420Y-15698031D02*
X8574944Y-15717079D01*
X8574944Y-15717079D02*
X8574944Y-15736127D01*
X8574944Y-15736127D02*
X8565420Y-15764698D01*
X8565420Y-15764698D02*
X8451134Y-15878984D01*
X8451134Y-15878984D02*
X8574944Y-15878984D01*
X8651134Y-15678984D02*
X8651134Y-15717079D01*
X8727325Y-15678984D02*
X8727325Y-15717079D01*
X9022563Y-15955174D02*
X9013039Y-15945650D01*
X9013039Y-15945650D02*
X8993991Y-15917079D01*
X8993991Y-15917079D02*
X8984468Y-15898031D01*
X8984468Y-15898031D02*
X8974944Y-15869460D01*
X8974944Y-15869460D02*
X8965420Y-15821841D01*
X8965420Y-15821841D02*
X8965420Y-15783746D01*
X8965420Y-15783746D02*
X8974944Y-15736127D01*
X8974944Y-15736127D02*
X8984468Y-15707555D01*
X8984468Y-15707555D02*
X8993991Y-15688508D01*
X8993991Y-15688508D02*
X9013039Y-15659936D01*
X9013039Y-15659936D02*
X9022563Y-15650412D01*
X9184468Y-15678984D02*
X9146372Y-15678984D01*
X9146372Y-15678984D02*
X9127325Y-15688508D01*
X9127325Y-15688508D02*
X9117801Y-15698031D01*
X9117801Y-15698031D02*
X9098753Y-15726603D01*
X9098753Y-15726603D02*
X9089230Y-15764698D01*
X9089230Y-15764698D02*
X9089230Y-15840888D01*
X9089230Y-15840888D02*
X9098753Y-15859936D01*
X9098753Y-15859936D02*
X9108277Y-15869460D01*
X9108277Y-15869460D02*
X9127325Y-15878984D01*
X9127325Y-15878984D02*
X9165420Y-15878984D01*
X9165420Y-15878984D02*
X9184468Y-15869460D01*
X9184468Y-15869460D02*
X9193991Y-15859936D01*
X9193991Y-15859936D02*
X9203515Y-15840888D01*
X9203515Y-15840888D02*
X9203515Y-15793269D01*
X9203515Y-15793269D02*
X9193991Y-15774222D01*
X9193991Y-15774222D02*
X9184468Y-15764698D01*
X9184468Y-15764698D02*
X9165420Y-15755174D01*
X9165420Y-15755174D02*
X9127325Y-15755174D01*
X9127325Y-15755174D02*
X9108277Y-15764698D01*
X9108277Y-15764698D02*
X9098753Y-15774222D01*
X9098753Y-15774222D02*
X9089230Y-15793269D01*
X9441611Y-15878984D02*
X9441611Y-15678984D01*
X9527325Y-15878984D02*
X9527325Y-15774222D01*
X9527325Y-15774222D02*
X9517801Y-15755174D01*
X9517801Y-15755174D02*
X9498753Y-15745650D01*
X9498753Y-15745650D02*
X9470182Y-15745650D01*
X9470182Y-15745650D02*
X9451134Y-15755174D01*
X9451134Y-15755174D02*
X9441611Y-15764698D01*
X9651134Y-15878984D02*
X9632087Y-15869460D01*
X9632087Y-15869460D02*
X9622563Y-15859936D01*
X9622563Y-15859936D02*
X9613039Y-15840888D01*
X9613039Y-15840888D02*
X9613039Y-15783746D01*
X9613039Y-15783746D02*
X9622563Y-15764698D01*
X9622563Y-15764698D02*
X9632087Y-15755174D01*
X9632087Y-15755174D02*
X9651134Y-15745650D01*
X9651134Y-15745650D02*
X9679706Y-15745650D01*
X9679706Y-15745650D02*
X9698753Y-15755174D01*
X9698753Y-15755174D02*
X9708277Y-15764698D01*
X9708277Y-15764698D02*
X9717801Y-15783746D01*
X9717801Y-15783746D02*
X9717801Y-15840888D01*
X9717801Y-15840888D02*
X9708277Y-15859936D01*
X9708277Y-15859936D02*
X9698753Y-15869460D01*
X9698753Y-15869460D02*
X9679706Y-15878984D01*
X9679706Y-15878984D02*
X9651134Y-15878984D01*
X9832087Y-15878984D02*
X9813039Y-15869460D01*
X9813039Y-15869460D02*
X9803515Y-15850412D01*
X9803515Y-15850412D02*
X9803515Y-15678984D01*
X9984468Y-15869460D02*
X9965420Y-15878984D01*
X9965420Y-15878984D02*
X9927325Y-15878984D01*
X9927325Y-15878984D02*
X9908277Y-15869460D01*
X9908277Y-15869460D02*
X9898753Y-15850412D01*
X9898753Y-15850412D02*
X9898753Y-15774222D01*
X9898753Y-15774222D02*
X9908277Y-15755174D01*
X9908277Y-15755174D02*
X9927325Y-15745650D01*
X9927325Y-15745650D02*
X9965420Y-15745650D01*
X9965420Y-15745650D02*
X9984468Y-15755174D01*
X9984468Y-15755174D02*
X9993992Y-15774222D01*
X9993992Y-15774222D02*
X9993992Y-15793269D01*
X9993992Y-15793269D02*
X9898753Y-15812317D01*
X10070182Y-15869460D02*
X10089230Y-15878984D01*
X10089230Y-15878984D02*
X10127325Y-15878984D01*
X10127325Y-15878984D02*
X10146373Y-15869460D01*
X10146373Y-15869460D02*
X10155896Y-15850412D01*
X10155896Y-15850412D02*
X10155896Y-15840888D01*
X10155896Y-15840888D02*
X10146373Y-15821841D01*
X10146373Y-15821841D02*
X10127325Y-15812317D01*
X10127325Y-15812317D02*
X10098753Y-15812317D01*
X10098753Y-15812317D02*
X10079706Y-15802793D01*
X10079706Y-15802793D02*
X10070182Y-15783746D01*
X10070182Y-15783746D02*
X10070182Y-15774222D01*
X10070182Y-15774222D02*
X10079706Y-15755174D01*
X10079706Y-15755174D02*
X10098753Y-15745650D01*
X10098753Y-15745650D02*
X10127325Y-15745650D01*
X10127325Y-15745650D02*
X10146373Y-15755174D01*
X10222563Y-15955174D02*
X10232087Y-15945650D01*
X10232087Y-15945650D02*
X10251134Y-15917079D01*
X10251134Y-15917079D02*
X10260658Y-15898031D01*
X10260658Y-15898031D02*
X10270182Y-15869460D01*
X10270182Y-15869460D02*
X10279706Y-15821841D01*
X10279706Y-15821841D02*
X10279706Y-15783746D01*
X10279706Y-15783746D02*
X10270182Y-15736127D01*
X10270182Y-15736127D02*
X10260658Y-15707555D01*
X10260658Y-15707555D02*
X10251134Y-15688508D01*
X10251134Y-15688508D02*
X10232087Y-15659936D01*
X10232087Y-15659936D02*
X10222563Y-15650412D01*
D15*
X5277500Y-15966500D02*
X5447500Y-16136500D01*
X5447500Y-15966500D02*
X5277500Y-16136500D01*
X5362500Y-15966500D02*
X5362500Y-16136500D01*
X5277500Y-16051500D02*
X5447500Y-16051500D01*
D11*
X5813039Y-16142984D02*
X5698753Y-16142984D01*
X5755896Y-16142984D02*
X5755896Y-15942984D01*
X5755896Y-15942984D02*
X5736848Y-15971555D01*
X5736848Y-15971555D02*
X5717801Y-15990603D01*
X5717801Y-15990603D02*
X5698753Y-16000127D01*
X5898753Y-16123936D02*
X5908277Y-16133460D01*
X5908277Y-16133460D02*
X5898753Y-16142984D01*
X5898753Y-16142984D02*
X5889229Y-16133460D01*
X5889229Y-16133460D02*
X5898753Y-16123936D01*
X5898753Y-16123936D02*
X5898753Y-16142984D01*
X5974943Y-15942984D02*
X6108277Y-15942984D01*
X6108277Y-15942984D02*
X6022562Y-16142984D01*
X6222562Y-15942984D02*
X6241610Y-15942984D01*
X6241610Y-15942984D02*
X6260658Y-15952508D01*
X6260658Y-15952508D02*
X6270182Y-15962031D01*
X6270182Y-15962031D02*
X6279705Y-15981079D01*
X6279705Y-15981079D02*
X6289229Y-16019174D01*
X6289229Y-16019174D02*
X6289229Y-16066793D01*
X6289229Y-16066793D02*
X6279705Y-16104888D01*
X6279705Y-16104888D02*
X6270182Y-16123936D01*
X6270182Y-16123936D02*
X6260658Y-16133460D01*
X6260658Y-16133460D02*
X6241610Y-16142984D01*
X6241610Y-16142984D02*
X6222562Y-16142984D01*
X6222562Y-16142984D02*
X6203515Y-16133460D01*
X6203515Y-16133460D02*
X6193991Y-16123936D01*
X6193991Y-16123936D02*
X6184467Y-16104888D01*
X6184467Y-16104888D02*
X6174943Y-16066793D01*
X6174943Y-16066793D02*
X6174943Y-16019174D01*
X6174943Y-16019174D02*
X6184467Y-15981079D01*
X6184467Y-15981079D02*
X6193991Y-15962031D01*
X6193991Y-15962031D02*
X6203515Y-15952508D01*
X6203515Y-15952508D02*
X6222562Y-15942984D01*
X6413039Y-15942984D02*
X6432086Y-15942984D01*
X6432086Y-15942984D02*
X6451134Y-15952508D01*
X6451134Y-15952508D02*
X6460658Y-15962031D01*
X6460658Y-15962031D02*
X6470182Y-15981079D01*
X6470182Y-15981079D02*
X6479705Y-16019174D01*
X6479705Y-16019174D02*
X6479705Y-16066793D01*
X6479705Y-16066793D02*
X6470182Y-16104888D01*
X6470182Y-16104888D02*
X6460658Y-16123936D01*
X6460658Y-16123936D02*
X6451134Y-16133460D01*
X6451134Y-16133460D02*
X6432086Y-16142984D01*
X6432086Y-16142984D02*
X6413039Y-16142984D01*
X6413039Y-16142984D02*
X6393991Y-16133460D01*
X6393991Y-16133460D02*
X6384467Y-16123936D01*
X6384467Y-16123936D02*
X6374943Y-16104888D01*
X6374943Y-16104888D02*
X6365420Y-16066793D01*
X6365420Y-16066793D02*
X6365420Y-16019174D01*
X6365420Y-16019174D02*
X6374943Y-15981079D01*
X6374943Y-15981079D02*
X6384467Y-15962031D01*
X6384467Y-15962031D02*
X6393991Y-15952508D01*
X6393991Y-15952508D02*
X6413039Y-15942984D01*
X6565420Y-16142984D02*
X6565420Y-16009650D01*
X6565420Y-16028698D02*
X6574943Y-16019174D01*
X6574943Y-16019174D02*
X6593991Y-16009650D01*
X6593991Y-16009650D02*
X6622563Y-16009650D01*
X6622563Y-16009650D02*
X6641610Y-16019174D01*
X6641610Y-16019174D02*
X6651134Y-16038222D01*
X6651134Y-16038222D02*
X6651134Y-16142984D01*
X6651134Y-16038222D02*
X6660658Y-16019174D01*
X6660658Y-16019174D02*
X6679705Y-16009650D01*
X6679705Y-16009650D02*
X6708277Y-16009650D01*
X6708277Y-16009650D02*
X6727324Y-16019174D01*
X6727324Y-16019174D02*
X6736848Y-16038222D01*
X6736848Y-16038222D02*
X6736848Y-16142984D01*
X6832086Y-16142984D02*
X6832086Y-16009650D01*
X6832086Y-16028698D02*
X6841610Y-16019174D01*
X6841610Y-16019174D02*
X6860658Y-16009650D01*
X6860658Y-16009650D02*
X6889229Y-16009650D01*
X6889229Y-16009650D02*
X6908277Y-16019174D01*
X6908277Y-16019174D02*
X6917801Y-16038222D01*
X6917801Y-16038222D02*
X6917801Y-16142984D01*
X6917801Y-16038222D02*
X6927324Y-16019174D01*
X6927324Y-16019174D02*
X6946372Y-16009650D01*
X6946372Y-16009650D02*
X6974943Y-16009650D01*
X6974943Y-16009650D02*
X6993991Y-16019174D01*
X6993991Y-16019174D02*
X7003515Y-16038222D01*
X7003515Y-16038222D02*
X7003515Y-16142984D01*
X7393991Y-15933460D02*
X7222563Y-16190603D01*
X7651134Y-15942984D02*
X7670182Y-15942984D01*
X7670182Y-15942984D02*
X7689229Y-15952508D01*
X7689229Y-15952508D02*
X7698753Y-15962031D01*
X7698753Y-15962031D02*
X7708277Y-15981079D01*
X7708277Y-15981079D02*
X7717801Y-16019174D01*
X7717801Y-16019174D02*
X7717801Y-16066793D01*
X7717801Y-16066793D02*
X7708277Y-16104888D01*
X7708277Y-16104888D02*
X7698753Y-16123936D01*
X7698753Y-16123936D02*
X7689229Y-16133460D01*
X7689229Y-16133460D02*
X7670182Y-16142984D01*
X7670182Y-16142984D02*
X7651134Y-16142984D01*
X7651134Y-16142984D02*
X7632086Y-16133460D01*
X7632086Y-16133460D02*
X7622563Y-16123936D01*
X7622563Y-16123936D02*
X7613039Y-16104888D01*
X7613039Y-16104888D02*
X7603515Y-16066793D01*
X7603515Y-16066793D02*
X7603515Y-16019174D01*
X7603515Y-16019174D02*
X7613039Y-15981079D01*
X7613039Y-15981079D02*
X7622563Y-15962031D01*
X7622563Y-15962031D02*
X7632086Y-15952508D01*
X7632086Y-15952508D02*
X7651134Y-15942984D01*
X7803515Y-16123936D02*
X7813039Y-16133460D01*
X7813039Y-16133460D02*
X7803515Y-16142984D01*
X7803515Y-16142984D02*
X7793991Y-16133460D01*
X7793991Y-16133460D02*
X7803515Y-16123936D01*
X7803515Y-16123936D02*
X7803515Y-16142984D01*
X7936848Y-15942984D02*
X7955896Y-15942984D01*
X7955896Y-15942984D02*
X7974944Y-15952508D01*
X7974944Y-15952508D02*
X7984467Y-15962031D01*
X7984467Y-15962031D02*
X7993991Y-15981079D01*
X7993991Y-15981079D02*
X8003515Y-16019174D01*
X8003515Y-16019174D02*
X8003515Y-16066793D01*
X8003515Y-16066793D02*
X7993991Y-16104888D01*
X7993991Y-16104888D02*
X7984467Y-16123936D01*
X7984467Y-16123936D02*
X7974944Y-16133460D01*
X7974944Y-16133460D02*
X7955896Y-16142984D01*
X7955896Y-16142984D02*
X7936848Y-16142984D01*
X7936848Y-16142984D02*
X7917801Y-16133460D01*
X7917801Y-16133460D02*
X7908277Y-16123936D01*
X7908277Y-16123936D02*
X7898753Y-16104888D01*
X7898753Y-16104888D02*
X7889229Y-16066793D01*
X7889229Y-16066793D02*
X7889229Y-16019174D01*
X7889229Y-16019174D02*
X7898753Y-15981079D01*
X7898753Y-15981079D02*
X7908277Y-15962031D01*
X7908277Y-15962031D02*
X7917801Y-15952508D01*
X7917801Y-15952508D02*
X7936848Y-15942984D01*
X8174944Y-15942984D02*
X8136848Y-15942984D01*
X8136848Y-15942984D02*
X8117801Y-15952508D01*
X8117801Y-15952508D02*
X8108277Y-15962031D01*
X8108277Y-15962031D02*
X8089229Y-15990603D01*
X8089229Y-15990603D02*
X8079706Y-16028698D01*
X8079706Y-16028698D02*
X8079706Y-16104888D01*
X8079706Y-16104888D02*
X8089229Y-16123936D01*
X8089229Y-16123936D02*
X8098753Y-16133460D01*
X8098753Y-16133460D02*
X8117801Y-16142984D01*
X8117801Y-16142984D02*
X8155896Y-16142984D01*
X8155896Y-16142984D02*
X8174944Y-16133460D01*
X8174944Y-16133460D02*
X8184467Y-16123936D01*
X8184467Y-16123936D02*
X8193991Y-16104888D01*
X8193991Y-16104888D02*
X8193991Y-16057269D01*
X8193991Y-16057269D02*
X8184467Y-16038222D01*
X8184467Y-16038222D02*
X8174944Y-16028698D01*
X8174944Y-16028698D02*
X8155896Y-16019174D01*
X8155896Y-16019174D02*
X8117801Y-16019174D01*
X8117801Y-16019174D02*
X8098753Y-16028698D01*
X8098753Y-16028698D02*
X8089229Y-16038222D01*
X8089229Y-16038222D02*
X8079706Y-16057269D01*
X8365420Y-15942984D02*
X8327325Y-15942984D01*
X8327325Y-15942984D02*
X8308277Y-15952508D01*
X8308277Y-15952508D02*
X8298753Y-15962031D01*
X8298753Y-15962031D02*
X8279706Y-15990603D01*
X8279706Y-15990603D02*
X8270182Y-16028698D01*
X8270182Y-16028698D02*
X8270182Y-16104888D01*
X8270182Y-16104888D02*
X8279706Y-16123936D01*
X8279706Y-16123936D02*
X8289229Y-16133460D01*
X8289229Y-16133460D02*
X8308277Y-16142984D01*
X8308277Y-16142984D02*
X8346372Y-16142984D01*
X8346372Y-16142984D02*
X8365420Y-16133460D01*
X8365420Y-16133460D02*
X8374944Y-16123936D01*
X8374944Y-16123936D02*
X8384467Y-16104888D01*
X8384467Y-16104888D02*
X8384467Y-16057269D01*
X8384467Y-16057269D02*
X8374944Y-16038222D01*
X8374944Y-16038222D02*
X8365420Y-16028698D01*
X8365420Y-16028698D02*
X8346372Y-16019174D01*
X8346372Y-16019174D02*
X8308277Y-16019174D01*
X8308277Y-16019174D02*
X8289229Y-16028698D01*
X8289229Y-16028698D02*
X8279706Y-16038222D01*
X8279706Y-16038222D02*
X8270182Y-16057269D01*
X8479706Y-16142984D02*
X8517801Y-16142984D01*
X8517801Y-16142984D02*
X8536849Y-16133460D01*
X8536849Y-16133460D02*
X8546372Y-16123936D01*
X8546372Y-16123936D02*
X8565420Y-16095365D01*
X8565420Y-16095365D02*
X8574944Y-16057269D01*
X8574944Y-16057269D02*
X8574944Y-15981079D01*
X8574944Y-15981079D02*
X8565420Y-15962031D01*
X8565420Y-15962031D02*
X8555896Y-15952508D01*
X8555896Y-15952508D02*
X8536849Y-15942984D01*
X8536849Y-15942984D02*
X8498753Y-15942984D01*
X8498753Y-15942984D02*
X8479706Y-15952508D01*
X8479706Y-15952508D02*
X8470182Y-15962031D01*
X8470182Y-15962031D02*
X8460658Y-15981079D01*
X8460658Y-15981079D02*
X8460658Y-16028698D01*
X8460658Y-16028698D02*
X8470182Y-16047746D01*
X8470182Y-16047746D02*
X8479706Y-16057269D01*
X8479706Y-16057269D02*
X8498753Y-16066793D01*
X8498753Y-16066793D02*
X8536849Y-16066793D01*
X8536849Y-16066793D02*
X8555896Y-16057269D01*
X8555896Y-16057269D02*
X8565420Y-16047746D01*
X8565420Y-16047746D02*
X8574944Y-16028698D01*
X8651134Y-15942984D02*
X8651134Y-15981079D01*
X8727325Y-15942984D02*
X8727325Y-15981079D01*
X9022563Y-16219174D02*
X9013039Y-16209650D01*
X9013039Y-16209650D02*
X8993991Y-16181079D01*
X8993991Y-16181079D02*
X8984468Y-16162031D01*
X8984468Y-16162031D02*
X8974944Y-16133460D01*
X8974944Y-16133460D02*
X8965420Y-16085841D01*
X8965420Y-16085841D02*
X8965420Y-16047746D01*
X8965420Y-16047746D02*
X8974944Y-16000127D01*
X8974944Y-16000127D02*
X8984468Y-15971555D01*
X8984468Y-15971555D02*
X8993991Y-15952508D01*
X8993991Y-15952508D02*
X9013039Y-15923936D01*
X9013039Y-15923936D02*
X9022563Y-15914412D01*
X9203515Y-16142984D02*
X9089230Y-16142984D01*
X9146372Y-16142984D02*
X9146372Y-15942984D01*
X9146372Y-15942984D02*
X9127325Y-15971555D01*
X9127325Y-15971555D02*
X9108277Y-15990603D01*
X9108277Y-15990603D02*
X9089230Y-16000127D01*
X9393991Y-16142984D02*
X9279706Y-16142984D01*
X9336849Y-16142984D02*
X9336849Y-15942984D01*
X9336849Y-15942984D02*
X9317801Y-15971555D01*
X9317801Y-15971555D02*
X9298753Y-15990603D01*
X9298753Y-15990603D02*
X9279706Y-16000127D01*
X9632087Y-16142984D02*
X9632087Y-15942984D01*
X9717801Y-16142984D02*
X9717801Y-16038222D01*
X9717801Y-16038222D02*
X9708277Y-16019174D01*
X9708277Y-16019174D02*
X9689230Y-16009650D01*
X9689230Y-16009650D02*
X9660658Y-16009650D01*
X9660658Y-16009650D02*
X9641611Y-16019174D01*
X9641611Y-16019174D02*
X9632087Y-16028698D01*
X9841611Y-16142984D02*
X9822563Y-16133460D01*
X9822563Y-16133460D02*
X9813039Y-16123936D01*
X9813039Y-16123936D02*
X9803515Y-16104888D01*
X9803515Y-16104888D02*
X9803515Y-16047746D01*
X9803515Y-16047746D02*
X9813039Y-16028698D01*
X9813039Y-16028698D02*
X9822563Y-16019174D01*
X9822563Y-16019174D02*
X9841611Y-16009650D01*
X9841611Y-16009650D02*
X9870182Y-16009650D01*
X9870182Y-16009650D02*
X9889230Y-16019174D01*
X9889230Y-16019174D02*
X9898753Y-16028698D01*
X9898753Y-16028698D02*
X9908277Y-16047746D01*
X9908277Y-16047746D02*
X9908277Y-16104888D01*
X9908277Y-16104888D02*
X9898753Y-16123936D01*
X9898753Y-16123936D02*
X9889230Y-16133460D01*
X9889230Y-16133460D02*
X9870182Y-16142984D01*
X9870182Y-16142984D02*
X9841611Y-16142984D01*
X10022563Y-16142984D02*
X10003515Y-16133460D01*
X10003515Y-16133460D02*
X9993992Y-16114412D01*
X9993992Y-16114412D02*
X9993992Y-15942984D01*
X10174944Y-16133460D02*
X10155896Y-16142984D01*
X10155896Y-16142984D02*
X10117801Y-16142984D01*
X10117801Y-16142984D02*
X10098753Y-16133460D01*
X10098753Y-16133460D02*
X10089230Y-16114412D01*
X10089230Y-16114412D02*
X10089230Y-16038222D01*
X10089230Y-16038222D02*
X10098753Y-16019174D01*
X10098753Y-16019174D02*
X10117801Y-16009650D01*
X10117801Y-16009650D02*
X10155896Y-16009650D01*
X10155896Y-16009650D02*
X10174944Y-16019174D01*
X10174944Y-16019174D02*
X10184468Y-16038222D01*
X10184468Y-16038222D02*
X10184468Y-16057269D01*
X10184468Y-16057269D02*
X10089230Y-16076317D01*
X10260658Y-16133460D02*
X10279706Y-16142984D01*
X10279706Y-16142984D02*
X10317801Y-16142984D01*
X10317801Y-16142984D02*
X10336849Y-16133460D01*
X10336849Y-16133460D02*
X10346373Y-16114412D01*
X10346373Y-16114412D02*
X10346373Y-16104888D01*
X10346373Y-16104888D02*
X10336849Y-16085841D01*
X10336849Y-16085841D02*
X10317801Y-16076317D01*
X10317801Y-16076317D02*
X10289230Y-16076317D01*
X10289230Y-16076317D02*
X10270182Y-16066793D01*
X10270182Y-16066793D02*
X10260658Y-16047746D01*
X10260658Y-16047746D02*
X10260658Y-16038222D01*
X10260658Y-16038222D02*
X10270182Y-16019174D01*
X10270182Y-16019174D02*
X10289230Y-16009650D01*
X10289230Y-16009650D02*
X10317801Y-16009650D01*
X10317801Y-16009650D02*
X10336849Y-16019174D01*
X10413039Y-16219174D02*
X10422563Y-16209650D01*
X10422563Y-16209650D02*
X10441611Y-16181079D01*
X10441611Y-16181079D02*
X10451134Y-16162031D01*
X10451134Y-16162031D02*
X10460658Y-16133460D01*
X10460658Y-16133460D02*
X10470182Y-16085841D01*
X10470182Y-16085841D02*
X10470182Y-16047746D01*
X10470182Y-16047746D02*
X10460658Y-16000127D01*
X10460658Y-16000127D02*
X10451134Y-15971555D01*
X10451134Y-15971555D02*
X10441611Y-15952508D01*
X10441611Y-15952508D02*
X10422563Y-15923936D01*
X10422563Y-15923936D02*
X10413039Y-15914412D01*
X5247500Y-16241500D02*
X5447500Y-16441500D01*
X5447500Y-16241500D02*
X5247500Y-16441500D01*
X5418211Y-16412211D02*
X5418211Y-16270789D01*
X5276789Y-16270789D01*
X5276789Y-16412211D01*
X5418211Y-16412211D01*
X5689229Y-16232984D02*
X5813039Y-16232984D01*
X5813039Y-16232984D02*
X5746372Y-16309174D01*
X5746372Y-16309174D02*
X5774943Y-16309174D01*
X5774943Y-16309174D02*
X5793991Y-16318698D01*
X5793991Y-16318698D02*
X5803515Y-16328222D01*
X5803515Y-16328222D02*
X5813039Y-16347269D01*
X5813039Y-16347269D02*
X5813039Y-16394888D01*
X5813039Y-16394888D02*
X5803515Y-16413936D01*
X5803515Y-16413936D02*
X5793991Y-16423460D01*
X5793991Y-16423460D02*
X5774943Y-16432984D01*
X5774943Y-16432984D02*
X5717801Y-16432984D01*
X5717801Y-16432984D02*
X5698753Y-16423460D01*
X5698753Y-16423460D02*
X5689229Y-16413936D01*
X5898753Y-16413936D02*
X5908277Y-16423460D01*
X5908277Y-16423460D02*
X5898753Y-16432984D01*
X5898753Y-16432984D02*
X5889229Y-16423460D01*
X5889229Y-16423460D02*
X5898753Y-16413936D01*
X5898753Y-16413936D02*
X5898753Y-16432984D01*
X5984467Y-16252031D02*
X5993991Y-16242508D01*
X5993991Y-16242508D02*
X6013039Y-16232984D01*
X6013039Y-16232984D02*
X6060658Y-16232984D01*
X6060658Y-16232984D02*
X6079705Y-16242508D01*
X6079705Y-16242508D02*
X6089229Y-16252031D01*
X6089229Y-16252031D02*
X6098753Y-16271079D01*
X6098753Y-16271079D02*
X6098753Y-16290127D01*
X6098753Y-16290127D02*
X6089229Y-16318698D01*
X6089229Y-16318698D02*
X5974943Y-16432984D01*
X5974943Y-16432984D02*
X6098753Y-16432984D01*
X6222562Y-16232984D02*
X6241610Y-16232984D01*
X6241610Y-16232984D02*
X6260658Y-16242508D01*
X6260658Y-16242508D02*
X6270182Y-16252031D01*
X6270182Y-16252031D02*
X6279705Y-16271079D01*
X6279705Y-16271079D02*
X6289229Y-16309174D01*
X6289229Y-16309174D02*
X6289229Y-16356793D01*
X6289229Y-16356793D02*
X6279705Y-16394888D01*
X6279705Y-16394888D02*
X6270182Y-16413936D01*
X6270182Y-16413936D02*
X6260658Y-16423460D01*
X6260658Y-16423460D02*
X6241610Y-16432984D01*
X6241610Y-16432984D02*
X6222562Y-16432984D01*
X6222562Y-16432984D02*
X6203515Y-16423460D01*
X6203515Y-16423460D02*
X6193991Y-16413936D01*
X6193991Y-16413936D02*
X6184467Y-16394888D01*
X6184467Y-16394888D02*
X6174943Y-16356793D01*
X6174943Y-16356793D02*
X6174943Y-16309174D01*
X6174943Y-16309174D02*
X6184467Y-16271079D01*
X6184467Y-16271079D02*
X6193991Y-16252031D01*
X6193991Y-16252031D02*
X6203515Y-16242508D01*
X6203515Y-16242508D02*
X6222562Y-16232984D01*
X6413039Y-16232984D02*
X6432086Y-16232984D01*
X6432086Y-16232984D02*
X6451134Y-16242508D01*
X6451134Y-16242508D02*
X6460658Y-16252031D01*
X6460658Y-16252031D02*
X6470182Y-16271079D01*
X6470182Y-16271079D02*
X6479705Y-16309174D01*
X6479705Y-16309174D02*
X6479705Y-16356793D01*
X6479705Y-16356793D02*
X6470182Y-16394888D01*
X6470182Y-16394888D02*
X6460658Y-16413936D01*
X6460658Y-16413936D02*
X6451134Y-16423460D01*
X6451134Y-16423460D02*
X6432086Y-16432984D01*
X6432086Y-16432984D02*
X6413039Y-16432984D01*
X6413039Y-16432984D02*
X6393991Y-16423460D01*
X6393991Y-16423460D02*
X6384467Y-16413936D01*
X6384467Y-16413936D02*
X6374943Y-16394888D01*
X6374943Y-16394888D02*
X6365420Y-16356793D01*
X6365420Y-16356793D02*
X6365420Y-16309174D01*
X6365420Y-16309174D02*
X6374943Y-16271079D01*
X6374943Y-16271079D02*
X6384467Y-16252031D01*
X6384467Y-16252031D02*
X6393991Y-16242508D01*
X6393991Y-16242508D02*
X6413039Y-16232984D01*
X6565420Y-16432984D02*
X6565420Y-16299650D01*
X6565420Y-16318698D02*
X6574943Y-16309174D01*
X6574943Y-16309174D02*
X6593991Y-16299650D01*
X6593991Y-16299650D02*
X6622563Y-16299650D01*
X6622563Y-16299650D02*
X6641610Y-16309174D01*
X6641610Y-16309174D02*
X6651134Y-16328222D01*
X6651134Y-16328222D02*
X6651134Y-16432984D01*
X6651134Y-16328222D02*
X6660658Y-16309174D01*
X6660658Y-16309174D02*
X6679705Y-16299650D01*
X6679705Y-16299650D02*
X6708277Y-16299650D01*
X6708277Y-16299650D02*
X6727324Y-16309174D01*
X6727324Y-16309174D02*
X6736848Y-16328222D01*
X6736848Y-16328222D02*
X6736848Y-16432984D01*
X6832086Y-16432984D02*
X6832086Y-16299650D01*
X6832086Y-16318698D02*
X6841610Y-16309174D01*
X6841610Y-16309174D02*
X6860658Y-16299650D01*
X6860658Y-16299650D02*
X6889229Y-16299650D01*
X6889229Y-16299650D02*
X6908277Y-16309174D01*
X6908277Y-16309174D02*
X6917801Y-16328222D01*
X6917801Y-16328222D02*
X6917801Y-16432984D01*
X6917801Y-16328222D02*
X6927324Y-16309174D01*
X6927324Y-16309174D02*
X6946372Y-16299650D01*
X6946372Y-16299650D02*
X6974943Y-16299650D01*
X6974943Y-16299650D02*
X6993991Y-16309174D01*
X6993991Y-16309174D02*
X7003515Y-16328222D01*
X7003515Y-16328222D02*
X7003515Y-16432984D01*
X7393991Y-16223460D02*
X7222563Y-16480603D01*
X7651134Y-16232984D02*
X7670182Y-16232984D01*
X7670182Y-16232984D02*
X7689229Y-16242508D01*
X7689229Y-16242508D02*
X7698753Y-16252031D01*
X7698753Y-16252031D02*
X7708277Y-16271079D01*
X7708277Y-16271079D02*
X7717801Y-16309174D01*
X7717801Y-16309174D02*
X7717801Y-16356793D01*
X7717801Y-16356793D02*
X7708277Y-16394888D01*
X7708277Y-16394888D02*
X7698753Y-16413936D01*
X7698753Y-16413936D02*
X7689229Y-16423460D01*
X7689229Y-16423460D02*
X7670182Y-16432984D01*
X7670182Y-16432984D02*
X7651134Y-16432984D01*
X7651134Y-16432984D02*
X7632086Y-16423460D01*
X7632086Y-16423460D02*
X7622563Y-16413936D01*
X7622563Y-16413936D02*
X7613039Y-16394888D01*
X7613039Y-16394888D02*
X7603515Y-16356793D01*
X7603515Y-16356793D02*
X7603515Y-16309174D01*
X7603515Y-16309174D02*
X7613039Y-16271079D01*
X7613039Y-16271079D02*
X7622563Y-16252031D01*
X7622563Y-16252031D02*
X7632086Y-16242508D01*
X7632086Y-16242508D02*
X7651134Y-16232984D01*
X7803515Y-16413936D02*
X7813039Y-16423460D01*
X7813039Y-16423460D02*
X7803515Y-16432984D01*
X7803515Y-16432984D02*
X7793991Y-16423460D01*
X7793991Y-16423460D02*
X7803515Y-16413936D01*
X7803515Y-16413936D02*
X7803515Y-16432984D01*
X8003515Y-16432984D02*
X7889229Y-16432984D01*
X7946372Y-16432984D02*
X7946372Y-16232984D01*
X7946372Y-16232984D02*
X7927325Y-16261555D01*
X7927325Y-16261555D02*
X7908277Y-16280603D01*
X7908277Y-16280603D02*
X7889229Y-16290127D01*
X8079706Y-16252031D02*
X8089229Y-16242508D01*
X8089229Y-16242508D02*
X8108277Y-16232984D01*
X8108277Y-16232984D02*
X8155896Y-16232984D01*
X8155896Y-16232984D02*
X8174944Y-16242508D01*
X8174944Y-16242508D02*
X8184467Y-16252031D01*
X8184467Y-16252031D02*
X8193991Y-16271079D01*
X8193991Y-16271079D02*
X8193991Y-16290127D01*
X8193991Y-16290127D02*
X8184467Y-16318698D01*
X8184467Y-16318698D02*
X8070182Y-16432984D01*
X8070182Y-16432984D02*
X8193991Y-16432984D01*
X8365420Y-16232984D02*
X8327325Y-16232984D01*
X8327325Y-16232984D02*
X8308277Y-16242508D01*
X8308277Y-16242508D02*
X8298753Y-16252031D01*
X8298753Y-16252031D02*
X8279706Y-16280603D01*
X8279706Y-16280603D02*
X8270182Y-16318698D01*
X8270182Y-16318698D02*
X8270182Y-16394888D01*
X8270182Y-16394888D02*
X8279706Y-16413936D01*
X8279706Y-16413936D02*
X8289229Y-16423460D01*
X8289229Y-16423460D02*
X8308277Y-16432984D01*
X8308277Y-16432984D02*
X8346372Y-16432984D01*
X8346372Y-16432984D02*
X8365420Y-16423460D01*
X8365420Y-16423460D02*
X8374944Y-16413936D01*
X8374944Y-16413936D02*
X8384467Y-16394888D01*
X8384467Y-16394888D02*
X8384467Y-16347269D01*
X8384467Y-16347269D02*
X8374944Y-16328222D01*
X8374944Y-16328222D02*
X8365420Y-16318698D01*
X8365420Y-16318698D02*
X8346372Y-16309174D01*
X8346372Y-16309174D02*
X8308277Y-16309174D01*
X8308277Y-16309174D02*
X8289229Y-16318698D01*
X8289229Y-16318698D02*
X8279706Y-16328222D01*
X8279706Y-16328222D02*
X8270182Y-16347269D01*
X8508277Y-16232984D02*
X8527325Y-16232984D01*
X8527325Y-16232984D02*
X8546372Y-16242508D01*
X8546372Y-16242508D02*
X8555896Y-16252031D01*
X8555896Y-16252031D02*
X8565420Y-16271079D01*
X8565420Y-16271079D02*
X8574944Y-16309174D01*
X8574944Y-16309174D02*
X8574944Y-16356793D01*
X8574944Y-16356793D02*
X8565420Y-16394888D01*
X8565420Y-16394888D02*
X8555896Y-16413936D01*
X8555896Y-16413936D02*
X8546372Y-16423460D01*
X8546372Y-16423460D02*
X8527325Y-16432984D01*
X8527325Y-16432984D02*
X8508277Y-16432984D01*
X8508277Y-16432984D02*
X8489229Y-16423460D01*
X8489229Y-16423460D02*
X8479706Y-16413936D01*
X8479706Y-16413936D02*
X8470182Y-16394888D01*
X8470182Y-16394888D02*
X8460658Y-16356793D01*
X8460658Y-16356793D02*
X8460658Y-16309174D01*
X8460658Y-16309174D02*
X8470182Y-16271079D01*
X8470182Y-16271079D02*
X8479706Y-16252031D01*
X8479706Y-16252031D02*
X8489229Y-16242508D01*
X8489229Y-16242508D02*
X8508277Y-16232984D01*
X8651134Y-16232984D02*
X8651134Y-16271079D01*
X8727325Y-16232984D02*
X8727325Y-16271079D01*
X9022563Y-16509174D02*
X9013039Y-16499650D01*
X9013039Y-16499650D02*
X8993991Y-16471079D01*
X8993991Y-16471079D02*
X8984468Y-16452031D01*
X8984468Y-16452031D02*
X8974944Y-16423460D01*
X8974944Y-16423460D02*
X8965420Y-16375841D01*
X8965420Y-16375841D02*
X8965420Y-16337746D01*
X8965420Y-16337746D02*
X8974944Y-16290127D01*
X8974944Y-16290127D02*
X8984468Y-16261555D01*
X8984468Y-16261555D02*
X8993991Y-16242508D01*
X8993991Y-16242508D02*
X9013039Y-16213936D01*
X9013039Y-16213936D02*
X9022563Y-16204412D01*
X9193991Y-16232984D02*
X9098753Y-16232984D01*
X9098753Y-16232984D02*
X9089230Y-16328222D01*
X9089230Y-16328222D02*
X9098753Y-16318698D01*
X9098753Y-16318698D02*
X9117801Y-16309174D01*
X9117801Y-16309174D02*
X9165420Y-16309174D01*
X9165420Y-16309174D02*
X9184468Y-16318698D01*
X9184468Y-16318698D02*
X9193991Y-16328222D01*
X9193991Y-16328222D02*
X9203515Y-16347269D01*
X9203515Y-16347269D02*
X9203515Y-16394888D01*
X9203515Y-16394888D02*
X9193991Y-16413936D01*
X9193991Y-16413936D02*
X9184468Y-16423460D01*
X9184468Y-16423460D02*
X9165420Y-16432984D01*
X9165420Y-16432984D02*
X9117801Y-16432984D01*
X9117801Y-16432984D02*
X9098753Y-16423460D01*
X9098753Y-16423460D02*
X9089230Y-16413936D01*
X9441611Y-16432984D02*
X9441611Y-16232984D01*
X9527325Y-16432984D02*
X9527325Y-16328222D01*
X9527325Y-16328222D02*
X9517801Y-16309174D01*
X9517801Y-16309174D02*
X9498753Y-16299650D01*
X9498753Y-16299650D02*
X9470182Y-16299650D01*
X9470182Y-16299650D02*
X9451134Y-16309174D01*
X9451134Y-16309174D02*
X9441611Y-16318698D01*
X9651134Y-16432984D02*
X9632087Y-16423460D01*
X9632087Y-16423460D02*
X9622563Y-16413936D01*
X9622563Y-16413936D02*
X9613039Y-16394888D01*
X9613039Y-16394888D02*
X9613039Y-16337746D01*
X9613039Y-16337746D02*
X9622563Y-16318698D01*
X9622563Y-16318698D02*
X9632087Y-16309174D01*
X9632087Y-16309174D02*
X9651134Y-16299650D01*
X9651134Y-16299650D02*
X9679706Y-16299650D01*
X9679706Y-16299650D02*
X9698753Y-16309174D01*
X9698753Y-16309174D02*
X9708277Y-16318698D01*
X9708277Y-16318698D02*
X9717801Y-16337746D01*
X9717801Y-16337746D02*
X9717801Y-16394888D01*
X9717801Y-16394888D02*
X9708277Y-16413936D01*
X9708277Y-16413936D02*
X9698753Y-16423460D01*
X9698753Y-16423460D02*
X9679706Y-16432984D01*
X9679706Y-16432984D02*
X9651134Y-16432984D01*
X9832087Y-16432984D02*
X9813039Y-16423460D01*
X9813039Y-16423460D02*
X9803515Y-16404412D01*
X9803515Y-16404412D02*
X9803515Y-16232984D01*
X9984468Y-16423460D02*
X9965420Y-16432984D01*
X9965420Y-16432984D02*
X9927325Y-16432984D01*
X9927325Y-16432984D02*
X9908277Y-16423460D01*
X9908277Y-16423460D02*
X9898753Y-16404412D01*
X9898753Y-16404412D02*
X9898753Y-16328222D01*
X9898753Y-16328222D02*
X9908277Y-16309174D01*
X9908277Y-16309174D02*
X9927325Y-16299650D01*
X9927325Y-16299650D02*
X9965420Y-16299650D01*
X9965420Y-16299650D02*
X9984468Y-16309174D01*
X9984468Y-16309174D02*
X9993992Y-16328222D01*
X9993992Y-16328222D02*
X9993992Y-16347269D01*
X9993992Y-16347269D02*
X9898753Y-16366317D01*
X10070182Y-16423460D02*
X10089230Y-16432984D01*
X10089230Y-16432984D02*
X10127325Y-16432984D01*
X10127325Y-16432984D02*
X10146373Y-16423460D01*
X10146373Y-16423460D02*
X10155896Y-16404412D01*
X10155896Y-16404412D02*
X10155896Y-16394888D01*
X10155896Y-16394888D02*
X10146373Y-16375841D01*
X10146373Y-16375841D02*
X10127325Y-16366317D01*
X10127325Y-16366317D02*
X10098753Y-16366317D01*
X10098753Y-16366317D02*
X10079706Y-16356793D01*
X10079706Y-16356793D02*
X10070182Y-16337746D01*
X10070182Y-16337746D02*
X10070182Y-16328222D01*
X10070182Y-16328222D02*
X10079706Y-16309174D01*
X10079706Y-16309174D02*
X10098753Y-16299650D01*
X10098753Y-16299650D02*
X10127325Y-16299650D01*
X10127325Y-16299650D02*
X10146373Y-16309174D01*
X10222563Y-16509174D02*
X10232087Y-16499650D01*
X10232087Y-16499650D02*
X10251134Y-16471079D01*
X10251134Y-16471079D02*
X10260658Y-16452031D01*
X10260658Y-16452031D02*
X10270182Y-16423460D01*
X10270182Y-16423460D02*
X10279706Y-16375841D01*
X10279706Y-16375841D02*
X10279706Y-16337746D01*
X10279706Y-16337746D02*
X10270182Y-16290127D01*
X10270182Y-16290127D02*
X10260658Y-16261555D01*
X10260658Y-16261555D02*
X10251134Y-16242508D01*
X10251134Y-16242508D02*
X10232087Y-16213936D01*
X10232087Y-16213936D02*
X10222563Y-16204412D01*
M02*
