M48
; DRILL file {KiCad 9.0.1} date 2026-03-07T23:10:38+0100
; FORMAT={-:-/ absolute / metric / decimal}
; #@! TF.CreationDate,2026-03-07T23:10:38+01:00
; #@! TF.GenerationSoftware,Kicad,Pcbnew,9.0.1
; #@! TF.FileFunction,Plated,1,2,PTH
FMAT,2
METRIC
; #@! TA.AperFunction,Plated,PTH,ViaDrill
T1C0.300
; #@! TA.AperFunction,Plated,PTH,ComponentDrill
T2C0.800
; #@! TA.AperFunction,Plated,PTH,ComponentDrill
T3C0.850
; #@! TA.AperFunction,Plated,PTH,ComponentDrill
T4C1.000
; #@! TA.AperFunction,Plated,PTH,ComponentDrill
T5C1.200
; #@! TA.AperFunction,Plated,PTH,ComponentDrill
T6C1.300
; #@! TA.AperFunction,Plated,PTH,ComponentDrill
T7C1.700
; #@! TA.AperFunction,Plated,PTH,ComponentDrill
T8C3.200
%
G90
G05
T1
X63.2Y-56.3
X65.2Y-60.0
X65.225Y-63.425
X67.0Y-87.0
X67.0Y-89.0
X67.0Y-91.0
X67.0Y-93.0
X67.0Y-95.0
X67.0Y-97.0
X67.0Y-99.0
X67.0Y-101.0
X67.0Y-103.0
X67.0Y-105.0
X69.9Y-62.375
X80.4Y-79.675
X80.4Y-82.225
X81.675Y-83.85
X82.0Y-85.0
X82.0Y-87.0
X82.0Y-108.0
X82.0Y-110.0
X82.0Y-120.0
X82.0Y-130.0
X82.0Y-132.0
X82.0Y-134.0
X82.55Y-103.925
X82.57Y-125.462
X82.625Y-114.8
X82.65Y-75.325
X82.675Y-93.45
X84.0Y-87.0
X84.0Y-89.0
X84.0Y-97.0
X84.0Y-99.0
X84.0Y-108.0
X84.0Y-110.0
X84.0Y-118.0
X84.0Y-120.0
X84.0Y-130.0
X84.0Y-132.0
X84.0Y-134.0
X85.625Y-89.65
X85.7Y-111.0
X85.72Y-121.637
X85.75Y-71.5
X85.775Y-100.1
X86.0Y-83.85
X86.0Y-97.0
X86.0Y-99.0
X86.0Y-108.0
X86.0Y-110.0
X86.0Y-120.0
X86.0Y-130.0
X86.0Y-132.0
X86.0Y-134.0
X98.0Y-50.0
X98.0Y-52.0
X98.0Y-58.0
X100.0Y-46.0
X100.0Y-48.0
X100.0Y-50.0
X100.0Y-52.0
X100.0Y-54.0
X100.0Y-56.0
X100.0Y-58.0
X101.05Y-50.375
X101.05Y-82.025
X102.0Y-46.0
X102.0Y-48.0
X102.125Y-78.725
X102.425Y-52.2
X103.0Y-87.0
X103.0Y-89.0
X103.0Y-91.0
X103.0Y-93.0
X103.0Y-95.0
X103.0Y-97.0
X103.0Y-99.0
X103.0Y-101.0
X103.0Y-103.0
X103.0Y-105.0
X103.0Y-107.0
X103.0Y-109.0
X103.0Y-111.0
X103.0Y-113.0
X103.0Y-115.0
X103.0Y-117.0
X103.0Y-119.0
X103.0Y-121.0
X103.0Y-123.0
X103.0Y-125.0
X103.0Y-127.0
X103.0Y-129.0
X103.0Y-131.0
X103.0Y-133.0
X104.0Y-46.0
X104.695Y-48.625
X105.0Y-87.0
X105.0Y-89.0
X105.0Y-91.0
X105.0Y-93.0
X105.0Y-95.0
X105.0Y-97.0
X105.0Y-99.0
X105.0Y-101.0
X105.0Y-103.0
X105.0Y-105.0
X105.0Y-107.0
X105.0Y-109.0
X105.0Y-111.0
X105.0Y-113.0
X105.0Y-115.0
X105.0Y-117.0
X105.0Y-119.0
X105.0Y-121.0
X105.0Y-123.0
X105.0Y-125.0
X105.0Y-127.0
X105.0Y-129.0
X105.0Y-131.0
X105.0Y-133.0
X105.965Y-53.775
X107.0Y-87.0
X107.0Y-89.0
X107.0Y-91.0
X107.0Y-93.0
X107.0Y-95.0
X107.0Y-97.0
X107.0Y-99.0
X107.0Y-101.0
X107.0Y-103.0
X107.0Y-105.0
X107.0Y-107.0
X107.0Y-109.0
X107.0Y-111.0
X107.0Y-113.0
X107.0Y-115.0
X107.0Y-117.0
X107.0Y-119.0
X107.0Y-121.0
X107.0Y-123.0
X107.0Y-125.0
X107.0Y-127.0
X107.0Y-129.0
X107.0Y-131.0
X107.0Y-133.0
X108.438Y-44.4
X108.438Y-58.0
X115.75Y-53.25
X115.75Y-54.25
X116.0Y-48.75
X116.0Y-49.75
X116.0Y-50.75
X116.725Y-83.875
X116.75Y-53.25
X116.75Y-54.25
X117.0Y-48.75
X117.0Y-49.75
X117.0Y-50.75
X117.75Y-53.25
X117.75Y-54.25
X118.0Y-48.75
X118.0Y-49.75
X118.0Y-50.75
X118.575Y-85.675
X118.75Y-53.25
X118.75Y-54.25
X119.0Y-48.75
X119.0Y-49.75
X119.0Y-50.75
X119.75Y-53.25
X119.75Y-54.25
X120.0Y-48.75
X120.0Y-49.75
X120.0Y-50.75
X120.75Y-53.25
X120.75Y-54.25
X121.0Y-48.75
X121.0Y-49.75
X121.0Y-50.75
X121.75Y-53.25
X121.75Y-54.25
X121.75Y-79.525
X121.75Y-82.45
X122.0Y-42.0
X122.0Y-48.75
X122.0Y-49.75
X122.0Y-50.75
X122.0Y-61.0
X122.75Y-53.25
X122.75Y-54.25
X123.0Y-42.0
X123.0Y-48.75
X123.0Y-49.75
X123.0Y-50.75
X123.0Y-61.0
X123.75Y-53.25
X123.75Y-54.25
X123.97Y-125.512
X124.0Y-42.0
X124.0Y-48.75
X124.0Y-49.75
X124.0Y-50.75
X124.0Y-61.0
X124.0Y-87.0
X124.0Y-89.0
X124.0Y-93.825
X124.0Y-109.0
X124.0Y-119.0
X124.0Y-131.0
X124.0Y-133.0
X124.0Y-135.0
X124.05Y-103.9
X124.075Y-114.825
X124.75Y-53.25
X124.75Y-54.25
X125.0Y-42.0
X125.0Y-48.75
X125.0Y-49.75
X125.0Y-50.75
X125.0Y-61.0
X125.75Y-53.25
X125.75Y-54.25
X126.0Y-42.0
X126.0Y-48.75
X126.0Y-49.75
X126.0Y-50.75
X126.0Y-61.0
X126.0Y-87.0
X126.0Y-89.0
X126.0Y-97.0
X126.0Y-99.0
X126.0Y-107.0
X126.0Y-109.0
X126.0Y-111.0
X126.0Y-119.0
X126.0Y-121.0
X126.0Y-131.0
X126.0Y-133.0
X126.0Y-135.0
X126.825Y-54.6
X126.85Y-48.15
X126.85Y-51.325
X127.0Y-42.0
X127.0Y-61.0
X127.1Y-90.0
X127.12Y-121.762
X127.15Y-111.025
X127.25Y-100.075
X128.0Y-42.0
X128.0Y-48.75
X128.0Y-49.75
X128.0Y-50.75
X128.0Y-53.25
X128.0Y-54.25
X128.0Y-61.0
X128.0Y-97.0
X128.0Y-99.0
X128.0Y-109.0
X128.0Y-119.0
X128.0Y-131.0
X128.0Y-133.0
X129.0Y-42.0
X129.0Y-61.0
X129.35Y-54.625
X129.375Y-48.225
X129.375Y-52.3
X130.0Y-42.0
X130.0Y-61.0
X131.0Y-42.0
X131.0Y-48.75
X131.0Y-49.75
X131.0Y-50.75
X131.0Y-52.25
X131.0Y-53.25
X131.0Y-54.25
X131.0Y-61.0
X132.0Y-42.0
X132.0Y-48.75
X132.0Y-49.75
X132.0Y-50.75
X132.0Y-52.25
X132.0Y-53.25
X132.0Y-54.25
X132.0Y-61.0
X137.25Y-57.2
X139.2Y-64.275
X139.225Y-60.65
X142.225Y-62.375
X144.0Y-87.0
X144.0Y-89.0
X144.0Y-91.0
X144.0Y-93.0
X144.0Y-95.0
X144.0Y-97.0
X144.0Y-99.0
X144.0Y-101.0
X144.0Y-103.0
X144.0Y-105.0
T2
X67.97Y-119.95
X67.97Y-124.95
X68.0Y-109.307
X68.0Y-114.307
X71.17Y-119.95
X71.17Y-124.95
X71.2Y-98.302
X71.2Y-103.302
X71.2Y-109.307
X71.2Y-114.307
X71.25Y-87.892
X71.25Y-92.892
X74.37Y-119.95
X74.37Y-124.95
X74.4Y-98.302
X74.4Y-103.302
X74.4Y-109.307
X74.4Y-114.307
X74.45Y-87.892
X74.45Y-92.892
X93.97Y-119.95
X93.97Y-124.95
X94.0Y-98.302
X94.0Y-103.302
X94.0Y-109.307
X94.0Y-114.307
X94.05Y-88.03
X94.05Y-93.03
X97.17Y-119.95
X97.17Y-124.95
X97.2Y-98.302
X97.2Y-103.302
X97.2Y-109.307
X97.2Y-114.307
X97.25Y-88.03
X97.25Y-93.03
X100.37Y-119.95
X100.37Y-124.95
X100.4Y-109.307
X100.4Y-114.307
X109.37Y-119.95
X109.37Y-124.95
X109.4Y-109.307
X109.4Y-114.307
X112.57Y-119.95
X112.57Y-124.95
X112.6Y-88.05
X112.6Y-93.05
X112.6Y-98.302
X112.6Y-103.302
X112.6Y-109.307
X112.6Y-114.307
X115.77Y-119.95
X115.77Y-124.95
X115.8Y-88.05
X115.8Y-93.05
X115.8Y-98.302
X115.8Y-103.302
X115.8Y-109.307
X115.8Y-114.307
X135.37Y-119.95
X135.37Y-124.95
X135.4Y-88.052
X135.4Y-93.052
X135.4Y-98.302
X135.4Y-103.302
X135.4Y-109.207
X135.4Y-114.207
X137.1Y-68.877
X137.1Y-72.377
X137.1Y-77.8
X137.1Y-81.3
X138.57Y-119.95
X138.57Y-124.95
X138.6Y-88.052
X138.6Y-93.052
X138.6Y-98.302
X138.6Y-103.302
X138.6Y-109.207
X138.6Y-114.207
X141.77Y-119.95
X141.77Y-124.95
X141.8Y-109.207
X141.8Y-114.207
T3
X64.242Y-45.487
X64.242Y-48.027
X64.242Y-50.567
X64.242Y-53.107
X69.322Y-45.487
X69.322Y-48.027
X69.322Y-50.567
X69.322Y-53.107
X138.7Y-45.88
X138.7Y-48.42
X138.7Y-50.96
X138.7Y-53.5
X143.78Y-45.88
X143.78Y-48.42
X143.78Y-50.96
X143.78Y-53.5
T4
X57.5Y-56.42
X57.5Y-58.96
X57.5Y-61.5
X57.5Y-68.36
X57.5Y-70.9
X57.5Y-73.44
X57.5Y-75.98
X57.6Y-46.66
X57.6Y-49.2
X57.6Y-51.74
X151.7Y-46.76
X151.7Y-49.3
X151.7Y-51.84
T5
X96.5Y-47.4
X96.5Y-55.0
X111.5Y-47.4
X111.5Y-55.0
T6
X77.8Y-47.3
X77.8Y-54.8
X82.8Y-47.3
X82.8Y-54.8
X87.8Y-47.3
X87.8Y-54.8
T7
X72.4Y-131.8
X77.4Y-131.8
X91.0Y-131.8
X96.0Y-131.8
X113.722Y-131.8
X118.722Y-131.8
X132.4Y-131.8
X137.4Y-131.8
X148.45Y-70.1
X148.45Y-75.1
X148.45Y-80.1
T8
X59.5Y-95.25
X59.5Y-133.25
X108.0Y-68.75
X149.5Y-95.25
X149.5Y-133.25
M30
